/* XPM */
static char *exit[] = {
/* columns rows colors chars-per-pixel */
"64 64 256 2",
"   c #366C78",
".  c #745465",
"X  c #696F7D",
"o  c #3E7A99",
"O  c #3A6E95",
"+  c #3F76A1",
"@  c #477B9A",
"#  c #51748D",
"$  c #447CA3",
"%  c #5C7FA2",
"&  c #7A7787",
"*  c #69758A",
"=  c #637FA1",
"-  c #69B93F",
";  c #579B58",
":  c #4E945E",
">  c #719F62",
",  c #63AE4A",
"<  c #69A954",
"1  c #6AB545",
"2  c #76AC56",
"3  c #7ABB47",
"4  c #7BB454",
"5  c #6EAD6D",
"6  c #7DC046",
"7  c #4C869B",
"8  c #4D8EB5",
"9  c #5987A5",
"0  c #5696B8",
"q  c #5090AE",
"w  c #75868D",
"e  c #7A8897",
"r  c #6B8F94",
"t  c #668AA7",
"y  c #6696B6",
"u  c #7593AF",
"i  c #6AA5B4",
"p  c #5399D3",
"a  c #489CE4",
"s  c #5CB7DD",
"d  c #59A4D0",
"f  c #54AAE7",
"g  c #59B9E7",
"h  c #52B5ED",
"j  c #66B7D9",
"k  c #6EB0D2",
"l  c #66BBE9",
"z  c #62BFF1",
"x  c #5CC1EE",
"c  c #5BC2F3",
"v  c #74C0DF",
"b  c #63C0EB",
"n  c #67C4F1",
"m  c #BB1D3C",
"M  c #B41E3C",
"N  c #AE203C",
"B  c #B5213C",
"V  c #BA213B",
"C  c #993854",
"Z  c #9C2C4C",
"A  c #BD1F41",
"S  c #AC2B49",
"D  c #A72D51",
"F  c #A8324B",
"G  c #A93857",
"H  c #BB2443",
"J  c #BC2749",
"K  c #BD2946",
"L  c #BC2A4C",
"P  c #B42847",
"I  c #BC2D52",
"U  c #B52D51",
"Y  c #B8314F",
"T  c #B43554",
"R  c #BC3355",
"E  c #BA385A",
"W  c #92435B",
"Q  c #8B4E64",
"!  c #8A5367",
"~  c #934C64",
"^  c #96526A",
"/  c #9D7D5D",
"(  c #987369",
")  c #A8455C",
"_  c #AD4C5D",
"`  c #AA4564",
"'  c #A7596B",
"]  c #BA4766",
"[  c #BC4E73",
"{  c #B75474",
"}  c #B3576B",
"|  c #AB6A7B",
" . c #A17A64",
".. c #B3776C",
"X. c #AE656E",
"o. c #C21D3D",
"O. c #C41F40",
"+. c #C22B4D",
"@. c #C62549",
"#. c #C52D53",
"$. c #CA2C54",
"%. c #CA2E59",
"&. c #C5304E",
"*. c #C53254",
"=. c #C43359",
"-. c #CB3255",
";. c #CC335B",
":. c #C6395C",
">. c #D22E56",
",. c #D22E58",
"<. c #D2355C",
"1. c #D2365C",
"2. c #CA3962",
"3. c #D43562",
"4. c #D33B63",
"5. c #DA3C65",
"6. c #DC3E6A",
"7. c #D53A69",
"8. c #C7476B",
"9. c #C84C74",
"0. c #C45878",
"q. c #DC446C",
"w. c #D4436C",
"e. c #D84772",
"r. c #C7607F",
"t. c #E0436D",
"y. c #E04771",
"u. c #837886",
"i. c #917B8D",
"p. c #AE6882",
"a. c #AE7188",
"s. c #CE718D",
"d. c #E07D9B",
"f. c #8C9856",
"g. c #949558",
"h. c #8F8858",
"j. c #9B8561",
"k. c #84BD4C",
"l. c #87BF4B",
"z. c #86B853",
"x. c #9AAB5A",
"c. c #97BA57",
"v. c #9BAF6B",
"b. c #9CB161",
"n. c #A68B65",
"m. c #AA9468",
"M. c #B28C6F",
"N. c #A4A566",
"B. c #A7B97A",
"V. c #98D13C",
"C. c #87C04A",
"Z. c #8AC34A",
"A. c #88C347",
"S. c #8DC357",
"D. c #91C845",
"F. c #92C55C",
"G. c #92C453",
"H. c #97C764",
"J. c #9CC874",
"K. c #A2CC76",
"L. c #A4D06E",
"P. c #888997",
"I. c #8E9198",
"U. c #8A99A6",
"Y. c #8E9FB2",
"T. c #999AA7",
"R. c #8288A3",
"E. c #96AD98",
"W. c #88A4A9",
"Q. c #98A5AB",
"!. c #97A3B5",
"~. c #94B1B4",
"^. c #AD8897",
"/. c #B28D99",
"(. c #A995A5",
"). c #B79AA7",
"_. c #AE8EA0",
"`. c #A8AAB7",
"'. c #A6B6BA",
"]. c #B9B6BC",
"[. c #ACA4A9",
"{. c #9DB9D5",
"}. c #96AEC9",
"|. c #A7B7C6",
" X c #B6B6C6",
".X c #A5B7D4",
"XX c #B4D590",
"oX c #A6C4BB",
"OX c #B9D7A7",
"+X c #B9CDB3",
"@X c #9CC2C0",
"#X c #A8C5C5",
"$X c #A9C6DD",
"%X c #BCC7C9",
"&X c #B9CBDB",
"*X c #BAD2DA",
"=X c #A9C9E5",
"-X c #B4CBE4",
";X c #BCD4EB",
":X c #BAD5E9",
">X c #B9D8F2",
",X c #ADD1E9",
"<X c #C7869D",
"1X c #D48299",
"2X c #C697A6",
"3X c #D693A9",
"4X c #C6A8B8",
"5X c #C8B5BC",
"6X c #D6A6B9",
"7X c #D2B5BF",
"8X c #E69AB3",
"9X c #C8B7C5",
"0X c #D7B8C7",
"qX c #EEB5CA",
"wX c #C4DCB2",
"eX c #CAE2B9",
"rX c #C9E0AE",
"tX c #C7CBD9",
"yX c #C9DCC8",
"uX c #C8D5DC",
"iX c #D8C2CD",
"pX c #D7C9D4",
"aX c #DCD4DC",
"sX c #CFD4CC",
"dX c #C3D4E4",
"fX c #CBD5E4",
"gX c #CCDAE5",
"hX c #CBDAEB",
"jX c #C6D7EB",
"kX c #C8DAF1",
"lX c #D5DBE6",
"zX c #CCD8EB",
"xX c #D9E7D5",
"cX c #D8E6C8",
"vX c #CEE2E9",
"bX c #D9E4E9",
"nX c #D9EAF3",
"mX c #D4E8F3",
"MX c #E6D2DD",
"NX c #F6C3D8",
"BX c #E6CCD7",
"VX c #EADBE4",
"CX c #FAD8E8",
"ZX c #E2ECDB",
"AX c #E6E8EC",
"SX c #E5EDF3",
"DX c #ECF2EC",
"FX c #E3F3F7",
"GX c #E6F6F8",
"HX c #EBF4F5",
"JX c #ECF9FB",
"KX c #EBF6F9",
"LX c #F7E8EF",
"PX c #F4E9F2",
"IX c #F4F5FA",
"UX c #F4F5F9",
/* pixels */
"Z.Z.z.4 - Z.Z.Z.Z.Z.Z.Z.Z.Z.Z.Z.Z.Z.Z.Z.Z.Z.Z.Z.Z.Z.Z.Z.Z.Z.Z.Z.Z.Z.Z.Z.Z.Z.Z.Z.Z.Z.Z.Z.Z.Z.Z.Z.Z.Z.Z.Z.Z.Z.Z.Z.Z.Z.Z.Z.Z.Z.Z.Z.",
"Z.Z.z.> < 3 Z.Z.Z.Z.Z.Z.Z.Z.Z.Z.Z.Z.Z.Z.Z.Z.Z.Z.Z.Z.Z.Z.Z.Z.Z.Z.Z.Z.Z.Z.Z.Z.Z.Z.Z.Z.Z.Z.Z.Z.Z.Z.Z.Z.Z.Z.Z.Z.Z.Z.Z.Z.Z.Z.Z.Z.Z.Z.",
"Z.Z.C.z.4 3 Z.Z.Z.Z.Z.Z.Z.Z.Z.A.Z.Z.Z.Z.Z.Z.Z.Z.Z.Z.Z.Z.Z.Z.A.A.Z.Z.Z.Z.Z.Z.Z.Z.Z.Z.Z.Z.Z.Z.Z.Z.Z.Z.Z.Z.Z.Z.Z.Z.Z.Z.Z.A.Z.Z.Z.Z.",
"Z.Z.Z.C.Z.Z.Z.Z.Z.Z.Z.Z.Z.Z.Z.A.Z.Z.Z.Z.Z.Z.Z.Z.Z.Z.Z.Z.Z.A.Z.D.3 3 Z.Z.D.Z.Z.Z.Z.Z.Z.Z.Z.Z.Z.C.Z.Z.Z.A.D.D.Z.Z.Z.Z.Z.Z.Z.Z.Z.Z.",
"Z.Z.Z.Z.Z.Z.Z.Z.A.A.Z.Z.Z.Z.Z.Z.Z.Z.Z.Z.A.A.C.C.Z.A.Z.D.F.c.x.x.f.f.g.x.x.G.G.D.D.Z.C.Z.Z.Z.Z.l.Z.Z.Z.Z.Z.Z.Z.Z.Z.Z.Z.Z.Z.Z.Z.Z.",
"Z.Z.Z.Z.Z.Z.Z.Z.A.k.Z.A.Z.Z.Z.Z.Z.Z.Z.Z.A.C.k.k.C.c.N.M...} _ G F F Z G _ X...m.x.z.C.Z.D.A.l.l.Z.Z.Z.Z.Z.Z.Z.A.Z.Z.Z.Z.Z.Z.Z.Z.",
"Z.Z.Z.Z.Z.Z.Z.Z.k.- l.z.Z.Z.Z.Z.Z.Z.Z.Z.Z.C.C.S.N...] T T P H N N N B S P Y T ) '  .x.G.Z.Z.l.Z.Z.Z.Z.Z.Z.Z.A.6 A.Z.Z.Z.Z.Z.Z.Z.",
"Z.Z.Z.Z.Z.Z.Z.Z.k.< 3 3 l.Z.Z.Z.Z.Z.Z.Z.Z.Z.c.M.[ F S =.-.+.@.m O.V V H +.-.-.Y D F X.m.l.Z.Z.Z.Z.Z.Z.Z.Z.Z.A.1 3 3 Z.Z.Z.Z.Z.Z.",
"Z.Z.Z.Z.Z.Z.Z.Z.k.2 2 4 A.Z.Z.Z.Z.Z.Z.Z.Z.c. .C F Y R 1.-.-.@.o.V O.o.o.@.-.-.,.$.I R ` n.G.A.Z.Z.Z.Z.Z.Z.Z.Z.3 , 6 k.l.A.Z.Z.Z.",
"Z.Z.Z.Z.Z.Z.Z.Z.A.A.Z.Z.A.A.Z.Z.Z.Z.Z.Z.l.n.) G T R R *.-.-.&.V V V B H &.-.-.>.@.@.:.T W g.Z.Z.Z.Z.Z.Z.Z.Z.Z.k.< < < Z.Z.Z.Z.Z.",
"Z.Z.Z.Z.Z.Z.Z.Z.A.Z.Z.Z.Z.Z.Z.Z.D.Z.Z.l.n.G D E :.*.&.&.-.1.@.V V V V @.@.-.>.>.$.$.1.T S ) N.Z.Z.Z.A.D.l.G.G.A.4 z.4 Z.Z.Z.Z.Z.",
"A.Z.Z.Z.Z.Z.Z.Z.k.A.Z.x.m.M.m.n.n.m.M...8.U U #.$.+.>.1.-.>.&.V H H o.V >.>.>.>.@.$.<.Y S Y } M.m.m.n.n.M.M.m.b.A.A.A.Z.Z.Z.Z.Z.",
"Z.Z.Z.Z.Z.Z.Z.k.k.Z.N.X.] e.9.:.E 9.8.8.2.I $.%.,.$.#.$.-.-.&.B V m V H $.>.>.&.$.#.=.*.I U :.8.9.w.E E 9.9.[ | b.Z.Z.l.Z.Z.Z.Z.",
"Z.Z.Z.Z.Z.Z.Z.k.z.v.X.G 8.y.q.;.3.q.e.w.3.%.$.%.%.$.$.$.-.:.V B B B B V +.>.-.-.I #.;.*.#.$.;.6.t.y.2.=.e.e.9.) X.N.Z.D.Z.Z.Z.Z.",
"A.k.k.l.Z.Z.Z.z.j._ T :.w.e.6.;.4.q.y.4.%.%.$.$.%.$.#.-.:.&.V B B M m o.@.-.1.1.#.L =.#.L %.3.5.q.t.3.;.q.q.w.E ` X.N.l.Z.Z.Z.Z.",
"Z.Z.k.Z.Z.Z.c.M.R J ;.2.q.q.6.3.4.q.y.7.%.#.@.%.%.+.@.-.1.&.&.V V m o.m @.&.:.-.J +.*.+.#.$.1.5.t.e.3.3.t.t.5.:.T F _ m.c.A.Z.Z.",
"Z.Z.Z.Z.Z.c.M.E B +.;.;.7.q.6.;.3.q.y.4.-.+.+.-.$.#.J *.-.-.K V V V V V K &.*.-.&.+.-.*.+.$.<.q.t.t.3.<.t.t.5.-.*.Y S ] m.D.l.A.",
"Z.Z.Z.Z.Z.g.C U L +.*.*.5.q.7.;.4.y.y.4.-.&.+.-.;.+.L +.&.&.V V V V V V V Y Y -.+.+.;.-.+.&.<.5.t.q.<.3.t.t.5.,.*.R Y G ' l.Z.A.",
"Z.Z.Z.Z.Z.j.Z E #.+.-.2.w.q.w.2.4.y.q.4.;.+.+.*.:.Y P K L K V V V V V B B K P Y +.#.-.*.+.-.1.4.t.t.<.3.t.t.5.-.-.R T G C g.Z.Z.",
"Z.Z.Z.Z.S.( G T L +.-.;.q.q.q.3.2.q.y.7.;.+.J *.R P J H K V V V V V V B B B H H L J +.+.+.$.1.5.t.t.<.3.t.t.5.>.-.+.R T C g.Z.Z.",
"Z.Z.Z.Z.Z. .D U +.$.$.;.6.y.7.;.1.y.y.4.;.+.+.L P B B M m o.o.m V V V V M m M A H M J +.J $.<.5.t.y.1.5.t.t.5.5.<.$.R E G f.D.A.",
"Z.Z.Z.Z.S./ D =.L #.;.4.w.y.e.;.4.q.y.4.-.+.J J M M M m m o.o.O.V V M V M m m M M M H J K +.1.w.t.t.1.1.t.t.5.>.,.+.L R F f.Z.A.",
"Z.Z.Z.Z.l. .D =.L +.-.4.q.y.q.1.1.q.y.w.*.J H B V @.o.o.o.o.o.o.M B V M M m A m M P H H H +.-.5.t.q.1.1.t.t.5.>.%.$.I R F g.Z.Z.",
"Z.Z.Z.Z.G. .D =.#.+.#.;.q.y.q.2.4.q.y.7.#.H H B m O.@.O.O.o.m A H B B V m m O.m A H H H B @.&.q.t.t.1.1.5.t.1.>.>.$.I E G g.Z.Z.",
"Z.Z.Z.Z.Z. .D =.#.+.#.1.7.6.7.3.2.6.q.1.*.J K @.m O.@.@.@.@.H P P S S P K @.o.H O.+.K K K K &.1.q.1.<.<.5.5.<.,.>.@.Y :.) f.Z.Z.",
"Z.Z.l.l.Z./ D #.I +.1.4.2.3.2.;.;.2.1.;.-.&.-.&.&.$.@.>.$.+.*.T G ) G T T +.+.@.&.&.-.-.&.&.&.1.1.,.-.<.<.,.<.5.<.$.L R G g.D.Z.",
"l.l.2 2 z.j.D R &.-.q.q.;.=.;.%.;.=.=.;.-.-.:.-.&.L H +.L T ] r.1X3X1X{ ] E L J @.-.-.1.-.-.-.>.-.>.$.<.,.>.<.5.6.$.L T ) g.C.Z.",
"Z.l.3 k.C./ D R #.1.y.q.;.I %.;.2.;.;.#.-.&.-.-.:.Y P Y ] r.8XNXCXLXCXNX3X8.Y J K &.&.-.&.-.-.&.-.&.-.<.,.$.<.t.6.<.R E C h.4 C.",
"Z.Z.- - l./ Z 2.1.1.t.t.3.#.%.;.3.%.$.*.-.-.*.*.Y S F T 0.8XCXCXMXMXMXCXNX8X8.P K K &.&.&.:.-.-.-.-.-.>.%.-.3.6.3.3.:.] ) f.l.A.",
"Z.l., ; 3 h.C [ w.1.5.6.3.%.%.=.=.=.*.*.=.;.*.=.Y F F _ 1XNXCX0X[./.).BXCXNXs.E Y K &.&.-.1.1.-.-.1.-.1.;.;.3.6.3.7.8.9.~ f.Z.Z.",
"Z.Z.l.k.A.f.! { 8.q.3.3.,.@.$.%.#.R R R #.%.*.*.Y F T :.1XqX8X2XiXVX7X2X7XqXd.R P L L *.&.-.-.-.*.=.&.-.%.I ,.7.6.6.9.{ ^ g.Z.Z.",
"Z.Z.Z.Z.A.v.( ^ 9.e.w.<.$.@.@.#.U U U S U L L L N F ] R r.1XX.2XLXLXMX/...1X0.T Y J J P J L +.&.J J J L L P #.7.t.e.[ ^ a.B.Z.Z.",
"Z.Z.Z.Z.K.cX7X| [ p.p.7.%.%.$.+.I U U U U I I U S Y E 8.d.qX3X).BXZX0X).6XqXd.*.I I #.#.L J #.%.$.$.#.$.+.I ;.w.9.9.' a.9XOXA.Z.",
"Z.Z.Z.Z.rXIXLX6Xp.{ 2.8.2.=.;.;.%.%.=.I =.2.%.I Y P U G d.CXVX2X).5X).0XCXqXs.#.#.#.%.;.%.$.%.,.;.;.;.;.;.;.2.9.{ ^ a.0XPXwXZ.Z.",
"Z.Z.l.G.rXVXLXLX8Xp.{ [ ] 2.:.;.=.%.=.=.E =.2.=.=.P F G 0.qXLXVXiXwX0XCXCX8X9.T U I =.;.%.%.,.3.%.%.%.=.=.#.2.) ~ ^.iXPXHX+XZ.Z.",
"Z.Z.D.Z.OX]. XPXPX9Xi.^ W C G T ` G G ` G G G G D F Z C Q a.7XlXAXAXAXMX4X| C C C Z G G G G G G G G G G G D W ^ ^.iXSXJXGXwXS.Z.",
"Z.Z.Z.D.XX+XI.#XnXSX9Xi.. ! ! ~ ~ Q ~ ! ^ ! ! Q ~ Q W . . . & Q.~.~.'.Q.& . . Q Q . Q ^ ^ Q Q Q ^ Q ! ! Q Q ! _.MXHXJXJXbXOXD.Z.",
"Z.Z.Z.l.XXDXsXI..XnXSXdXQ.T.(.(._._._.(.(.(.(._.).)._.(.T.T.Y.Y.W.W.Q.W.T.T.^.T.(.(.(.(.(.(.(.(.(.(.(.(.(.(.`.aXJXJXJXuXQ.E.G.Z.",
"Z.Z.Z.A.L.DXHX%XW.~.vXnXuXuXuXsXpXtXtXtXdXtXdXtXtX0XtXtXtXtX-X&X-X*X*X*X*XuX*X&XdXdXtX-X-X&XfXtX&XtXdXdXdX:XgXFXJXJXsXQ.'.+XG.A.",
"Z.Z.Z.A.H.xXJXHXtXT.'.gXvXuXuXfXfXzXzXzXkXjXkXkXkXkXkXkXzXzXzXjXhXhXjXfXgXlXlXhXkXkX;XdXdXdXfXdXjXkXkXjX;X:XvXFXHXsXI.Q.bXcXG.A.",
"Z.Z.Z.Z.G.eXKXUXUXMX[.[.'.`.'.|.'.|..X.X.X{.{.{.{.{.{.{..X.X|. X X X X`.`.`.`.|.|.&XdX-XzXzXzXfXzXzXzXkXdX;XmXFX%XI.[.lXIXcXG.D.",
"Z.l.Z.Z.A.rXUXUXIXUXlXQ.w w r e e e e # # % q 7 7 7 q 9 % % t t # * i.= e P.e w * U.&XlXzXzXzXzXlXzXzXzXhXjXjX#XI.`.DXUXIXxXG.Z.",
"Z.l.l.Z.D.XXDXUXHXJXJXvX#X#X|.|.}.}.}.# @ 0 8 0 8 d 0 0 p q 0 y # # .X.X|.|.|.'.U.X * P.P.I.I.e P.P.P.I.U.e e P.'.SXIXUXUXZXF.D.",
"Z.l.Z.l.Z.rXHXJXDXFXJXFXvXgXgXdXjXjX$Xy q j s s s s x s s j k k o t >XkXjXlXlXlXtXT.& P.P.P.P.i.i.P.P.I.P.P.I. XDXGXJXIXUXxXF.D.",
"Z.Z.Z.Z.F.cXJXJXJXGXGXmXgXfXfXfXzXkX-Xy q j s s g s g s x j j k o 9 >X>XvXhXtXtXaXBXBX0X4X4X0XMXCX0X4X4X9X0XAXIXJXKXJXJXUXZXH.A.",
"Z.Z.Z.A.L.xXDXJXJXFXFXnXvXfXfXhXjXkX:Xi q s s g s s x x x g b j + 9 >X>XdXgXdXuXuXlXVX<Xs.<X2XMXCX3Xp./.9XpXAXKXGXJXJXHXHXxXH.Z.",
"Z.Z.A.A.XXAXxXnXGXGXFXFXvXgXfXgXjXdX,X0 8 x s g s g n c x x l l @ 9 >X>XvXzXhXuXuXvXpXa.p.d.).pXCX1X8.8XVXAXnXFXKXJXJXnXlXyXF.Z.",
"Z.Z.A.D.XXHXlXxXnXFXGXFXmXlXfXdXzX;X=X0 8 s s g s l l b b b l k 7 9 kXvXdXlXlXfXuXbXpX| ` { ^.5XBXa.G d.iXbXnXGXJXJXnXlXAXeXG.Z.",
"Z.Z.Z.A.XXDXDXlXuXAXFXGXvXtXfXfXdX:X=Xy q s g g l b x g x l l k 7 t >XvXfXlXlXuXzXbXpX/.p.3X0X5X9X3X{ a.).&XKXKXKXnXlXbXKXeXZ.C.",
"Z.Z.Z.A.K.ZXDXDXbXuXbXSXmXlXfXfXjXkX,X0 q s g g x x x h c x g j o t :X:XuXuXgXgXgXlXVX0X8XqXVXpX0XqX8X0X9XlXKXFXAXlXSXSXSXXXZ.Z.",
"Z.l.Z.Z.S.OXbXDXKXAXuXlXlXfXfXfXdX;X=Xt q l g h c c h h h h s j 7 q ,X*X*XtXuXuXdXlXlX0X4X4X].9X X9X0X9X XfXlXmXzXSXKXnXyXH.Z.Z.",
"Z.Z.Z.Z.k.H.eXVXHXJXSX%XU.w e e e t 9 # 8 l l z c c c c x x x v 7   r r w w & w e e e & & & & & & . & & * i.!.tXSXKXAXsXL.D.Z.Z.",
"Z.Z.Z.Z.A.Z.H.eXAXFXFXgX|.Y.Y.Y.Y.Y.y $ p l l n n n c c c z b v 7 # W.W.U.Y.!.Y.!.!.!.Y.!.!.!.!.T.!.!.!.!.!. XnXSXAXsXK.D.D.A.Z.",
"Z.Z.Z.Z.Z.Z.A.H.eXbXmXFXkXjXjX>X;X>X>Xp $ p j f h h h h a f f d o q ,X:XjXjXkXkX;X;X:X-X:X:X;XdXjXjX-X;XkXkXzXSXAXxXK.Z.l.Z.Z.Z.",
"Z.Z.Z.Z.Z.Z.Z.Z.F.OXvXnXkXjX;X;X>X>X=Xt @ p d f a a a a a a p p + 9 >X>X>X,XjXkX;X;X:X>X>X>X>X>X;X-X;XjXjXjXkXnXaXK.Z.Z.Z.Z.Z.Z.",
"Z.l.l.Z.Z.Z.Z.Z.C.C.L.*X-X.X=X-X-X=X{.% $ y p p a a a a a a a p O 8 =X=X=X=X=X=X=X$X$X$X=X$X=X=X=X=X=X=X=X-XzXtXXXC.A.Z.Z.Z.Z.Z.",
"Z.C.Z.Z.Z.Z.Z.Z.C.A.3 5 E.@XoXoXoXoX~.r r i i y i d 0 d d i i i 7 r @X#X|.@X#X#XoXoXoXoX#XoX#X#X$X#X#X#X#XoX+XJ.6 A.Z.Z.Z.Z.Z.Z.",
"Z.Z.Z.Z.Z.Z.Z.Z.Z.A.< ; < 5 F.D.F.F.Z.S.G.F.F.F.S.F.6 4 S.S.S.S.c.F.S.F.S.S.F.F.G.G.S.F.F.F.S.F.H.c.H.H.F.S.l.Z.Z.C.Z.Z.Z.Z.Z.Z.",
"Z.Z.Z.Z.Z.Z.Z.Z.Z.Z.z.< < l.A.A.Z.Z.Z.Z.Z.A.A.Z.C.Z.C.3 A.A.D.Z.C.A.Z.Z.6 A.C.Z.A.V.V.1 6 C.1 A.A.k.l.D.Z.D.D.l.Z.Z.Z.A.Z.Z.Z.Z.",
"Z.Z.Z.Z.Z.Z.Z.Z.Z.Z.Z.A.A.Z.Z.Z.Z.Z.Z.Z.C.C.C.A.Z.Z.Z.Z.A.Z.D.Z.A.Z.Z.Z.C.1 3 3 k.3 1 , 3 C.- 1 z.l.Z.Z.Z.l.Z.Z.Z.A.C.Z.Z.Z.Z.Z.",
"Z.Z.Z.Z.Z.Z.A.Z.Z.Z.Z.Z.Z.Z.Z.Z.Z.Z.Z.Z.C.C.z.Z.Z.Z.Z.Z.Z.Z.Z.Z.Z.Z.Z.Z.A.1 3 3 , : ; 2 2 l.- ; z.z.l.l.Z.Z.Z.Z.A.k.- l.z.l.l.Z.",
"Z.Z.3 Z.Z.Z.Z.Z.Z.Z.Z.Z.Z.Z.Z.Z.Z.Z.Z.Z.C.Z.A.Z.Z.C.Z.Z.Z.Z.Z.Z.Z.Z.Z.Z.A.4 4 l.4 2 < z.l.A.1 2 z.z.l.l.Z.Z.Z.Z.A.l.3 4 l.z.Z.Z.",
"Z.Z., 3 Z.Z.Z.Z.Z.Z.Z.Z.Z.Z.Z.Z.Z.Z.Z.Z.Z.Z.Z.Z.Z.Z.Z.Z.Z.Z.Z.Z.Z.Z.Z.Z.Z.Z.Z.Z.l.l.D.l.Z.Z.Z.D.Z.l.D.l.Z.Z.Z.Z.Z.Z.< < z.z.Z.Z.",
"Z.C., < C.Z.Z.Z.Z.Z.Z.Z.Z.Z.Z.Z.Z.Z.Z.Z.Z.C.Z.Z.Z.Z.Z.Z.Z.Z.Z.Z.Z.Z.Z.Z.Z.Z.Z.Z.D.l.l.Z.Z.Z.Z.Z.Z.l.D.A.Z.Z.l.Z.Z.Z.1 ; 2 k.Z.Z."
};
