/* XPM */
static char *floor[] = {
/* columns rows colors chars-per-pixel */
"64 64 79 1",
"  c #5CB53C",
". c #63B63F",
"X c #64BA3B",
"o c #68B73F",
"O c #6CB93F",
"+ c #73BE3E",
"@ c #79BF3F",
"# c #4C945C",
"$ c #4F9E52",
"% c #539D55",
"& c #579C59",
"* c #5B9E59",
"= c #57A44E",
"- c #53AA44",
"; c #5CAE43",
": c #5DA94B",
"> c #56A251",
", c #5BA254",
"< c #5CA058",
"1 c #5EB240",
"2 c #60AF46",
"3 c #63AC4B",
"4 c #6AAE4D",
"5 c #64A653",
"6 c #67A15B",
"7 c #66AA51",
"8 c #6AA557",
"9 c #6CA45A",
"0 c #6CAB53",
"q c #64B343",
"w c #66B049",
"e c #67B840",
"r c #6BB545",
"t c #6CB24B",
"y c #6DB942",
"u c #71AF4D",
"i c #70A559",
"p c #74AD53",
"a c #73AB58",
"s c #7BAE55",
"d c #78AA5A",
"f c #70B646",
"g c #74B44B",
"h c #74BC43",
"j c #76B948",
"k c #7BB64E",
"l c #7CBE45",
"z c #7DBA4B",
"x c #74B150",
"c c #7CB252",
"v c #7FB159",
"b c #76C03E",
"n c #7EC734",
"m c #7BC23E",
"M c #7DCA32",
"N c #77C040",
"B c #7DC042",
"V c #83B74F",
"C c #80BF47",
"Z c #85BD4C",
"A c #88BE4C",
"S c #83B553",
"D c #85BA51",
"F c #83C53D",
"G c #84CB35",
"H c #8CC93D",
"J c #8BD031",
"K c #93CE3C",
"L c #92D236",
"P c #93D03A",
"I c #A0D639",
"U c #A5DB33",
"Y c #83C146",
"T c #86C149",
"R c #8DC546",
"E c #8AC24A",
"W c #8BC841",
"Q c #90C745",
"! c #92CA43",
/* pixels */
"EEEDgyEEEEEEEEEEEEEEEEEEEEEEEEEEEEEEEEEEEEEEEEEEEEEEEEEEEEEEEEEE",
"EEEv9tTEEEEEEEEEEEEEEEEEEEEEEEREEEEEEEEEEEEEEEEEEEEEEEEEEEEEEEEE",
"EEEESkTEEEEEEEEEEEEEEEEEEEEEEEEEEEEEEEEEEEEEEEEEEEEEEEEEEEEEEEEE",
"EEEEEEEEEEEEEEEEEEEEEEEEEEEEEEEEhlEEEEEEEEEEEEEEEEER!EEEEEEEEEEE",
"EEEEEEEEEEEEEEEEEEEEEEEAEEEEEEEEyjkEEEEERETEEETZEEEEEEEEEEEEEEEE",
"EEEEEEEEEYTEEEEEEEEEETAZAEEEEEEEyg4ZEEEETZZEREZEEEEEEEEEEEEEEEEE",
"EEEEEEEERhBZAEEEEEEEEEAETEEEEEEEYkcAEEEZZEEEEZETEEEEEEBBEEEEEEEE",
"EEEEEEEEE0xtZEEEEEEEEEEEEEEEEEEEEREEEEEEEEEEEEEEEEEEEENhjEEEEEEE",
"EEEEEEEEExp0DEEEEEEEEEERCCEEYTDEEEEEEEEEEEEEEEEEEEEEEETrBzDEEEEE",
"EEEEEEEEEEEEEEEEEEEEEEEEYhEl.kDEEEEEEEETEEEEEEEEEEEEEEE807TEEEEE",
"EEEEEEEEEEEEEEEREEEEEEEEEL@hqkEEEEEEEETTZEEBYEEEEEEEEEEDDkEEEEEE",
"EEEEEEEETYEEEEEEEEEEEEEEEKr88AEEEEEERTTEEERhYREEERREEEEEEEEEEEEE",
"EEEEEEEEZYEEEEEEEEEEEREEE0*icEEEEEEEETNYEEhhRBEEEEEEEEEEEEEEEEEE",
"EEEETEEAkZEEEEEEEEEECCEEEEcZEEEEEEEEEEWGYYqtBBllEEEEEEEEEEEEEEEE",
"EETZEEEExcEEEEEEEEEE@@EEEEEEEEREEEEEEERFYYB4mThhEEEEEEEEEEEEEEEE",
"EEEAEEEEpsEEEEEEEEAEh;zEEEEEEEEccZEEEEE9gw7t>j1jEEEEEEEEEEEEEEEE",
"EEEEEEEEDSREEEEEEEDZl4cEEEEEEEEZcZEEERDak0xc8lgDEEEEEEEEEEERQEEE",
"EEEEEEEEEETlEEEEEEEEEEEREEEEEEEEEEEEEEEEEEEEEEEEEEEEEEEEEEERQEEE",
"EEEEEEEEEETWPEEETTEEEEEEEEEEEEEEEEEEEEEEEEEEEEEEEEEEEQEEEEEEEEEE",
"EEEEEEElEEEThYBEhlEEEEEEEEEEEEEEEEEEEEEEEEEEEEEEEEEEQI!BEEEEEEEE",
"EEEEEEEyllTl2.OEhOEEEEEEEEEEEEEEEEEEEEEREEEEEEEEEEEEE!WrZDEEEEEE",
"EEEEEREYeYr,%oCEB lEEEEEEEEEZcAEEEEEEEEEEEEEEEADQEEEEE0xDDEEEEEE",
"EEEEEEEZ0El*&gAEBXlEEEEETEEEEZEEERREEEEEEEETEEAAEEEEEB=xSEEEEEEE",
"EEEEEEEEEEEAZEEEETEEEEElhEEEEEEEEYBEEEEEEEBbEAAEEEEEET7cDEEEEEEE",
"EEEEEEEEEEEEEEEEEEEEEEEhlEEEEEEEERGBEEEEEEWnYDAAEEEEEEEEREEEEEEE",
"EEEAAEEEEEEEEEEEEEEEEEY2kEEEEEEEERNtEEEEEEKJCSZEEEEEEEEEEEEEEEEE",
"EEZasEEEEEEEEEEEEEEEEEEZAEEEEEEEEEYZEEEEEEEgFAAEEEEEEEEEEEEEEZEE",
"EEElEEEEEEEEEEElEREEEEEEEEEEEEEEEEEEEEEEEEExrEEEEEEE!TAEEEEEZvZE",
"EET.hAAEEEEEEQE@YBlAEEEEEEEEEEAEEEEEEEEEEEEEEEEEEEERUEZEEEEEZEEE",
"EEE35AEEEEEEEREHnrASEEEEEEEEEEEETEEEEEEEEEEREEEEEEEEBlZEEEEEEEEE",
"EEEZCEEEEEEEEEEYygSAEEEEEEEEEEEEEEEEEEEEEEEEEEEkAEEETEZEEEEEEEEE",
"EEEEAEEEEEEEZEZEEEEEEEEEEEEEElEEEEEEEEEEEEEEEEEcZEEEEEEEEEEEEEEE",
"EEEEEEEEEEEATTEEEEEEEEEEEEEETejBEEEETZEEEEEEEEEEEEEEEEEEEEEEEEEE",
"EEEEEEEYEEEEETTEEEEEEEEEEEEEZyg4EEEADvEREEEEEEEEEEEERTEEEEEEAEEE",
"EEEEEETNTzTEETEEREEEEEEEEEEETZTZEEETEZEEEEEEEEEEEEEEYFYTEEEZvZEE",
"EEEEEEEBfkTEETEEE!EEEEEEEEEEEEEEEEEEEEEEEEEEEEEEEEEERHhzEEETEEEE",
"EEEEEEEzrjzEEEEEEEEEEEEEEEEEEEREEEEEEEEEmYREjlEEEEEESjfgkEEEEEEE",
"EEEEEEEd7tgEEEEEEREEEEEEEEEEEEEEEEEEEEEEYbTh:ZDEEEEEDa6wkEEEEEEE",
"EEEEEEEEZEEEEEEEEhYEEEEEEEEEEEEEEEEEEEEETXrrjAVEEEEEEZZEEEEEEEEE",
"EEEEEEEEEEEEEEEEE4jBEEEEEEEEEETYEETBEEEET:q8gDEEEEEEEEEEEEEEEEEE",
"EEEEEEEEEEEEEEEEE0x0TEEEEEEEERLNEEB:kREEEx7ZZEEEEEEEEEEEEEEEEERE",
"EEEEEE!!EEEEEEEEEZTTEEEERNYETWLETTB-gERQEEZEEEEATEEEEEREEEEEEEEE",
"EEZZEEEEEEEEEEEEEEEEEEEEETbYEO7ZhBhwaSEEEEEEEEETZEEEER!REEEEERRE",
"EETTTEEEEEEEEEEEEEEEEEEETTbbEo;yhTeTSSEEEEEEEEEEEEEEEEEEEEZZEERE",
"EEEEEEEEEEEEEEEEEEEEEEEEEEYyh:4:0w3DDZEEEEEEEEEEEEEEEEEEEZZEEEEE",
"EEEEEEEEEEEEEEEEEEEEEEEEEEYft,x:9tcDEREEEEEEEEEETEEEEEEEEEEEEEEE",
"EEEEEEEEEEEEEEEERREEEEEEEEEEETETEEEEEEEEEEEEEEEENBEEEEEEEEEEEEEE",
"EEEEEEEEEEEEEETEREEEEEEEEEEEEEEEEEEEEEEEEEEEEEEEYbTEEYYEEEEEEEEE",
"EEEERlYEEEEEEEZZEEEEQEEEEEEEEEEEEEEEEEEEEEEEhWAcYeNeZlhEEZEEEEEE",
"EEEEEHFEZEEEEEEZEEE!PTTEEEEEEEEEEEERREEEEEEEYbjjx>1gDBXjSAEEEEEE",
"ETEEEm1cSAEEEEEEEEE!!tTEEEEEEEEEEEEEETEEEEEECycj>#7vEB gSEEEEEEE",
"EEEEETxDZEEEEEEEEEASgjNTEEEEEEEEEEEEETEREEEEElAExxcEETyZEEEEQEEE",
"EEEEEEEEEEEEEEEEEEES8gyTEEEEEEEEEEEEERRREEEEEEEEEREEEEEEEEER!REE",
"EEEEEEEEEElTEEYEEEEEZEEEEEEEEEEEEEREEQQ!REEEEEEEEEEEEEEEEEEEEEEE",
"EEEAEEEERElBEg1ZAEEEEEEEEEEEETEEEEEEEEEEEEEEEEEEEEEEEEEEEEEEEEEE",
"EETTEEEEEERJhttVEEEEEEEEEEEENTEEEEEEEEEEEEEEEEEEEEEEEEVkZEEEEEEE",
"EEEEEEEEEEEe77xDEEEEEEREEEyjjEREEEEEEEEEhlREEEREEEEETZZAEEEEEEEE",
"EEEEEEEEEEZ:<8cEEEEEEEREEEztEEEEEEEEEEEEYFEERClEEZEEEEEEEEEEEEEE",
"EEEEEEEEEEEv0cAEEEEEEEEEEEEjEERREEEElTEERUBhTYyEZDEEEEEEEEEEEEEE",
"EEEEEEEEEEEEREEEEEEEZTZEEEEEEEQREEEElhljAtqrTl1gDEEEEEEEETEEEEEE",
"EEEEEEEEEEEEEEEEEEERZVSEEEEEEEREEEEETqkf*#*dSl-9SAEEEEEEYhAAAEEE",
"EEEBTEEEEEEEEEEEEEEEEEEEEEEEEEEEEEEEExcE058SEZ4pSAEEEEEEEgfESEEE",
"EEE7ZEEEEEEEEEEEEEEEEEEEEEEEEEEEEEEEEEREEEEEEEEEEEEEEEEEEx*pSAEE",
"EET:0EEEEEEEEEEEEEEEEEEEEEEEEEEEEEEEEEEEEEEEEEEEEREEEEEERj%iAEEE"
};
