/* XPM */
static char *pokeball[] = {
/* columns rows colors chars-per-pixel */
"64 64 256 2",
"   c #3D1E1B",
".  c #2B271C",
"X  c #2D321C",
"o  c #3C231D",
"O  c #38281B",
"+  c #38351B",
"@  c #252526",
"#  c #262826",
"$  c #272929",
"%  c #2C2624",
"&  c #2A252A",
"*  c #2C2C25",
"=  c #2B2B2B",
"-  c #262728",
";  c #2F2E31",
":  c #2D302D",
">  c #2C3321",
",  c #2E3233",
"<  c #312524",
"1  c #322925",
"2  c #332C2C",
"3  c #392A27",
"4  c #322F31",
"5  c #32332C",
"6  c #323A26",
"7  c #363924",
"8  c #333333",
"9  c #3B3A3A",
"0  c #393736",
"q  c #3B4A26",
"w  c #394727",
"e  c #394335",
"r  c #38502A",
"t  c #451E1F",
"y  c #46251C",
"u  c #413A1B",
"i  c #59261F",
"p  c #472721",
"a  c #473423",
"s  c #403E3D",
"d  c #582A23",
"f  c #563127",
"g  c #662D25",
"h  c #6C322B",
"j  c #62332B",
"k  c #6A3B31",
"l  c #772E29",
"z  c #75342A",
"x  c #793B33",
"c  c #424A2C",
"v  c #45443D",
"b  c #47582B",
"n  c #485B33",
"m  c #49642C",
"M  c #4C6633",
"N  c #52632D",
"B  c #506532",
"V  c #597736",
"C  c #56712E",
"Z  c #7A4137",
"A  c #617E38",
"S  c #424141",
"D  c #4B4949",
"F  c #504A4D",
"G  c #544F51",
"H  c #50504F",
"J  c #545454",
"K  c #5C5B5B",
"L  c #595756",
"P  c #635658",
"I  c #625E60",
"U  c #6C6B6B",
"Y  c #676566",
"T  c #716A6E",
"R  c #706E70",
"E  c #74726E",
"W  c #7D7B7C",
"Q  c #787577",
"!  c #5B8037",
"~  c #54933C",
"^  c #5CB43D",
"/  c #63843A",
"(  c #678C3B",
")  c #6E963D",
"_  c #6FAB3E",
"`  c #64B53D",
"'  c #76A53E",
"]  c #4D9759",
"[  c #568E46",
"{  c #569B57",
"}  c #55994F",
"|  c #5BAD45",
" . c #5EB242",
".. c #5BA451",
"X. c #6C9741",
"o. c #729C42",
"O. c #6BAF4D",
"+. c #65AB4B",
"@. c #63A555",
"#. c #69A854",
"$. c #6AB644",
"%. c #7DAC46",
"&. c #7EAD48",
"*. c #76A443",
"=. c #73AD53",
"-. c #79AC56",
";. c #73B54B",
":. c #74BB43",
">. c #7EB346",
",. c #7CB54D",
"<. c #7BBE45",
"1. c #7DB94B",
"2. c #73B645",
"3. c #7BB252",
"4. c #76B250",
"5. c #6FA160",
"6. c #7DC143",
"7. c #863C35",
"8. c #943D36",
"9. c #84392F",
"0. c #A93E34",
"q. c #B83B2E",
"w. c #B53D31",
"e. c #894539",
"r. c #96453C",
"t. c #A9443A",
"y. c #BE493A",
"u. c #B3503F",
"i. c #8E4B42",
"p. c #964C43",
"a. c #9A5447",
"s. c #857C7F",
"d. c #AC554B",
"f. c #AF5D52",
"g. c #BE4F44",
"h. c #BA5E54",
"j. c #B86455",
"k. c #C23E2D",
"l. c #C9402D",
"z. c #CB4433",
"x. c #C6503E",
"c. c #D34937",
"v. c #E44F3A",
"b. c #E6523B",
"n. c #EC5337",
"m. c #EC533B",
"M. c #EC593C",
"N. c #F24F38",
"B. c #F1513A",
"V. c #F15135",
"C. c #C95648",
"Z. c #C65A52",
"A. c #D95747",
"S. c #C76859",
"D. c #DA6B5C",
"F. c #DA715E",
"G. c #CB6C60",
"H. c #D86F62",
"J. c #DC7667",
"K. c #DE7F71",
"L. c #E95946",
"P. c #EC5F53",
"I. c #F05946",
"U. c #ED6A4C",
"Y. c #EE624B",
"T. c #EE6D55",
"R. c #EE6D59",
"E. c #E56A5A",
"W. c #E4725D",
"Q. c #EC7054",
"!. c #EC715B",
"~. c #F1654E",
"^. c #F26C55",
"/. c #F16B59",
"(. c #F36551",
"). c #F0715C",
"_. c #E86E61",
"`. c #E47363",
"'. c #E87565",
"]. c #E9776B",
"[. c #857D81",
"{. c #82B44A",
"}. c #81BD47",
"|. c #85BD4B",
" X c #88BE4C",
".X c #82B445",
"XX c #83B452",
"oX c #84B652",
"OX c #87C93A",
"+X c #93D13A",
"@X c #A3DA35",
"#X c #82C145",
"$X c #86C049",
"%X c #8DC547",
"&X c #8AC34A",
"*X c #91C944",
"=X c #90C745",
"-X c #E4917B",
";X c #E58779",
":X c #888586",
">X c #8F908F",
",X c #91898D",
"<X c #948E93",
"1X c #999597",
"2X c #93918B",
"3X c #9FA0A0",
"4X c #A39C9F",
"5X c #A49DA1",
"6X c #A4A3A4",
"7X c #ABA5A9",
"8X c #AAA8A8",
"9X c #B3AAAE",
"0X c #B5A9AE",
"qX c #B5A7B1",
"wX c #B6ABB2",
"eX c #B9ACB4",
"rX c #BDAFB8",
"tX c #B4B3B3",
"yX c #BAB1B6",
"uX c #BDB2B9",
"iX c #BBB9BA",
"pX c #BEC0BE",
"aX c #C2BCBE",
"sX c #C2B5BE",
"dX c #E99789",
"fX c #E79E91",
"gX c #E58C80",
"hX c #EBAB9F",
"jX c #EFAEA5",
"kX c #F1B3A7",
"lX c #F1BCB1",
"zX c #C4BAC1",
"xX c #F6C9BC",
"cX c #CAC5C8",
"vX c #C9C5C7",
"bX c #D1C9CD",
"nX c #D3CCD1",
"mX c #D6D5D6",
"MX c #DCD6DA",
"NX c #DBD6D9",
"BX c #E0DFDE",
"VX c #FAD5C9",
"CX c #F7DEDC",
"ZX c #FADCD6",
"AX c #E1DEE0",
"SX c #F6E3DD",
"DX c #F9E2DA",
"FX c #E5E2E3",
"GX c #ECEBEC",
"HX c #EBE3E5",
"JX c #F5E4E3",
"KX c #F1EDEE",
"LX c #F8E3E2",
"PX c #F2EFF1",
"IX c #F3F2F3",
"UX c #F9F6F8",
/* pixels */
"&X&X&XoX3.$.&X&X&X&X&X&X&X&X&X&X&X&X&X&X&X&X&X&X&X&X&X&X&X&X&X&X&X&X&X&X&X&X&X&X&X&X&X&X&X&X&X&X&X&X&X&X&X&X&X&X&X&X&X&X&X&X&X&X",
"&X&X&XXX#.O.#X&X&X&X&X&X&X&X&X&X&X&X&X&X&X&X&X&X&X&X&X&X&X&X&X&X&X&X&X&X&X&X&X&X&X&X&X&X&X&X&X&X&X&X&X&X&X&X&X&X&X&X&X&X&X&X&X&X",
"&X&X&X&XXX3.}.&X&X&X&X&X&X&X&X&X&X&X&X&X&X&X&X&X&X&X&X&X&X&X&X&X&X&X&X&X&X&X&X&X&X&X&X&X&X&X&X&X&X&X&X&X&X&X&X&X&X&X&X&X&X&X&X&X",
"&X&X&X&X&X&X&X&X&X&X&X&X&X&X&X&X&X&X&X&X&X&X&X&X&X&X&X&X&X&X&X&X:.#X&X&X&X&X&X&X&X&X&X&X&X&X&X$X&X&X&X=X=X&X&X&X&X&X&X&X&X&X&X&X",
"&X&X&X&X&X&X&X&X&X&X&X&X&X&X&X&X&X&X&X&X&X&X$X X&X&X&X&X&X&X&X&X$.:.,.&X&X&X&X&X&X&X|.&X&X&X$X$X&X&X&X&X&X&X&X&X&X&X&X&X&X&X&X&X",
"&X&X&X&X&X&X&X&X&X#X#X&X&X&X&X&X&X&X&X&X&X&X$X$X X$X&X&X&X&X&X&X$.;.+.|.&X&X&X&X&X|.$X&X&X$X$X$X&X&X&X&X&X&X&X$X&X&X&X&X&X&X&X&X",
"&X&X&X&X&X&X&X&X&X6.:.&X X&X&X&X&X&X&X&X&X&X$X$X$X&X&X&X&X&X&X&X#X1.3. X&X&X&X X|.$X&X&X&X&X&X&X&X&X&X&X&X&X6.$X&X&X&X&X&X&X&X&X",
"&X&X&X&X&X&X&X&X&X;.O.;.|.&X&X&X&X&X&X&X&X&X&X&X&X&X&X&X&X&X&X&X%X%X&X&X&X&X&X|.&X&X&X&X&X&X&X&X&X&X&X&X&X&X:.:.:.&X&X&X&X&X&X&X",
"&X&X&X&X&X&X&X&X&X4.=.#.3.&X&X&X&X&X&X&X&X&X&X&X#X|.&X&X&X X{.{.&.&.|.&X&X&X&X&X&X&X&X&X&X&X&X&X&X&X&X&X&X&X#X$.6.,. X&X&X&X&X&X",
"&X&X&X&X&X&X&X&X&X&X&X$X&X&X&X&X&X&X&X&X&X&X&X&X<.>.{.X.V n c X X X e M ! X.3.&X&X&X&X&X&X%X&X&X&X&X&X&X&X&X$X@.=.O.&X&X&X&X&X&X",
"&X&X&X&X&X&X&X&X&X&X&X&X&X&X&X&X&X&X&X&X&X%X&X%./ q X + p j k Z Z Z k f y + + b ( |.&X&X6.%X&X&X&X&X&X&X&X&X&X3.3.3.$X&X&X&X&X&X",
"&X&X&X&X&X&X&X&X&X|.&X&X&X&X&X&X&X&X&X&X&X%.V y y z a.j.G.H.W._.!.`.'.H.S.Z.r.h y + V *.6.&X&X&X&X%X&X&X&X&X&X&X&X%X&X&X&X&X&X&X",
"&X&X&X&X&X&X&X&X$X|.&X&X&X&X&X&X&X&X&X}./ q f i.S.`.).R.E.^.(.^.Q.Q.T.R.R.R._.`.j.7.p + ! {.&X&X&X&X&X&X&X&X&X&X&X&X&X&X&X&X&X&X",
"&X&X&X&X&X|.&X&X1.}.&X&X&X&X&X&X&X&X' b f e.G.W././././././././.^.T./.R././.R.!.R.W.S.Z y q X.#X&X&X&X&X&X&X&X&X&X&X&X&X&X&X&X&X",
"&X&X|.|.&X&X&X&X3.4.&X&X&X&X&X&X%X) u k j._.^.^.R.R././././././.^./.T./././.R.R.^.^._.J.d.d + V &X&X&X&X&X&X&X&X&X&X&X&X&X&X&X&X",
"&X&X&X|.&X&X&X&X4.-.&X&X&X&X&X&X/ + e.H._.^.(.^.!.R././././././.R././././.R./.R.T.Q.^./.R.Z.l O V &X&X&X&X&X&X&X&X&X&X&X&X&X&X&X",
"&X&X&X&X&X&X&X&X|.XX&X&X&X&X%XA + r.J.W.`.-X-X;X_././././././././.^././.^././.^.^.Q.Q./.^.P.C.z O V &X&X&X&X&X&X&X&X&X=X=X&X&X&X",
"&X&X&X&X&X&X&X&X&X&X$X6.&X&X( u a.J.`.dXxXVXVXxXgX_././././././.R./././././././.!.Q.Q.^./.(.I.A.l O A &X&X&X&X&X&X&X&X%X%X&X&X&X",
"&X&X&X&X&X&X&X&X&X&X&X#X+X' + e.`.Q.dXVXDXJXSXSXVXJ./././././././././././././.^.^././.^./.Y.m.M.x.g + X.%X*X&X$X&X&X&X&X&X&X&X&X",
"&X&X&X&X&X&X&X<.&X&X&X$X$.b Z F.Q.;XxXDXJXJXJXSXZXfXE.R././././././././././././././.^././.Y.n.n.b.t.i c .X@X*X6.$X&X&X&X&X&X&X&X",
"&X&X&X&X&X&X&X:.:.<.<.1.M f S.)./.gXZXSXDXSXSXDXZXdX/./././.^.R././.T././././././././././.Y.m.n.m.C.9.  C =X6.;. X&X&X&X&X&X&X&X",
"&X&X&X&X&X&X&X#X$.#X:.[ 7 a.`.^./.dXCXCXDXSXSXDXVX;X/././././././././././././././././././.Y.b.n.B.c.d.j u o.O.4.3.oX&X&X&X&X&X&X",
"&X&X&X&X&X&X&X|.#.&X|.b j H.Q.^./.gXVXJXSXSXSXZXjX]././././././././././././././././././.^.Y.b.n.B.L.q.8.y m } 4.oX&X&X&X&X&X&X&X",
"&X&X&X&X&X&X&X&X&X&Xo.u f.!.T.(.R.`.jXZXSXDXZXlXK._./././././././././.R././././././././.(.L.b.n.B.m.k.t.l O [ 3.&X&X&X&X&X&X&X&X",
"&X&X&X&X&X&X&X&X&X&XB g H.).T.T.R.R.`.hXkXkXfXJ.!././././././.^./.R././././././././././.(.m.n.n.B.v.z.w.8.p V &X&X&X&X&X&X&X&X&X",
"&X&X&X X$X&X&X&X&X3.+ r.]./.R.T././.T.E.W.W.D.W.T.^././././.R.T./././././././.T.T./.^.^.L.n.n.n.m.L.c.q.0.f c oX&X&X&X&X&X&X&X&X",
"&X&X|.-.-.&X&X&X&X' O j.R././././.R.R.T.^.R./.R.Q.Q././././.^./././././././.E.T.Q.!.^.(.m.m.m.m.B.b.c.q.0.x p *.&X&X&X&X&X X&X&X",
"&X&X&X<.$X&X&X&X&XV i D.!.!./././././.(.^.T.R.T.T.T.!.R.R././._./././././.T./.R.!.Q.(.L.b.m.m.m.B.L.c.q.w.8.t A &X&X&X&XXX-. X&X",
"&X&X&X` $.#X$X&X&Xb z /.T.E././.T././.T.Q.T.E.).T.T.T.T./././.R./././././.R.R.T.^.^.(.b.b.m.B.n.B.L.z.q.w.8.p B &X&X&X&X$X$X&X&X",
"&X&X&X+.X.&X&X&X}.q 7.(.U.T./././.R.R.!.`.F.S.j.j.S.H.!.R./.^.^././././././.U./.^.(.I.n.m.m.b.m.v.m.c.q.0.0.d n &X&X&X&X&X&X&X&X",
"&X&X&X}.$X&X&X&X X+ x A.L././././.E.!.H.p.g y p O i h a.G.`.T.^.^./././.R././.^.^.I.m.b.m.B.v.B.I.v.k.k.w.t.g N &X&X&X&X&X&X&X&X",
"&X&X&X&X&X&X&X&X XN y u.L.I.(.(.R.W.S.f o 2 8 4 5 5 = o j j.W.T.^.R./././.R.^.(.L.b.B.m.b.m.B.N.N.N.k.q.w.t.d B &X&X&X&X&X&X&X&X",
"&X&X&X&X&X&X&X&X Xb . d d.A.I.P./.S.d & , , $ - @ # = 4 2 y d.W.R.T.^././.^.U.Y.L.b.B.N.B.L.m.V.V.b.k.q.0.7.3 A &X&X&X&X&X&X&X&X",
"&X&X&X&X&X&X&X6.|.w < y t 7.C.P.E.x - , ; $ K >X1X:XD = , * o f.!.U.U.Q.^.U.M.B.m.n.m.m.B.N.V.V.m.c.q.t.7.p < ) &X&X&X&X&X&X&X&X",
"&X&X&X&X&X&X$X6.%.w = 8 3 o d 8.i.O ; ; S 7XnXcXmXGXFX>X, : 1 f D.Q.T.U.Y.M.B.V.n.n.m.m.v.n.m.m.A.C.8.z t < $ ! &X&X&X X-.&X&X&X",
"&X&X&X&X&X&X&X6.$.6 & , ; 4 ; ; & & , , 3XW I 5.U R vXUX1X$ : 1 i.F.~.I.m.B.n.m.n.m.M.M.m.L.A.C.p.g p 3 < = $ V &X&X&X&X&X X&X&X",
"&X&X&X&X&X&X&X$X+.q e 0 & ; ; , 8 4 & Q U >XFXIXGXtXK pXGXI $ 5 f C.b.B.L.L.n.L.A.A.x.y.t.8.l d     < & = & $ ! XX&X&X&X&X&X&X&X",
"&X&X&X&X&X&X&X-.@.M J 8XS & ; 8 8 4 2 U W GXIXIXPXIXtXY FX8X# : p e.t.t.r.r.8.9.z g i y o < < 2 & & & & & 4 5 ~ 3.&X&X&X&X&X&X&X",
"&X&X&X&X&X&X&X$X$X( 0 mXMX[.9 & : 8 9 K pXIXIXIXIXIXGXU iXtX8 5 = % O % % 1 % * * * 1 5 8 8 8 4 & & & & D T e %.&X&X&X&X&X&X&X&X",
"&X&X&X&X&X&X&X&X&X%.> 3XIXIXzXXX0 $ , D vXIXIXGXIXIXBXU 6X8X8 : 8 8 8 0 8 0 , , , 8 0 8 8 4 2 & @ & s R 5XT N &X&X&X&X&X&X&X&X&X",
"&X&X&X&X&X&X&X&X&X&Xb K BXIXIXIXW @ = 9 8XUXPXPXPXIXmXK tX1X# 8 8 8 8 8 , , 8 , 5 : 8 = * % = 9 L :X8XyX8Xv ( &X&X&X&X&X&X&X&X&X",
"&X&X&X&X&X&X=X*X&X&X( 5 8XFXIXUXiX$ $ 8 K BXIXIXPXIX8XL cXJ $ 8 = = - - $ $ $ = : 9 S J U Q ,X4XwXyXyXtX:Xc .X&X&X&X&X&X&X&X&X&X",
"&X&X$X$X&X&X&X&X&X&X.Xw Y pXFXIXGXI $ = , U vXGXGXtXH 8X1X$ , = S Q W W :X>X1X9XiXvXNXBXvXyXyX0XwXwXwX9XD C *X%X&X&X&X&X&X&X&X&X",
"&X$X$X$X$X&X&X&X%X&X&X( 0 1XaXFXIXaX8 % $ 8 H U U U 6X>X, , 8 $ 6XIXIXUXUXIXUXUXIXIXFXvXwXwX0XyXwXwXwX:X7 ' &X&X&X&X$X&X&X&X&X&X",
"&X&X&X&X&X&X&X&X&X&X&X{.b L 9XsXmXKX4X1 $ $ 0 H K U D $ , 8 @ Y FXIXPXPXPXIXIXPXIXNXiX9XtXwXeX0XwXyX7Xv m &X&X&X&X|.&X&X&X&X&X&X",
"&X&X&X&X&X&X&X&X&X&X&X&X) 7 s.eXeXcXFX4X9 $ = $ = = $ 8 , @ K NXIXIXPXPXIXPXPXHXbXyXwXwXwXeXeXeXwXwXI 6 %.&X&X&X&X&X&X&X&X&X&X&X",
"&X&X&X&X&X&X&X&X&X&X&X&X&XC 7 1XyXwXaXmXiXU 9 = = & @ & 0 :XAXPXIXPXIXPXIXAXnXzXwXwXwXwXwXeXeX0XyX[.1 ( &X&X&X&X&X&X&X&X&X&X&X&X",
"&X&X&X&X&X&X&X&X&X&X&X&X&X}.b s 4XsXwX9XaXbXyX1XQ R W 5XnXGXPXPXPXGXHXMXbXiXeXqXwXwXwXwXwXeXwXyX<X5 B $X&X#X#X&X&X&X&X&X&X&X&X&X",
"&X&X&X&X&X#X#X&X&X&X&X&X&X X*.q S 5XsX0X0X0XuXzXcXnXMXMXMXMXMXMXnXcXsXuXwXwXwXwXwXwXwXwXwXwXrX<X4 r $.$. X<.` &X&X X&X&X&X&X&X&X",
"&X&X&X&X&XOXOX&X X X&X&X&X&X&X%.q S 1XsXeXwXqXqXqXqXqXqXrXeXqXrXeXqXqXqXqXeXwXwXwXwXwXwXwXwX[.= e }  .;.|.6.` }.XX X&X&X&X&X&X&X",
"&X X&X&X&X<.| 4.XX X&X&X&X&X&X&X%.r 0 [.wXeXrXeXqXeXeXeXeXrXeXqXeXqXrXeXeXeXeXeXwXwXwXyX9XU 5 n { ] #.{.&X:.^ =.oX&X&X&X&X&X&X&X",
"&X&X&X&X&X#X1.|. X X&X&X&X&X&X&X&X.XB : P 1XeXeXqXeXeXeXrXqXqXrXeXeXqXqXeXeXqXqX9XwXrX<XD * V  X,.,.XX&X&X#X<.|.&X&X&X&X*X&X&X&X",
"&X&X&X&X&X&X&X&X&X&X&X&X&X&X&X&X&X&X&X/ w , T 4XsXeXrXqXeXrXqXeXeXqXeXqXeXeXrXqX9X2XL * q o.&X&X&X&X&X&X&X&X&X&X&X&X&X&X*X&X&X&X",
"&X&X&X&X&X&X&X&X&X&X6.#X&X&X6.&X&X&X&X&X.XC 6 0 P ,X5XeXrXuXuXeXeXsXsXsXrXrX5X[.J 5 w /  X&X&X&X&X&X&X&X&X&X&X&X&X&X&X&X&X&X&X&X",
"&X&X$X&X&X&X&X&X&X&X6.6.$X4.+.6.oX&X&X&X&X&X&.V 7 1 9 J U W :X<X<X<X[.s.Y F 5 5 b ) }.&X&X&X&X&X&X&X&X&X&X&X&X&X&X&X%X&X&X&X&X&X",
"&X&X X$X&X&X&X&X&X&X=XOX:.$.;.|. X&X&X&X&X&X&X&X X*.! m w 6 5 e e 9 7 2 q N ( %.|.&X&X&X&X&X&X&X&X&X&X&X&X&X3.|.|.&X&X&X&X&X&X&X",
"&X&X&X&X&X&X&X&X&X&X&X$...=.=.oX&X&X&X&X&X&X&X&X&X$X:.2.2..X%.{.&.&.{.{. X%X&X&X:.6.&X&X&X&X&X&X&X&X&X&X&X1. X&X&X&X&X&X&X&X&X&X",
"&X&X&X&X&X&X&X&X&X&X&X+.{ #.-.&X&X&X&X&X&X&X=X&X&X&X1.O.&X&X&X&X&X&X&X&X X X&X&X#XOX&X&X&X$X6.&X&X X&X&X&X&X&X&X&X&X&X&X&X&X&X&X",
"&X&X&X&X&X&X&X&X&X&X&XXX=.3.&X&X&X&X&X&X&X&X&X&X&X&X X}.&X&X&X=X&X&X&X&X<.<.&X&X&X@X&X$.6.#X$.&X|.|.&X&X&X&X&X&X&X&X&X&X&X&X&X&X",
"&X&X&X&X&X&X&X&X&X&X&X&X&X&X&X&X&X&X&X&X}.|. X&X&X&X&X&X&X&X*X=X&X&X&X&X<.:.<.:.}.O.$.$.$X<. .;.oX&X&X&X&X&X&X&X&X#X&X&X&X&X&X&X",
"&X&X&X&X&X&X&X&X&X&X&X&X&X&X&X&X&X&X&X&X$X|.3.&X&X&X&X&X&X&X&X&X&X&X&X&X&X$.,.;...] { 5.-.1.| 5.3.&X&X&X&X&X&X&X#X:. XoX X&X&X&X",
"&X&X&X<.$X&X&X&X&X&X&X&X&X&X&X&X&X&X&X&X&X&X&X&X&X&X&X&X&X&X&X&X&X&X&X&X&X=.{.&X4.#.@.XX&X}.$.-.oX&X&X&X&X&X&X&X&X2.2. XoX&X&X&X",
"&X&X&X+.$X$X%X&X&X&X&X&X&X&X&X&X&X&X&X&X&X&X&X&X&X&X&X&X&X&X&X&X&X&X&X&X&X&X&X&X&X&X&X&X&X&X&X&X&X&X&X&X&X&X&X&X&X=.{ 3.XX&X&X&X",
"&X&X&X| +.&X&X&X&X&X&X&X&X&X&X&X&X&X&X&X&X&X&X&X&X&X&X&X&X&X&X&X&X&X&X&X&X&X&X&X&X&X&X&X&X&X&X&X&X&X&X&X&X&X&X&X&X2.] -. X&X&X&X"
};
