/* XPM */
static char *wall[] = {
/* columns rows colors chars-per-pixel */
"64 64 36 1",
"  c #36332D",
". c #38352F",
"X c #393631",
"o c #3D3A35",
"O c #3F3C38",
"+ c #403D37",
"@ c #413E39",
"# c #44413D",
"$ c #48443F",
"% c #474440",
"& c #494642",
"* c #4D4A46",
"= c #4F4C48",
"- c #504C47",
"; c #514E4A",
": c #55524E",
"> c #58544F",
", c #575450",
"< c #585551",
"1 c #5D5A55",
"2 c #5F5C58",
"3 c #605C57",
"4 c #625E59",
"5 c #66625D",
"6 c #68645F",
"7 c #676460",
"8 c #696661",
"9 c #6E6A65",
"0 c #706C67",
"q c #726E69",
"w c #76716C",
"e c #78746F",
"r c #7A7671",
"t c #7E7974",
"y c #817C77",
"u c #827D78",
/* pixels */
"rr88tuuwwuutqqe67t<6rrr06rutrqtute0e94t9;teeq8qyutqruur0e050e;we",
"446wtr8116761,5qe7@7w1260rt04<6671<29qq%:r5268rrw6,5665>28qe,@e8",
",,,141,,,,,,,,,<6; 1q:<<<11<<<<,<<<<<22X&e2,:,221,,,,,><:,26$o08",
",,,:,<,,:,,<:=,,:&o&4,<:<<<<<<:<<,=;<<=O+11,:,,,,<,,,<,=;,,;#X:2",
":*#::;:;&&:;%O*;=$o@*;=$=,;;,*&=;*O$::%OO&;;%%:;;;:&*:=@@=:*#X$=",
"#oX###+XO##@X @#@O  o%o O%$@XX@$%X o%OO  X@@XO%##OX@#@O .#@#X  O",
";*#*;;;*o#;;*=**;&+&=;;$$;;;=OO;===*%,*O#==:*#=;:;$X*:===&==@@*;",
"rr0eq9t6+6uw6twqteqtrqtqqr8rq*;tr6er0teqetqre9r9qr,@et99y0ryqwtq",
"11144;81O1q1>3qrq0rq811116:48@*w4:19re8re011116<:9=@08,<5we9qeq5",
"<<<<,,6;X;9,,,,14<1<<<<<<<,41O+92,,:<2<2<<<,,<<,24$X58,:>,1221,,",
"<<<<<<;$ :r6:*%;<<<<<<<<<<<,&X#rq,=&*:<,<,<<<<<<,=+X6r1:&&:<<<,,",
"<:,;;,;$o5e1*OO;<;;;:<:<;=::&o;r4=#o*1;==,<:,,=;,*#@q9:&o#:,;;;,",
"@%=@+&##O:=*# X*=@@#&$@*%@&$$#&,*&o $=%+%$*O**O$$#%@<**+ +=*+##=",
"oooO+O+#XO@#+OO##+++@OOO@ooo@oX@##oo##@oOO@ooOOOo++oO@#OX@##O+O#",
"q15e0*9w649w849q909q9q6<qr:1r846w02809990099,8r4=eq45qq65908q8q8",
"25q6:#wqrr461,24<49q124q81@6ewt851<22119w511904*;rqtq45,144<8q9,",
"<<<=#O81<71<<<<<<<11<,<<;$O44,64,,1,,,,111,,,,%O=6<46,,<<,,,111,",
"<,<=Ooq4,<<<<<<<:,,,<<<,:& 49,,<<,,<<<,:,,1<,,=.=q<>,:,<<<,,,,,,",
":**,%oe7<,;:<:<,=%=<<,=&:*.6w,:;:<,,,:&&:<,;*=;O=t2:::,<<,;*&;1,",
"*Oo*$%6<;%$*,,=%oo%,:*%o&&+11:*$&:,;*+o@=,=%o#*@=6:;#$:,:=$oO*:;",
"OX.OoX@@@XXO##OOX O#OOo OOOO@+o.O@#+Oo o#++O oOOo@@+.O+@#+O .@#O",
"64;;46642666241=;6=;544<=16462666435:=4<&5551=,6553555534,*15%15",
"890euue66wwq420wwq%7e780wuur84qww619wqe:;t87q0tuyq59qe926qqw6#r9",
"<<<466<:,<,<<<<2q<.5q<<<1681,,<<,,,,186O*r1,,,683>:,<<>,,,69$Ow8",
"<<<<,,<<<<<<:;<<,&X;8,<<,,,<,<<<,,;,,,;O#71,,<,,<<,,,,,::,,:#X25",
",=%,,,,:==::*$=<;$o%;,;=;,,:,;=;,;#*,:%#o=::==:,,<;=;,;%%:,*%O&;",
"&Oo*%&$O#%&%o.$&%O o@&$X%*&%+@#&&+.O&%#X.O&%O+=&&$+#&&#Xo&&%O O#",
"%OXO#%Oo.+##OoO@#o.XO#OXO###OXO##+OO@#O..O#@Xo@##OoX##+OO+#+  O+",
"ew5000e6@1rq8e88r840qqr88q9wq**ww7wq6e048e0e05w9qw<+9r99e5qw66q9",
"66787:0<o6r5,8errwutq47770:68@=t9,5werqtte4666011q=#wq119wtwrtt8",
",,,<<<9,o;0:,,4651811,,,,<,65O#01,,2781841<,:,<<18&O55,,,674561,",
"<<<<<<,% ;r4,;*=,,,<,<<<<<<,*X+q9,;**,,,,<<<<<<,<;O 4w1:=*:,,<,,",
"<<<::<;$X4t4=##;<:;:,<<<:;,:&o=r8;%O*,,;:,,,<,;,,=+Oqe<&@$:,:::,",
"*-;&&=&&@11;%XX;:&&%--=;=$**&@-6==O &,*%%*;*;=#*=&%#6::# @:=$&&:",
" o@XXooOoo@@o X@@XooOXX@o Ooo@O++O  ++O ooo OO.OOXOX@@@X o@+.XX@",
"4-;74&24;;264:24444444,*47;;7,;<75,165444252*<7<&52;;551:5535345",
"97rq4&rrrr8q4289490r686qw0&6trr8q7178669w9579ww:;yerq092588590q4",
"<<2=&@917q1,<<,,<<64<<,2:&O26406,,,,,,,271,,11*O=9199><,,,,,164,",
"<<<=@o01:1<<<<<<<<:,<<<,;%X24,<<,,,1,,,,,<,1,,*o=0>><<<<,1,,,,,,",
"<;=<@Xr7,,:<<<<,;=;<<<;-,&.6r<<:,<,1,:==,<,,=;;X=r1>>,<<,,,;=:<<",
"=@@=&@q4:=%=,<;*@@&:<;$O*&O49,-&=,,:*#+#;,;=@%=#;q,:&*;,,;&@#=,:",
"@XX@@@*&%oo#&&##X @&%$o @$o%%&Oo@%&%#O o%&$+ O#+@&&#XO%&%#@ .#&%",
":=@$---====:;;=@$-$&;;=$@-;;;---;;;=##**#==;&@%==;;;=;;;;%@&=#*;",
"qq0qtur00rrr78q09r;4rq0q0rutq9rrt96qq8r4;tqqq9euue8wtrw69w8w0&wq",
"1<19qq2<<111,,18e1X6q<116qq4<,<31,,<6q9O;r2,14qw91><211,<49w=+e6",
"<<<<<<<<<<<<<,,,1= ,0<<,<<<<,,1,,,,,,1,o#q1,,,,,>><<,<,,,,,2#X66",
"<:;:<<<<;:,,=*;1;&O%,,:;;<1,<,;,1;*=,,&@+:,,;;,1,,,;;<:**,,=#O;,",
"=$@===**%%=*@o%**$XO%=*@*-***%%**%o#**%OX%=*##;=;*&&&=&OO*=&+X@*",
"oXX@#@o oO@OXXOO@X  X+o O@@OX.OO@X XOOo   oo X@O+X O++o .+Oo.  O",
"64;14471O;74241<6<=<747,,4464%#66164:61=:6461,4466:o16546:26;;44",
"eq0e94r2@4u01wrrtrtur9qq0r2q0%;tw10retrttt8eq0r58w;+er66rqtrrtu9",
"<<<<1;9<o<0<,,9086q72,,<,4;48@&q1::6q04q97<<<<1<,9*O75,,1qq69961",
"<<<<,<1*X-q2,;;,1,<,<<<<,1<<:oO06,:;;<<<,:<<<<<,1,#.29<,;;,<,,,,",
"<<<,<<;#X2t4;&@;<:,,<<<<,,<,&X*rq:*$*,<,,<<<<,,,,=Ooqr<=$&:,,,,1",
";::**;=*o47,&oO;,=*=::;:-&;;&@;q,=O.*,=*=;::;,&;:*$+q2;$.#,:&*=:",
"X@&oo#o@O%%%O X&%Xoo$oo&Oo@O@@@*%$  #&@Xoo$X$$Xo++#O*#$o o&#XOO$",
";@@--@*=@@-;;%*;======&o*=$$=$@&=;&&;;;*;;;&o&;=+=*+$;;*$=;;=;*;",
"w7qr0%rtwqqr840q8q0e8q89rr=6ueq9r020q99qq0906rt1;urq9ww66qq8qqw6",
"<29,*@q7qr2<,<11,199<<181;@408r6<<<<1<,702<<66;$;w7eq<1:,<1,4q8:",
",1,-@O8<,2,,1,,><<,<<<<<;$X44:21,<<<,<<,<<<<::&o;8,<2,<<,,,<,,,,",
",,;,@oq6,<<<,1,,,;:<<<,;:& 4q,,<<<<<,,;:,<<<::;X*r1::<<<<<<;::,<",
";%&;$@r4:==;,,,-%#*,<:*$;=o7q<;=;<<::*$&:<,=$&;+;r1:==:<<:=$#;<,",
"%oo%$@<;=@@&;-*#o.#*=*@ $&@;:=%@%=;*&@ +*;&$X+&@&,;*O%=;=&@Xo&;=",
"o XooXoooXXooooo. ooooX XooXooX XoOXOX XoooX XOoXXOX XoXoOO  XOO"
};
