/* XPM */
static char *down[] = {
/* columns rows colors chars-per-pixel */
"63 64 256 2",
"   c #050201",
".  c #090503",
"X  c #0D0A05",
"o  c #0E0C08",
"O  c #0F1008",
"+  c #120C06",
"@  c #130D09",
"#  c #190F09",
"$  c #100404",
"%  c #14140B",
"&  c #17180C",
"*  c #1A1107",
"=  c #1B140A",
"-  c #1A1B0D",
";  c #1A1913",
":  c #1C210E",
">  c #1E2510",
",  c #2A0B08",
"<  c #23190B",
"1  c #231D11",
"2  c #201E1B",
"3  c #30190D",
"4  c #28240E",
"5  c #232312",
"6  c #232B12",
"7  c #2B2613",
"8  c #2A3417",
"9  c #2B3819",
"0  c #33250F",
"q  c #352B15",
"w  c #392B15",
"e  c #373518",
"r  c #2B3722",
"t  c #394B1F",
"y  c #35451A",
"u  c #2F5227",
"i  c #3D4C22",
"p  c #3D5823",
"a  c #4A1612",
"s  c #4D3C1B",
"d  c #46371A",
"f  c #523D1C",
"g  c #6C2B1F",
"h  c #48591A",
"j  c #58411D",
"k  c #474822",
"l  c #435425",
"z  c #465D26",
"x  c #475A28",
"c  c #5B4D26",
"v  c #594622",
"b  c #5C522A",
"n  c #585427",
"m  c #4C632A",
"M  c #49712E",
"N  c #526B2D",
"B  c #5D6F32",
"V  c #54712D",
"C  c #54782C",
"Z  c #597532",
"A  c #5C7934",
"S  c #577634",
"D  c #477836",
"F  c #73491F",
"G  c #63441C",
"H  c #665629",
"J  c #7D5F26",
"K  c #725B2C",
"L  c #705E31",
"P  c #65522A",
"I  c #60612F",
"U  c #636734",
"Y  c #7D6026",
"T  c #74612C",
"R  c #796834",
"E  c #787338",
"W  c #666461",
"Q  c #4C933F",
"!  c #578E2F",
"~  c #5B993C",
"^  c #6A8E3A",
"/  c #658738",
"(  c #6C923B",
")  c #6D9B3C",
"_  c #729C3E",
"`  c #70963F",
"'  c #68A23D",
"]  c #68B93D",
"[  c #79AA3B",
"{  c #5C8044",
"}  c #579B58",
"|  c #5BA64C",
" . c #5DA354",
".. c #65964A",
"X. c #629F54",
"o. c #739E40",
"O. c #68AC4C",
"+. c #63A555",
"@. c #6AAA52",
"#. c #6BA459",
"$. c #64B541",
"%. c #6BB643",
"&. c #6CB547",
"*. c #76A341",
"=. c #79A642",
"-. c #79AA45",
";. c #77AB55",
":. c #72B746",
">. c #74BC44",
",. c #7EB245",
"<. c #7BB64D",
"1. c #7BBE45",
"2. c #7DBA4C",
"3. c #75B64B",
"4. c #7DB451",
"5. c #76A561",
"6. c #77C13D",
"7. c #7DC242",
"8. c #83211F",
"9. c #8E2723",
"0. c #A62926",
"q. c #BB2B29",
"w. c #A83025",
"e. c #805F25",
"r. c #884729",
"t. c #8C6A2F",
"y. c #876D31",
"u. c #8A7436",
"i. c #8D7A3B",
"p. c #867538",
"a. c #9C722F",
"s. c #927D3A",
"d. c #997534",
"f. c #A46F2D",
"g. c #A97D35",
"h. c #BE6E3C",
"j. c #BA7731",
"k. c #9F7B40",
"l. c #CC2D2B",
"z. c #D42D2C",
"x. c #DA2D2F",
"c. c #D9372D",
"v. c #D93E31",
"b. c #D7432E",
"n. c #DA4D33",
"m. c #CF6E24",
"M. c #CB6B3A",
"N. c #C87026",
"B. c #DC6C3C",
"V. c #DD6437",
"C. c #D57A25",
"Z. c #DB743A",
"A. c #C7743B",
"S. c #E06A38",
"D. c #E27339",
"F. c #9B843C",
"G. c #98833C",
"H. c #A8863A",
"J. c #AD913F",
"K. c #B2853A",
"L. c #BB933D",
"P. c #9A8743",
"I. c #80AF4F",
"U. c #82B546",
"Y. c #85B946",
"T. c #85BD4C",
"R. c #88BF4B",
"E. c #83B648",
"W. c #82B452",
"Q. c #84B950",
"!. c #89BE51",
"~. c #A48D43",
"^. c #AB9445",
"/. c #B19645",
"(. c #B29945",
"). c #B69E4A",
"_. c #B39F53",
"`. c #BCA24A",
"'. c #BFA245",
"]. c #BCAE7C",
"[. c #87C939",
"{. c #9BD33B",
"}. c #83C145",
"|. c #86C149",
" X c #8DC546",
".X c #8BC34A",
"XX c #8EC84B",
"oX c #92CA43",
"OX c #90C949",
"+X c #C4832F",
"@X c #C18E38",
"#X c #C5943A",
"$X c #DA8B2E",
"%X c #DB8C31",
"&X c #DD9533",
"*X c #D29937",
"=X c #D5A238",
"-X c #E1902F",
";X c #E59333",
":X c #E68B38",
">X c #EAAA38",
",X c #EFB236",
"<X c #EEB53B",
"1X c #EBB53D",
"2X c #F2AE3D",
"3X c #F0AE35",
"4X c #F1B137",
"5X c #F1B33A",
"6X c #F1B93E",
"7X c #C09942",
"8X c #C5AB4C",
"9X c #CAAA4A",
"0X c #CCAE51",
"qX c #CFB24E",
"wX c #CEB253",
"eX c #DBAD41",
"rX c #D7B64B",
"tX c #D6B955",
"yX c #EB9C41",
"uX c #E9AD45",
"iX c #EDB342",
"pX c #E8B847",
"aX c #E2BF56",
"sX c #F4AD40",
"dX c #F2BC43",
"fX c #F3B445",
"gX c #F2B952",
"hX c #DEC154",
"jX c #EAC34C",
"kX c #E5C453",
"lX c #EAC753",
"zX c #EDCA54",
"xX c #EDCD59",
"cX c #F3C245",
"vX c #F4C34B",
"bX c #F5CC4D",
"nX c #F9CF4F",
"mX c #F6CE52",
"MX c #F8CF53",
"NX c #F3CF59",
"BX c #F8D04F",
"VX c #F7D053",
"CX c #F7D359",
"ZX c #F9D254",
"AX c #FBD458",
"SX c #EBD173",
"DX c #888683",
"FX c #AEADAB",
"GX c #C7BB90",
"HX c #DDCF96",
"JX c #C1C1BC",
"KX c #F5DD88",
"LX c #F5E6A6",
"PX c #DCDCD9",
"IX c #F9F0C6",
"UX c #FFFFFD",
/* pixels */
".X.XR.Q.%.|..X.X.X.X.X.X.X.X.X.X.X.X.X.X.X.X.X.X.X.X.X.X.X.X.X.X.X.X.X.X.X.X.X.X.X.X.X.X.X.X.X|..X.X.X.X.X.X.X.X.X.X.X.X.X.X.X",
".X.XQ.5.+.1..X.X.X.X.X.X.X.X.X.X.X.X.X.X.X.X.X.X.X.X.X.X.X.X.X.X.X.X.X.X.X.X.X.X.X.X.X.X.X.X.X.X.X.X.X|..X.X.X.X.X.X.X.X.X.X.X",
".X.X.XQ.4.1..X.X.X.X.X.X.X.X.X.X.X.X.X.X.X.X.X.X.X.X.X.X.X.X.X.X|..X.X.X.X.X.X.X.X.X.X.X.X.X.X.X.X.X.X X.X.X.X.X.X.X.X.X.X.X.X",
".X.X.X.X.X.X.X.X.X.X.X.X.X.X.X.X.X.X.X.X.X.X.X.X.X.X.X.X.X.X.XT.>..X.X.X.X.X.X.X.X.X.X.X.X.X.X.X.X.X XoXOX.X.X.X.X.X.X.X.X.X.X",
".X.X.X.X.X.X.X.X.XXX.X.X.XXX.X.X.X.X.X.X.X.X|.|.|..X.X.X.X.X.X7.>.E.T..X.X|..X.X.X|..X.X|..XT..X.X.X.X X XXX.X.X.X.X.X|..X.X.X",
".X.X.X.X.X.X.X.X*.V V V V V V =..XR..X.X.XR.Q.T.T..X.X.X.X.X.XY.%.@.3.R..X.X.X.XT.T.|..X XT.T..XR.^ V V V V V V ` .X.X.X.X.X.X",
".X.X.X.X.X.X.X.XZ     .     . A XX.X.X.X.X.X|.|..X.X.X.X.X.X.X.X1.4.2..X.X.XT.|.T..X.X X|..X.X.X.X9 .   .       z  X.X.X.X.X.X",
".X.X.X.X.X.X.X.XZ     . . . . S ,.U..X.X.X.X.X.X.X.X.X.X.X.X.X.X.X.X.X.X.X.X|..X.X.X.X.X.X.X.X,.[ 8   .   . .   z .X.X.X.X.X.X",
".X.X.X.X.X.X|.XXA .   . . . . & ; N XX.X.X.X.X.X7..X.X|.1.R.R..X.X.X.X.X.X.X.X.X.X.X.X.X.X.XU.9 & o .     .     z T.R..X.X.X.X",
".X.X.X.X.X.X.XXXA   . .   o o X @ m !.T..X.X.XR.>.7.|.>.%.Q.R..X.X.X.X.X.X.X.X|..X.X.X.X.X.X-.5 X o o X .   .   u 3..X.X.X.X.X",
".X.X.X.X.X.X.X.XA . .   & P.`.).`.E 9 i U..X.X.XoX6.>.$.<.Q..X.X.X.X.X.X.X.X|.|.|..X|.7.o.r l ^.`.).`.H   . .   l |.R..X.X.X.X",
".X.X.X.X.X.X.XXXS . .   - wXAXCXAXi.  ; U..X.X.X{.6.@.} 4.R..X.X.X.X.X.X.X|.|..X.X.X}.7./   7 tXZXZXAXp.  . .   m .X.X.X.X.X.X",
".X.X.X.X|..X.X.XS . .   = wXZXZXCX(.b b Z Z o..XT. .X.#.R..X.X.X.X.X.X.X.X7.6..X.X}.! C Z b R lXmXVXVXp.. X .   m XX.X.X.X.X.X",
".X.X.X.X|..X.X|.V   . . = wXZXmXmXNXmXtX1 . x .X.X<.4.XX.X.X.XXX.X.X.X.X X X[.6.|.7.9   v xXmXmXmXmXBXi.. + . . z .X.X.X.X.X.X",
".X|.Q.|..X.X.XQ.A i 8 . = 0XbXbXmXVXVXtX1   m XXR.=.-.=.=.=.=.=.=.-.-.=.=.-.U.[ }.[.e   c mXVXmXBXbXBXG.. o 6 8 V .X.X.X.X.X.X",
".X.X|.|..X.X.X2.5..XA . = #X5XdXVXVXVXtX1   x .X[ > & ; & & & & & & & & - & * 8 O.| 9   b mXmXVXBXnXnXs.. & _ T..X.X.XR..X.X.X",
".X.X.X.X.XR..XR.Q..XA o 5 ^.=XpXZXVXBXtX5 . m .X_ % X X . . X . . . X . X X . 6 @.X.9 . T VXBXmXbXjXjXp.$ - *..X.X.X.XOX X.X.X",
".X.X.X.X.X.X.X.X.X.X&.o.^ 0 3 ^.VXVXBXlX/.H.k 9 k ~.(.(././.(.(.(.(./.(./././.P.k e u.H.8XZXVXmXzXH q x / ^ T.R..X.X.XOX X.X.X",
".X.X.X.X.X.X.X.X.X.X7.{.U.%   F.ZXBXBXBXdXpXd   4 tXAXZXCXCXAXAXAXAXAXAXAXAXAXtX= . K.fXdXCXVXBXzXd   x OXXX.X.X.X.X.X.X.X.X.X",
".X.X.X.X.X.X|.|..X|.|.7.) * . F.cXcX6XcXvXgXs.T i.lXZXVXZXZXVXVXVXVXVXVXVXVXCXkXp.R 9XdXdXcXcXcXjXd   l oX{..X7..X.X.X.X.X.X.X",
".X.X.X.X.X.X7.>.T.7.|.O.~ % . d.,X,X,X1XbXmXCXCXCXVXVXVXVXVXVXVXVXVXVXVXVXZXVXVXCXCXZXMX6X,X3X,X1Xd   l .X{.7.&.R.R.|..X.X.X.X",
".X.X.X.X.X.X.X%.>.>.O.} Q 8 5 u.#X*X,X6XmXmXVXZXVXVXZXVXVXVXVXVXVXVXVXVXVXVXVXVXZXMXZXMXcX<X>X#XL.k : N .XR.@.E.I.R..X.X.X.X.X",
".X.X.X.X.X.XR.@.2..X@.} +.,.,.i * s jXVXVXZXVXVXVXVXVXVXVXVXZXVXVXVXVXVXVXVXVXCXZXVXMXZXBXBXqX4 1 ( U.T..X%. .W.Q..X.X.X.X.X.X",
".X.X.X.X.X.X.X.X.X.X|.|.|..X.Xy   e lXVXVXVXVXVXVXVXVXVXVXVXVXVXVXVXVXVXVXVXZXVXVXVXmXMXmXVX9X= @ _ .X.X.X>.@.Q..X.X.X.X.X.X.X",
".X.X.X.X.X.X.X.X.XR..X.X.X.XR.y   e lXMXMXMXMXMXMXmXVXVXmXmXVXVXVXVXVXVXVXmXmXmXmXmXmXmXmXZX9X- % o..X.X.X.X.X.X.X.X.X.X.X.X.X",
".X.X|.|..X.X.X.X.X.X.X.X.X.XXXy   e kXnXNXNXNXCXNXmXNXVXmXmXMXmXVXVXVXmXMXZXVXVXNXxXVXVXVXZX9X* % =.XX.X.X.X.X.X.X.X.X.X.X.X.X",
".X|.4.;.T..X.X.X.X.X.X.XU.Z S b K u.mXmXSXP.GXIXGXc y.lXZXmXmXmXMXMXMXmXVXSXLXHXP b 8XmXmXVXrXR H Z N ^ .X.X.X.X.X.X.X.XT.T.R.",
".X.X|.|..X.X.X.X.X.X.X.X[ & . G.ZXMXMXlXL o i.UXFX. d lXMXVXmXmXMXMXMXMXVXKXUXPX2 . /.ZXmXmXVXVXkXq   h  X|..X.X.X.X.XR.;.W.R.",
".X.X>.$.T.|..X.X.X.X.X.X=.& . s.ZXVXMXqX< . W JXDXO e xXCXMXbXVXVXVXVXVXBXSXJXFX; o k.8XpXmXbXbXkXe   h {.E.|..X.X.X.X.X.X.X.X",
".X.X>.} <.|..X.X.X.X.X.X[ & . F.VXmXbX9X& . o % % . d xXVXmXmXCXVXVXVXVXZX(.% o . . o % d.dXvXnXkXq . y 6.T.R..X.X.X.X.X.X.X.X",
".X.X.XE..X.X.X.X.X.X.X.X*.& . s.ZXZXZX8X* . . . .   d xXVXVXVXxXlXlXZXVXVX^..   . . X $ d.fXdXbXkXq   t T.T.R..X.X.X.X.X.X.X.X",
".X.X.X.X.X.X.X.X.X.X.X.Xo.& . r.B.B.B.M.a.t.4 . . . b CXVXZXlXT q P.ZXVXZX^.X . . . L g.A.V.B.B.M.3   t .X.X.X.X.X.X.X.X.X.X.X",
".X.X.X.X.X.X.XR..X.X.XR.' % . 8.z.z.z.n.sXeXw . . . E CXVXVXlXe   E AXZXZX^.X . . . d.sXD.z.l.z.q.,   t .X.X.X.X.X.X.X.X.X.X.X",
".X.X.X.X.X.X|.|..X.X.X.X=.& . 8.z.z.z.b.V.B.g.i.u.s.qXVXVXmXmX~.i.8XVXBXZXrXs.i.i.i.h.S.n.x.z.l.q., . t |.|..X.X.X.X.XR.R..X.X",
".X.X.X.X.X.X7.7.T.T..X X[ #   8.z.z.z.z.z.c.gXZXZXCXZXZXVXZXZXZXCXAXZXZXZXZXCXAXVXCXB.z.z.l.l.z.q.,   t [.|.T..X.X.X.X2.W..X.X",
".X.X.X.X.X.X}.>.:.T.R..X-.9 6 g 0.0.z.z.z.v.gXZXVXVXjX'.(.(.(.(.(.(.(.(.(.9XZXVXmXNXB.x.x.z.l.0.9.0 > m oX6.>.Q..X.X.X|.T..X.X",
".X.X.X.X.X.X.X%.:.:.T.R..XU.U.k $ a z.x.x.v.gXZXZXZX8X- X + o X o $ + $ X c mXmXMXmXB.x.z.z.0., # A T.2.4.%.>.3.R..X.X.X.X.X.X",
".X.X.X.X.X.XQ.@.3.%.R..X.X.X.Xi   a c.x.c.n.gXZXmXVX8X4 * $ # + * + % + + b CXVXMXNXZ.v.c.c.w.+ X ^ .X|.4.+.@.&.T..X.X.X.X.X.X",
".X.X.X.X.X.X.XR.R..XR..X.X.XR.i   d :X:X;XuXbXmXVXZXzX`.).8X8X).`.`.).8X`.qXbXVXMXmXfX>X-X;Xj.* X ^  X.X.XR.R.R..X.X.X.X.X.X.X",
".X.X.X.X.X.X.X.X.X.X.X.X.X.X.Xt   s 1X,XcXbXVXVXVXVXVXAXZXZXMXZXZXVXCXZXZXZXMXVXmXMXbXcX4X3XL.* . ( .X X.X.X.X.X.X.X.X.X.X.X.X",
".X.X.X.X.X.X.X.X.X.X.X.XE.m l U u.J.cXcXvXbXBXVXVXVXVXVXVXvXvXbXvXbXbXmXmXMXMXmXMXMXbXbXcXcX=Xp.p.U l / .X.X.XR..X.X.X.X.X.X.X",
".X.X.X.X.X.XoX X.X.X.X.X*.*   F.AXMXmXmXVXmXVXVXVXmXVXVXBXpXiX1XiXiXiXdXmXMXmXmXmXmXmXbXmXmXZXAXxXk   i .X X X.X.X.X.X.X.X.X.X",
".X|.T.|..X.X.X.X.X.X.X.X=.& . P.ZXbXbXmXbXbXVXVXmXVXmXNXmXvXcXvXvXdXdXmXMXMXZXmXVXVXmXvXBXmXVXVXxXv   i .XoXoX.X.X.XR..X.X X.X",
".X|..XT..X.X.X.X.X.X.X.X=.% . F.VXbXbXvX,X1XbXVXmXmXmXmXmXVXmXZXMXMXNXmXmXmXmXVXVXVXdX5XcXmXVXBXzXk   i .X.X.X.X.X.XT..X.X.X.X",
".X.X.X.X.X.X.X.X.X.XE.=.( q 5 J.VXbXBX1X*X*XvXVXVXVXVXVXVXVXVXVXZXMXmXMXmXmXmXMXmXVX=X=XpXBXmXmXzXH 1 l -.-.|..X.XR..X|..X.X.X",
".X.X.X.X.X.X.X.X.X.X/ % 5 _.tXlXBXbXbX^.4 0 '.ZXVXVXVXVXVXVXVXVXMXMXMXMXMXmXmXMXVXzXc < T bXbXmXMXaXtXk.: 5 [ .X.X.X.X.XR.|..X",
".X.X.X.X.X.X.X.X.XXXA   & wXBXmXBXbXVXJ.. X `.VXVXVXVXVXVXVXVXVXmXNXMXMXMXmXmXmXVXzXd   c mXbXmXVXVXmXG.. O _ .X.X.X.X.X.X.X.X",
".X.X.X.X.X.X.X.X.X.XA   = 0XmXBXmX(.H c R p.tXZXVXVXmXVXVXVXVXVXMXmXMXMXMXmXMXmXMXbX~.y.R H R kXVXmXVXP.. O _ .X.X.X.X.X.X.X.X",
".X|..X.X}.[.R..X.X.XZ   = `.CXZXCXu.  1 aXZXVXZXVXVXmXmXVXVXVXmXMXNXMXmXmXZXmXVXmXBXnXBXs.  < tXZXBXZXF.. X ) .X|.|..X.X.X.X.X",
".XR..X.X X[.Y..XR..Xo.l k k.J.P.H.L d P kXmXmXZXmXmXVXmXmXmXZXmXMXmXmXMXmXmXMXmXmXmXbXbXL.j j s.F.F.F.E z p ' 2.Q..X.X.X.X.X.X",
".X.X.X.X}.] @.I.Q..X.X.X=.& . . . f uXpXMXZXmXVXVXZXZXmXmXmXMXmXMXMXmXmXmXmXmXVXmXmXbXbXdXuXL.< . . . p .X%.$.W..X.X.X.X.X.X.X",
".X.X.X.X.X1.4.T.R..X.X.X=.: O .   s uXdXbXmXVXmXmXbXVXmXMXmXmXmXmXmXmXmXmXmXmXmXmXmXbXcXdX<X#X* . X X l R.1.>.T..X.X.X.X.X.X.X",
".X.X.X.X.X.X.X.X.X.X.X.XY.' ( -   s uXdXmXmXmXmXmXmXbXMXmXmXMXmXmXmXmXmXVXmXmXmXBXbXbXcX5X5X#X# . M ( [ .X.X.X.X.X.X.X XXX.X.X",
".X|..X.X.X.X.X.X.X|.}..X.X.X,.6   k uXiXmXVXmXVXmXbXMXbXbXmXMXbXmXmXmXmXVXbXbXmXbXbXvXvXfXuX(.< O ( XX.X.X.X.X.X.X.X.X.X.X.X.X",
".X.XR. X.X.X.X.X.X|.7.|.|.O.:./ A n f P #X;X&X;X>X<XfX6X6XdX6XdX6XdX5X5X6X6X6X>X&X%X$X&Xf.f P ^ ( U.|..X.X.X.X.X.X.X.X.X.X.X.X",
".XR.T.|..X.X.X.X.X.X[.6.3.| ,.!.XXV   * N.C.C.C.$X3X3X3X4X4X4X4X4X4X4X4X4X4X4X>Xm.m.m.N.F   6 R. X X X.X.X|.4.T..X.X.X.X.X.X.X",
".X.X.X.X.X.X.X.X.X.X7.| @.+.4.S N n j F $X&X-X;X+Xe.J Y J J J t.Y Y J J J J J a.$X$X$X%Xf.G P N V -..X.XT.1.T..X.X.X.X.X.X.X.X",
".X.X.X.X.X.X.X.X.X.X&. . .#.-.>   G uX2X<X>X2X5Xg.X           .               s iX2X2X2XsXsX7X# . ^ .X.X.X.X.X.X.X.X.X.X.X.X.X",
".X|..X.X.X.X.X.X.X.XQ.;.;.Q.E.y 5 b L.#X@X@X@X@Xt.+ o 6 > > 6 6 > > 6 6 > &   w g.g.g.g.g.K.d.8 6 ) .X.X.X.X.X.X.X.X.X.X.X.X.X",
".X.X.X.X.X.X.X.X.X.X.X.X.X.X.XE.T.A = * # # # # + . 6 ,.Y.Y.Y.Y.Y.Y.Y.1.%.M . . X $ + X + $ 7 -.U..X.X.X.X.X.X.XT..X.X.X.X.X.X",
".X.X.X.X.X.X.X.X.X.X.X.X.X.X.X.X.X/ % o o o o $ X X 8 Y..X X.X.X.X.X.X.X1.D - & O % % ; & % r ;.W..X.X.X.X.X.X.X>.1.R.Q.R..X.X",
".X.X}.Y..X.X.X.X.X.X.X X.X.X.X.X.XU.( ( ( ( ( ( ^ ^ _ .X.X.X.X.X.X.X.X.X2.@.=.o.....X.o.=.) ..W.R..X.X.X.X.X.X.X|.O.T.T.T..X.X",
".X.X>.3..X.X.X.X.X.XXX|..X.X.X.X.X.XXX.X.X.XXX.X.X.X.X.X.X.X.X.X.X.X.X.X.X.X.X.X.XXX.X.X.XXX.X.X.X.X.X.X.X.X.X.X.X+.#.W.T..X.X",
".X.X>. .2..X.X.X.X.X|..X.X.X.X.X.X.X.X.X.X.X.X.X.X.X.X.X.X.X.X.X.X.X.X.X.X.X.X.X.X.X.X.X.X.X.X.X.X.X.X.X.X.X.X.X.X| } I.R..X.X"
};
