/* XPM */
static char *d6e5575bc2784801d20aa0931608a2a27onhGNrpByLbZ7W7[] = {
/* columns rows colors chars-per-pixel */
"64 64 248 2 ",
"   c #010000",
".  c #070707",
"X  c #090402",
"o  c #0B0904",
"O  c #0D0B0A",
"+  c #140A05",
"@  c #120D0A",
"#  c #0C1309",
"$  c #14130A",
"%  c #1A180D",
"&  c #161A14",
"*  c #1A1C12",
"=  c #25150E",
"-  c #241F13",
";  c #1F2F0E",
":  c #1E2713",
">  c #32250E",
",  c #262714",
"<  c #372B17",
"1  c #2B3617",
"2  c #39371D",
"3  c #1E1E26",
"4  c #272B22",
"5  c #373922",
"6  c #5A1716",
"7  c #582E1C",
"8  c #47381D",
"9  c #76211F",
"0  c #473B28",
"q  c #5A3B21",
"w  c #3A4826",
"e  c #385427",
"r  c #374733",
"t  c #30612E",
"y  c #40441F",
"u  c #474625",
"i  c #574928",
"p  c #4A562C",
"a  c #5A582B",
"s  c #68532A",
"d  c #635A2B",
"f  c #6B5B2B",
"g  c #7C5E26",
"h  c #795328",
"j  c #6D5730",
"k  c #695C34",
"l  c #456B21",
"z  c #4D6A2B",
"x  c #55642E",
"c  c #526D2C",
"v  c #4E7E2A",
"b  c #54712D",
"n  c #58792C",
"m  c #5A6A31",
"M  c #5B7833",
"N  c #7C6026",
"B  c #7D672E",
"V  c #686832",
"C  c #756532",
"Z  c #80261E",
"A  c #8B2522",
"S  c #AA2724",
"D  c #B32725",
"F  c #CF1C2C",
"G  c #D71C2A",
"H  c #CB292B",
"J  c #D4222B",
"K  c #DE262D",
"L  c #D42D2C",
"P  c #DB2C2D",
"I  c #D3322D",
"U  c #D53731",
"Y  c #E32E2C",
"T  c #955620",
"R  c #8B692B",
"E  c #9E752F",
"W  c #867639",
"Q  c #8D793A",
"!  c #987B38",
"~  c #B5782B",
"^  c #A77832",
"/  c #B87E38",
"(  c #CF5F1A",
")  c #DA5033",
"_  c #D26725",
"`  c #D97626",
"'  c #C06434",
"]  c #DB6A39",
"[  c #E17E26",
"{  c #E76A39",
"}  c #897746",
"|  c #728C1B",
" . c #598030",
".. c #648738",
"X. c #6C933C",
"o. c #6C983B",
"O. c #71973C",
"+. c #739B3C",
"@. c #58B63F",
"#. c #64B13C",
"$. c #76BD3F",
"%. c #74C539",
"&. c #4B8C51",
"*. c #4C9457",
"=. c #589956",
"-. c #6B9444",
";. c #629C54",
":. c #55A74B",
">. c #54A54E",
",. c #5CB245",
"<. c #6AA94E",
"1. c #77A745",
"2. c #67B745",
"3. c #6CBB43",
"4. c #77B647",
"5. c #74BA45",
"6. c #7BBE45",
"7. c #73B34C",
"8. c #7BB64D",
"9. c #7ABA49",
"0. c #65A456",
"q. c #6DAC53",
"w. c #78A656",
"e. c #73B152",
"r. c #7CB353",
"t. c #669766",
"y. c #69C24C",
"u. c #79C444",
"i. c #99863C",
"p. c #AA8638",
"a. c #A38C3B",
"s. c #B88934",
"d. c #AF943C",
"f. c #82BC37",
"g. c #DC8C2E",
"h. c #C48E3F",
"j. c #DC8A31",
"k. c #D49C3D",
"l. c #E3912F",
"z. c #E28B32",
"x. c #E49736",
"c. c #DBA53D",
"v. c #E9AA37",
"b. c #FCA938",
"n. c #EEB73A",
"m. c #EDB43C",
"M. c #F7B236",
"N. c #FFBB36",
"B. c #F1B63C",
"V. c #F1B93D",
"C. c #FFBC3B",
"Z. c #91D137",
"A. c #A6D83C",
"S. c #9FE03B",
"D. c #A6E33E",
"F. c #FFC73C",
"G. c #AE8D4A",
"H. c #AA9346",
"J. c #B49A49",
"K. c #81AB48",
"L. c #83B543",
"P. c #83BC46",
"I. c #89BC45",
"U. c #85B64B",
"Y. c #85BC4C",
"T. c #88BE4B",
"R. c #98A05E",
"E. c #82B353",
"W. c #84B851",
"Q. c #89BD51",
"!. c #BEA343",
"~. c #BDA44D",
"^. c #BBA452",
"/. c #CB9C42",
"(. c #EA9146",
"). c #C2A54B",
"_. c #C8A749",
"`. c #C5AA4C",
"'. c #D7A644",
"]. c #CAB44C",
"[. c #D6BA4B",
"{. c #C6AC52",
"}. c #CCAF51",
"|. c #CDB254",
" X c #D6BA54",
".X c #E9AA45",
"XX c #EDB544",
"oX c #F8B745",
"OX c #F2BE43",
"+X c #FCBC42",
"@X c #F0B54C",
"#X c #83C146",
"$X c #8DC547",
"%X c #85CA47",
"&X c #86C149",
"*X c #8BC34A",
"=X c #8CCC4A",
"-X c #91C746",
";X c #91CB4C",
":X c #88D147",
">X c #95D34B",
",X c #97D74A",
"<X c #8FC856",
"1X c #91CB54",
"2X c #98D554",
"3X c #99D852",
"4X c #9EE255",
"5X c #A2E555",
"6X c #81CD64",
"7X c #DEC159",
"8X c #E7C44E",
"9X c #F3C245",
"0X c #FEC242",
"qX c #F4C44B",
"wX c #F5CC4D",
"eX c #FCC849",
"rX c #F4D146",
"tX c #F5D14C",
"yX c #FED34C",
"uX c #FFD84D",
"iX c #E9C855",
"pX c #FFC250",
"aX c #F6CF52",
"sX c #FACE53",
"dX c #EED058",
"fX c #F6D053",
"gX c #FAD253",
"hX c #F6DC55",
"jX c #FFDC55",
"kX c #F4D35A",
"lX c #FFDC5C",
"zX c #FFE14E",
"xX c #FFE254",
"cX c #FBE454",
"vX c #FFE25B",
"bX c #FFEB5D",
"nX c #E4C860",
"mX c #FAD761",
"MX c #FFE364",
"NX c #FFED63",
"BX c #FFF267",
"VX c #838481",
"CX c #A1A2A4",
"ZX c #EEE0A3",
"AX c #D5D4D5",
"SX c #FEF6D2",
"DX c #D9DBE2",
"FX c white",
/* pixels */
"*X*XT.W.2.#X*X*X*X*X*X*X*X*X*X*X*X*X*X*X*X*X*X*X*X*X*X*X*X*X*X*X*X*X*X*X*X*X*X*X*X*X*X*X*X*X*X*X*X*X*X*X*X*X*X*X*X*X*X*X*X*X*X*X",
"*X*XT.t.0.5.*X*X*X*X*X*X*X*X*X*X*X*X*X*X*X*X*X*X*X*X*X*X*X*X*X*X*X*X*X*X*X*X*X*X*X*X*X*X*X*X*X*X*X*X*X*X*X*X*X*X*X*X*X*X*X*X*X*X",
"*X*X*XW.r.9.*X*X*X*X*X*X*X*X*X*X*X*X*X*X*X*X*X*X*X*X*X*X*X*X*X*X*X*X*X*X*X*X*X*X*X*X*X*X*X*X*X*X*X*X*X*X*X*X*X*X*X*X*X*X*X*X*X*X",
"*X*X*X*X*X*X*X*X*X*X*X*X*X*X*X*X*X*X*X*X*X*X*X*X*X*X*X*X*X*X*X*X3.P.*X*X*X*X*X*X*X*X*X*X*X*X*X*X*X*X*X$X-X$X*X*X*X*X*X*X*X*X*X*X",
"*X*X*X*X*X*X*X*X*X>X>X>X>X>X>X=X*X*X*X*X*X*X*XY.*X*X*X*X*X*X*X*X3.6.9.*X*X*X*X*X*X*XY.*X*X*X&X&X*X*X;X>X>X>X>X>X>X*X*X*X*X*X*X*X",
"*X*X*X*X*X*X*X*X1.b b b b b b X.=X*X*X*X*X*XY.Y.Y.*X*X*X*X*X*X*X3.4.:.Y.*X*X*X*X*XY.Y.*X$X*XY.&X*X&XM b b b b b b +.*X*X*X*X*X*X",
"*X*X*X*X*X*X*X=X..            w ,X*X*X*X*X*X&X&X*X*X*X*X*X*X*X*XP.U.r.T.*X*X*XY.Y.&X*X*X$X&X*X*X=X*XX             c >X*X*X*X*X*X",
"*X*X*X*X*X*X*X=XO.  X X X X   w 1XP.*X*X*X*X*X*X*X*X*X*X*X*X*X*X*X*X*X*X*X*X*X*X*X*X*X*X*X*X*X&XY.I.$ X X X X X   c >X*X*X*X*X*X",
"*X*X*X*X*X*X*X=XO.  X X X X X O @ , -X*X*X*X*X*X6.&X*X*XP.&XT.*X*X*X*X*X*X*X*X*X*X*X*X*X*X*X=XO.X O X X X X X X   z =X*X*X*X*X*X",
"*X*X*X*X*X*X*X=XO.  X X X         & 2X;X=X*X*X*X6.3.*X6.@.8.Y.*X*X*X*X*X*X*X*X*X*X*X*X*X*X=X3X+.          X X X   t u.*X*X*X*X*X",
"*X*X*X*X*X*X*X=XO.  X X   i. X{.|.^.1 : O.=X*X*X*XZ.$.3.2.E.*X*X*X*X*X*X*X*X*XY.&X*X*X#X%Xm * a |.{.{. Xu   X X   z ;X*X*X*X*X*X",
"*X*X*X*X*X*X*X;XX.  X X   ^.bXjXxX X    X.3X=X*X*XZ.,.;.q.T.*X*X*X*X*X*X*X*X#X*X*X*X*Xu.,Xu   8 NXjXjXNXd   X X   b >X*X*X*X*X*X",
"*X*X*X*X*X*X*X=X-.  X X   J.jXfXfX Xu i m n ..&X*X0.*.0.r.*X*X*X*X*X*X*X*X*Xu.#X*X*X$.v  .m 0 Q jXsXaXxXa   o X   b >X*X*X*X*X*X",
"*X*X*X*X&X*X*X%X..    X   J.jXaXfXsXjXBX0   @ $X*XT.e.;X=X*X*X*X*X*X*X*X*X*X$XZ.#X*X#.    i.BXjXaXaXwXxXd   O X   c >X*X*X*X*X*X",
"*X*XT.&X*X*X*X&X-.5 1     J.uXwXaXfXfXMXu   * ;X=XI.I.I.U.U.U.U.I.I.I.U.I.U.I.f.$.>XZ.O   i.jXaXaXaXaXjXf   @ , % ..=X*X*X*X*X*X",
"*X*X&X*X*X*X*XY.w.2XK.    s.C.V.aXaXfXMX0   * ;X>X1   X X X X X X X X X X X X   p y.&.    a.jXaXaXaXaXzXf   * 1X>X*X*X*X*X*X*X*X",
"*X*X*X*X*X*X*X*XE.=X+.    p.B.OXsXfXaXMX5   & 2X4X:                             e 6X=.    G.jXfXsXsXtXlXd   @ $X*X*X*X*X-X*X*X*X",
"*X*X*X*X*X*X*X*X*X*X4.o.U.,   C jXaXaXgX)./.f : , W {.~.~.~.~.~.~.~.~.~.~.~.~.{.W ; y G.p.8XfXfXsX8X> % x X.X.*X*X*X*X*X-X*X*X*X",
"*X*X*X*X*X*X*X*X*X*X&XS.D.*   d vXaXwXaXeXeXR     i.bXjXjXjXjXjXjXjXjXjXjXjXjXNXi.  X oX+XwXfXfXfXiXX    .5X*X*X*X*X*X*X*X*X*X*X",
"*X*X*X*X*X*X&X#X*X*X*Xu.%.-   f yXOXOX9X9XpXJ.k k `.gXfXfXfXfXfXfXfXfXfXfXfXfXjX`.k W qXOX9X9X9X9X8X@   M D.Z.#X#X*X*X*X*X*X*X*X",
"*X*X*X*X*X*X#X3.P.6.$X7.2.%   s C.v.v.v.qXfXjXxXvXjXfXfXfXfXfXfXfXfXfXfXfXfXfXfXjXMXjXfXaXn.v.v.M.m.X   M >XA.3.9.T.*X*X*X*X*X*X",
"*X*X*X*X*X*X*X2.5.6.,.*.:., . f .Xk.m.n.wXfXfXfXfXfXfXfXfXfXfXfXfXfXfXfXfXfXfXfXfXfXfXfXaXV.B.v.'._.* X ..;XU.<.W.E.T.*X*X*X*X*X",
"*X*X*X*X*X*X*Xq.8.$X7.*.;.P.;Xc   X [.jXfXfXfXfXfXfXfXfXfXfXfXfXfXfXfXfXfXfXfXfXfXfXfXfXfXaXjXa.  * *X=X&X&X,.=.W.Y.*X*X*X*X*X*X",
"*X*X*X*X*X*X*X*X*X*X*XY.Y.*X,Xc      XjXfXfXfXfXfXfXfXfXfXfXfXfXfXfXfXfXfXfXfXfXfXfXfXaXsXaXxXi.  & ;X*X*X*X2.q.Y.*X*X*X*X*X*X*X",
"*X*X*X*X*X*X*X*X*X*X*X*X*X*X>Xc      XjXaXfXfXfXfXfXfXfXfXaXfXfXfXaXfXfXfXfXfXfXfXfXfXfXaXfXxXa.  * =X*X*X*X*X*X*X*X*X*X*X*X*X*X",
"*X*X*XT.*X*X*X*X*X*X*X*X*X=X5Xb     |.jXaXgXjXtXtXjXlXgXaXaXaXaXaXaXaXfXfXaXkXtXgXjXjXaXfXfXxXi.  # 2X>X*X*X*X*X*X*X*X*X*X*X*X*X",
"*X*X8.w.Y.*X*X*X*X*X*X*X*X..b x s s 8XsXjX`.} SXSXk < ].fXaXaXaXaXaXaXaXfXtXZXSXR.< a fXaXaXjX).i V b c +.*X*X*X*X*X*X*X*XY.T.*X",
"*X*X#XP.*X*X*X*X*X*X*X*X=X$   s BXxXsXjXa.  3 FXFX3   ).jXaXaXaXaXaXaXfXfXrXSXFXCX  + lXyXaXfXjXbXiX    n ,XY.*X*X*X*X*X*Xw.U.Y.",
"*X*X6.@.P.Y.*X*X*X*X*X*X;X*   a vXfXfXxX5   4 AXAX,   `.jXfXaXaXaXaXfXfXfXyXZXDXVX  % |.[.sXwXaXgX XX   | D.U.&X*X*X*X*X*XY.*X*X",
"*X*X9.&.8.*X*X*X*X*X*X*X;X*   a xXfXfXlX<   X         `.jXfXfXaXaXfXaXfXfXjX8     X .     '.OXqXuX X    l :XY.*X*X*X*X*X*X*X*X*X",
"*X*X&XU.Y.*X*X*X*X*X*X*X;X*   d NXhXcXxX%     X X X   `.jXfXfXjXlXkXsXfXfXbXu   X X o     '.+XwXcX7X    z >XY.*X*X*X*X*X*X*X*X*X",
"*X*X*X*X*X*X*X*X*X*X*X*X*X*   7 { ] ] ] ^ p.8   X X    XjXfXjXJ.- - iXfXfXvXu   X X @ G.p.] ) ] { '     c >X*X*X*X*X*X*X*X*X*X*X",
"*X*X*X*X*X*X*X*X*X*X*X*X*X*   6 P G G J b.yXg       @ mXfXfXxXi.    nXfXfXmX2         @X0X) F J J S X   z >X*X*X*X*X*X*X*X*X*X*X",
"*X*X*X*X*X*X*X&X*X*X*X*X;X*   6 Y L L I ] ] / Q Q Q H.jXfXfXgX}.W i.fXfXfXgXJ.Q Q Q ! ] { ) L H P S X   z =X*X*X*X*X*X*XT.*X*X*X",
"*X*X*X*X*X*X6.6.P.U.*X*X;X$   6 Y P L L J F (.bXjXxXjXjXjXjXjXxXbXbXxXjXjXjXjXxXxXxXmXI J L L H Y D     z Z.#X#X*X*X*X*XE.U.*X*X",
"*X*X*X*X*X*X#X6.5.Y.T.*X$X1 # 6 D S L L L J (.hXfXaXgX`.!.).~.~.~.!.~.).).J.iXfXaXfXfXU L L L H D A $ o M D.u.5.T.*X*X*XY.Y.*X*X",
"*X*X*X*X*X*X*X3.3.5.Y.*X*X$X3Xn   X H P P G (.hXfXfXvX2                     H.jXaXfXaXU P L Y 9   o U.;XE.r.,.5.7.T.*X*X*X*X*X*X",
"*X*X*X*X*X*XT.0.7.2.U.*X*X*X>XM   X H K K G (.hXfXfXlX8                     H.jXfXfXaXU K J Y Z   o T.=XT.r.=.q.2.T.*X*X*X*X*X*X",
"*X*X*X*X*X*X*X*X*X*X*X*X*X*X>Xb   @ x.x.x..XqXfXfXfXgX[.{.|.}.|.|.}.}.}.}.`.iXfXfXfXfX.Xv.x.b.R   o P.*X*X*XT.*X*X*X*X*X*X*X*X*X",
"*X*X*X*X*X*X*X*X*X*X*X*X*X;X5Xb     v.M.9XwXwXfXfXfXfXgXjXjXjXjXjXjXjXjXjXjXfXaXaXaXaXwXOXv.N.R     *X3X=X*X*X*X*X*X*X*X*X*X*X*X",
"*X*X*X*X*X*X*X*X*X*X*X*X*Xx w a W i.9X9XqXwXwXfXfXfXfXfXfXaXqXqXqXqXqXwXaXaXaXaXaXaXaXwXqXOX0X_.C W x w o.=X*X*X*X*X*X*X*X*X*X*X",
"*X*X*X*X*X*X-X$X*X*X*X*X;X$   f NXjXaXaXfXaXfXfXfXfXaXaXfXqXm.m.XXXXXXXXaXfXaXaXaXaXaXaXaXfXfXjXxXMXo   c >X$X*X*X*X*X*X*X*X*X*X",
"*X&XY.&X*X*X*X*X*X*X*X*X;X*   f vXaXaXaXwXwXaXfXfXfXaXaXfXwXqXqXqXqXqXqXaXaXaXfXaXaXaXwXwXaXsXaXfXkX$   c >X-X-X*X*X*X*X*X*X*X*X",
"*X*X*XY.*X*X*X*X*X*X*X=X>X&   s jXaXwXwXB.B.9XfXfXfXaXfXfXfXfXfXfXaXfXaXaXaXaXfXaXfXwXB.B.wXfXaXfXkXO   z 3X*X*X*X*X*XY.*X*X$X*X",
"*X*X*X*X*X*X*X*X*X*X&XL.U.,   k jXaXwXwXv.v.OXhXfXfXfXfXfXfXfXfXaXsXaXaXaXaXaXaXaXfXfXc.v.qXaXaXfXdX- X x =XL.*X*X&X*X*X*X*X*X*X",
"*X*X*X*X*X*X*X*X*X=Xo.    H.mXiXaXwXwXiX=   C lXfXfXfXfXfXfXfXfXaXaXaXfXaXaXaXaXaXgX[.+   a.uXwXfXsXiXmXC   @ I.*X*X*X*X*X*X*X*X",
"*X*X*X*X*X*X*X*X*X=X+.    ^.xXsXwXwXjXkX    i lXfXfXfXfXfXfXfXfXfXaXaXaXaXaXaXaXaXgX X    a.bXjXaXfXfXcXC   o *X*X*X*X*X*X*X*X*X",
"*X*X*X*X*X*X*X*X*X=X1.    J.jXaXaX[.i i f W J.jXfXfXfXfXfXfXfXfXaXaXaXaXsXsXaXaXaXsXiXW W C i W jXaXaXxXC   O *X*X*X*X*X*X*X*X*X",
"*X*X*X*X*Xu.*X*X*X=X+.    ~.cXjXxX|.    ~.NXjXfXfXfXfXfXfXfXfXfXaXaXaXaXaXaXaXaXfXsXtXuXbX0   < NXjXjXbXC   X Y.*XY.*X*X*X*X*X*X",
"*X*X*X*X$XZ.#X*XT.*X1.w 5 } d.d.J.Q < > ).jXfXaXfXfXfXaXaXfXfXfXaXaXaXaXaXaXaXaXfXaXaXwXuXB < i H.a.i.a.V u e #.W.Y.*X*X*X*X*X*X",
"*X*X*X*X&X#.>.E.E.*X*X>X2X$       X @X0XgXfXfXfXfXaXaXaXaXaXaXaXaXaXaXaXaXaXaXaXaXaXaXwXwX+XpXE         c 4X%.,.E.*X*X*X*X*X*X*X",
"*X*X*X*X&X6.r.Y.*X*X*X*X$X*       o XXXXwXaXaXaXaXaXaXaXaXaXaXaXaXaXaXaXaXaXaXaXaXaXwXwX9XB.C.E   X     b >X6.9.T.*X*X*X$X$X*X*X",
"*X*X*X*X*X*X*X*X*X*X*X*X*X1.U.1   o .XB.wXaXaXaXaXaXaXaXaXaXaXaXaXaXaXaXaXaXaXaXaXaXwXqX9XXX+XE   . X.O.4.*X*X*X*X*X*X*X$X$X*X*X",
"*X*X*X*X*X*X*X*X*X*X#X*X*X;X3X1   X @X+XyXfXfXfXfXaXaXaXaXaXaXaXaXaXaXaXaXaXaXaXfXfXtXwXeX+XeX^   X *X>X*X*X*X*X*X*X*X*X*X*X*X*X",
"*X*X&X*X*X*X*X*X*X&X3.#X*X<.3.X.M b 8 2 / x.x.x.x.m.B.B.n.V.V.V.V.V.V.V.V.V.V.V.v.j.j.g.z.h < V 1.O.&X*X*X*X*X*X*X*X*X*X*X*X*X*X",
"*X*XY.*X*X*X*X*X*X*XZ.%.9.:.4.<X5XY.    T [ ` ` ` M.N.N.N.N.N.N.C.C.N.N.C.C.C.F.g.( _ _ ` =   e 5X,X*X*X*X*XY.r.P.*X*X*X*X*X*X*X",
"*X*X*X*X*X*X*X*X*X*Xu.:.q.>.Q...z a q 8 ~ l.l.l.l.R g N g g g g N N N g g g g N / j.g.g.j.h 7 d c m I.*X*XY.U.T.*X*X*X*X*X*X*X*X",
"*X*X*X*X*X*X*X*X*X*X9.*.0.0.<X1   + pX0XC.C.C.C.+X%                             ! F.C.C.C.0XyX^     L.*X*X*X*X*X*X*X*X*X*X*X*X*X",
"*X*X*X*X*X*X*X*X*X*XT.e.q.U.>Xw o , /.c.k./.k.k.'.,   % * * * * * * * * & , +   j h.s.s.s.s.h.R # : I.*X*X*X*X*X*X*X*X*X*X*X*X*X",
"*X*X*X*X*X*X*X*X*X*X*X*X*X*X*X*X;XY.o                 o.2X;X,X;X;X;X;X;X=Xu.1                 e <X*X*X*X*X*X*X*X*X&X*X*X*X*X*X*X",
"*X*X*X*X*X*X*X*X*X*X*X*X*X*X*X*X=XP.                  ..>X*X*X*X*X*X*X*X$X2.4 X X       X X   r E.T.*X*X*X*X*X*X*X2.6.T.W.*X*X*X",
"*X*X#X#X*X*X*X*X*X*X*X*X*X*X*X*X*X&X-.+.+.O.O.O.O.O.X.L.*X*X*X*X*X*X*X*X*Xe.1.L.q.;.;.w.L.L.<.<.W.T.*X*X*X*X*X*X*X&X,.T.Y.T.*X*X",
"*X*X9.7.*X*X*X*X*X*X*X*X*X*X*X*X*X*X=X=X=X=X=X=X=X=X=X*X*X*X*X*X*X*X*X*X*X*X*X*X=X-X=X=X*X*X*X*X*X*X*X*X*X*X*X*X*X&X*.q.E.T.*X*X",
"*X*X9.*.8.*X*X*X*X*X*X*X*X*X*X*X*X*X*X*X*X*X*X*X*X*X*X*X*X*X*X*X*X*X*X*X*X*X*X*X*X*X*X*X*X*X*X*X*X*X*X*X*X*X*X*X*X*X:.*.E.*X*X*X"
};
