/* XPM */
static char *_a05f61d5c4d4cc9b6a46e7d47d2bdfa7n5v2hII3WpO9QO6[] = {
/* columns rows colors chars-per-pixel */
"64 64 240 2 ",
"   c #000000",
".  c #090602",
"X  c #0B0905",
"o  c #0C080A",
"O  c #140808",
"+  c #120C09",
"@  c #0D150A",
"#  c #16160A",
"$  c #14120C",
"%  c #1C1C0D",
"&  c #0F0C15",
"*  c #1A1915",
"=  c #24130C",
"-  c #211A0D",
";  c #301009",
":  c #251C14",
">  c #1C230D",
",  c #1D2315",
"<  c #2D230F",
"1  c #292516",
"2  c #232C15",
"3  c #222519",
"4  c #232919",
"5  c #2D2919",
"6  c #342916",
"7  c #2A3419",
"8  c #37371B",
"9  c #2A2F23",
"0  c #363924",
"q  c #711B07",
"w  c #452A1A",
"e  c #48371D",
"r  c #51391C",
"t  c #7C2D0D",
"y  c #6D2E16",
"u  c #763317",
"i  c #453B22",
"p  c #38441D",
"a  c #344125",
"s  c #3D5724",
"d  c #3E6220",
"f  c #5F461E",
"g  c #4A4527",
"h  c #574828",
"j  c #47562A",
"k  c #5A572A",
"l  c #465C34",
"z  c #674D23",
"x  c #685527",
"c  c #745827",
"v  c #695A30",
"b  c #4E6C2A",
"n  c #506C2A",
"m  c #587A2E",
"M  c #476535",
"N  c #556D31",
"B  c #576C35",
"V  c #5A7A33",
"C  c #76632D",
"Z  c #6F6333",
"A  c #746432",
"S  c #7C6A35",
"D  c #747678",
"F  c #833212",
"G  c #873510",
"H  c #893718",
"J  c #DF1F27",
"K  c #E01F33",
"L  c #DD2529",
"P  c #E22633",
"I  c #E22933",
"U  c #E33434",
"Y  c #934118",
"T  c #846527",
"R  c #91712F",
"E  c #927937",
"W  c #A17934",
"Q  c #D54730",
"!  c #E14B38",
"~  c #8A7D45",
"^  c #807F7E",
"/  c #5A832F",
"(  c #5C8133",
")  c #5D8932",
"_  c #668E33",
"`  c #668838",
"'  c #6A913A",
"]  c #739D3B",
"[  c #5AB73F",
"{  c #75A73D",
"}  c #7AAB3B",
"|  c #60B93B",
" . c #79C331",
".. c #3C8566",
"X. c #448B4F",
"o. c #4B9756",
"O. c #569857",
"+. c #6D9444",
"@. c #729945",
"#. c #6D9E56",
"$. c #4DAC45",
"%. c #56A84B",
"&. c #5AB344",
"*. c #57A852",
"=. c #78A543",
"-. c #7BAC43",
";. c #67B645",
":. c #6EBB42",
">. c #74BB44",
",. c #7CBE45",
"<. c #73B44B",
"1. c #76B748",
"2. c #7BB54D",
"3. c #7AB94A",
"4. c #68A755",
"5. c #79AB56",
"6. c #6CB050",
"7. c #74B252",
"8. c #7DB352",
"9. c #569C67",
"0. c #779D69",
"q. c #7DA360",
"w. c #6EC541",
"e. c #7AC643",
"r. c #9B843A",
"t. c #A68738",
"y. c #B58C37",
"u. c #AA923F",
"i. c #BA9336",
"p. c #82B33E",
"a. c #BCA43F",
"s. c #C88F3A",
"d. c #C5933B",
"f. c #C89638",
"g. c #D59A37",
"h. c #E49B39",
"j. c #DBA23A",
"k. c #EDAF2A",
"l. c #EDAD34",
"z. c #E7A53A",
"x. c #EDAD3B",
"c. c #F3AE39",
"v. c #EFB53B",
"b. c #FBB235",
"n. c #F3B33C",
"m. c #FCB63B",
"M. c #FEBC3D",
"N. c #8DCE39",
"B. c #9AD33D",
"V. c #A8DB3A",
"C. c #BBEC28",
"Z. c #FFC63B",
"A. c #9C8646",
"S. c #B18C44",
"D. c #A89243",
"F. c #B79C45",
"G. c #82AF48",
"H. c #86B745",
"J. c #82BD47",
"K. c #83B54B",
"L. c #85BC4C",
"P. c #89BE4C",
"I. c #80AC56",
"U. c #82B452",
"Y. c #84B951",
"T. c #89BB5B",
"R. c #BDA443",
"E. c #BCA44A",
"W. c #BDA752",
"Q. c #C89945",
"!. c #EA8A47",
"~. c #ED984A",
"^. c #C5A748",
"/. c #CCAE4C",
"(. c #D6A245",
"). c #D9A540",
"_. c #CDB14E",
"`. c #DAB74B",
"'. c #C7AD54",
"]. c #CDB154",
"[. c #D5B855",
"{. c #EBA549",
"}. c #E9B746",
"|. c #EEB64E",
" X c #F7B744",
".X c #F1BD43",
"XX c #FEBA42",
"oX c #C8B263",
"OX c #83C146",
"+X c #8DC547",
"@X c #86C149",
"#X c #8BC34A",
"$X c #87CC49",
"%X c #8CCC4A",
"&X c #91C547",
"*X c #92C944",
"=X c #92CD4C",
"-X c #97D746",
";X c #95D24B",
":X c #86CA53",
">X c #94CE51",
",X c #96D351",
"<X c #98D453",
"1X c #9BDA53",
"2X c #A1DD58",
"3X c #9FE255",
"4X c #A3E649",
"5X c #A1E356",
"6X c #DAC056",
"7X c #F4C445",
"8X c #FFC344",
"9X c #F3C54C",
"0X c #F5CB4D",
"qX c #FCCA48",
"wX c #F9D24B",
"eX c #FFD34D",
"rX c #EAC452",
"tX c #ECC850",
"yX c #F9C554",
"uX c #F6CF52",
"iX c #FACD53",
"pX c #F6D053",
"aX c #FBD353",
"sX c #F6DC53",
"dX c #FEDC54",
"fX c #FCD55A",
"gX c #FDDB5D",
"hX c #FFE254",
"jX c #FFE25D",
"kX c #FCE858",
"lX c #FFF05E",
"zX c #FFDD61",
"xX c #FFE362",
"cX c #FFED66",
"vX c #FFE56B",
"bX c #FFF164",
"nX c #FFFA65",
"mX c #F7E79F",
"MX c #F6EEC5",
"NX c white",
/* pixels */
"#X#XP.Y.;.OX#X#X#X#X#X#X#X#X#X#X#X#X#X#X#X#X#X#X#X#X#X#X#X#X#X#X#X#X#X#X#X#X#X#X#X#X%X%X%X%X%X%X#X#X#X#X#X#X$X$X#X#X#X#X#X#X#X#X",
"#X#XP.0.4.>.#X#X#X#X#X#X#X#X#X#X#X#X#X#X#X#X#X#X#X#X#X#X#X#X#X#X#X#X#X#X#X#X#X#X#X] ] ] ] ] ] ] { #X#X#X#X#X#X#X#X#X#X#X#X#X#X#X",
"#X#X#XY.8.3.#X#X#X#X#X#X#X#X#X#X#X#X#X#X#X#X#X#X#X#X#X#X#X#X#X#X#X#X#X#X#X#X#X#X;X>             7 ;X#X#X#X#X#X#X#X#X#X#X#X#X#X#X",
"#X#X#X#X#X#X#X#X#X#X#X#X#X#X#X#X#X#X#X#X#X#X#X#X#X#X#X=X,X,X>X=X>.J.#X#X#X#X#X=X1X7   . . . .   8 ,X#X+X*X+X#X#X#X#X#X#X#X#X#X#X",
"#X#X#X#X#X#X#X#X#X#X#X#X#X#X#X#X#X#X#X#X#X#X#XL.#X#XH.9 4 4 3 j w.,.3.#X#X$XH.9 5 + . . . . .   8 ,X#X#X#X#X#X#X#X#X#X#X#X#X#X#X",
"#X#X#X#X#X#X#X#X#XOX#X#X#X#X#X#X#X#X#X#X#X#XL.L.@X1XP.        4 w.1.%.L.%X-XP.      . . . . .   8 ;X#X#X#X#X#X#X#X#X#X#X#X#X#X#X",
"#X#X#X#X#X#X#X#X@X[ @XP.P.#X#X#X#X#X#X#X#X#X@X$X' a j z z 6   2 $XL.7.#X' m ` v x 6   X . . .   p ,X#X#X#X#X@X,.#X#X#X#X#X#X#X#X",
"#X#X#X#X#X#X#X#XL.O.<.;.#X#X#X#X#X#X#X#X#X#X#X;Xn   = yXeXz   2 ;X$X%X,X2   < cXnXS   . . . .   7 ,X#X#X#X#X@X:.>.J.#X#X#X#X#X#X",
"#X#X#X#X#X#X#X#XL.6.7.7.P.#X#X#X#X#X#X#X#X#X#X;Xb   :  X8Xz   2 ;X#XH.P.0 o h dXkXA   . . . 2 % j =X#X#X#X#X#X1.;.,.L.#X#X#X#X#X",
"#X#X#X#X#X#X#X#X#X#X#X#X#X#X#X#X#X#X#X#X#X#X#X;Xb   : n.8Xh   2 1XH.+   v vXpXpXjXA   . .   =.,X#X#X#X#X#X#X#X7.O.%.2.#X#X#X#X#X",
"#X#X#X#X#X#X#X#X#X#X#X#X#X#X#X#X#X#X#X$X*X>X>X2Xm   1 yXiXh   7 1X#X.   A kXpXuXjXA   . .   ] ;X#X#X$X$X#X#X#XL.L.L.P.#X#X#X#X#X",
"#X#X#X#X#X#X#X#XL.#X#X#X#X#X#X#X#X#X%X` # 4 5 7 > . @ e e # . O % $ ~ E.[.aXuXuXhXC   X .   ] %X#X#X*X$X#X#X#X#X#X#X#X#X#X#X#X#X",
"#X#X#X#X#X#X#X#XL.#X#X#X#X#X#X#X#X;X5XN                             '.lXpXuXpX0XhXC   .     ] =X#X#X#X#X#X#X#X#X#X#X#X#X#X#X#X#X",
"#X#X#X#X@X#X#XL.3.#X#X#X#X#X#X#XJ.N b k Z A A A A A A A A A A i     R.eX0X0X0X7XeXc   + d j =.,.#X#X#X#X#X#X#X#X#X#X#X#X#X#X#X#X",
"#X#XP.@X#X#X#XL.4.P.#X#X#X#X#X%XP.    6 cXjXhXhXhXhXjXhXhXhXbXt.    i.8X0X0X7Xl.Z.c   + N.-XOX[ #X#X#X#X#X#X#X#X#X#X#X#X#X#X#X#X",
"#X#X@X#X#X#X#XL.#.P.#X#X#X#XJ.K.-.: O r dXuXuXuXuXuXpXpXpXpXdXF.8 8 ^.qX0X9X7Xj.x.x   > o.<.&.;.#X#X#X#X#X#X#X#X#X#X#X#X#X#X#X#X",
"#X#X#X#X#X#X#X#XU.P.#X#X#X;X(     W.zXuXuXpXuXuXuXpXpXpXpXpXuXdXzXzXdXpX0X.X).O   M 7.J.4.2.>.8.#X#X#X#X#X#X#X#X#X#X#X#X*X#X#X#X",
"#X#X#X#X#X#X#X#X#X#X,.,.=X1X/     R.dXpXpXpXpXpXuXpXpXpXpXpXpXpXuXpXpXpX9Xn.(.    ( 5X;X#X#X#X#X#X#X#X#X#X#X#X#X#X#X#X#X*X#X#X#X",
"#X#X#X#X#X#X#X#X#X#X@XB.j , g F.D.rXpXpXpXpXpXpXpXpXpXpXpXpXpXpXpXuXuXuX9Xx.l.y.d.k 4 l =X#X#X#X#X#X#X#X#X+X#X#X#X#X#X#X#X#X#X#X",
"#X#X#X#X#X#X@XOX#X#X#Xe.@   i cXdXpXwXaXdXdXpXpXpXpXpXpXpXpXpXpXpXuXuXuX7Xk.l.b.Z.w   2 ,X#X#X#X#X#X#X#X#XB.B.@XOX#X#X#X#X#X#X#X",
"#X#X#X#X#X#XOX:.J.,.&X3.*   e zXpXfXmXoXr.E.fXpXpXpXpXpXpXpXpXpXpXuXuXuX0X7X7X7XiXe   8 ,X#X#X#X#X#X#X#X#X#XV.:.1.P.#X#X#X#X#X#X",
"#X#X#X#X#X#X#X;.>.,.&.9.*   8 jXwXMXNXD   8 jXpXpXpXpXpXpXpXpXpXpXpXuXpXuXpXuXuXxX0   7 1X%XP.I.#X#X#X#X#X#XL.4.Y.U.P.#X#X#X#X#X",
"#X#X#X#X#X#X#X6.2.&X<.9.:   6 gXeXMXNX^   i xXpXpXpXpXpXpXpXpXpXpXpXpXpXuXuXuXuXgXh X g K.-.@XP.#X#X#X#X#X@X&.O.Y.L.#X#X#X#X#X#X",
"#X#X#X#X#X#X#X#X#X#X$X>X3   5 zXdXh * $   8 xXpXpXpXpXpXpXpXpXpXpXpXpXpXpXpXuXpXpXpXzXW.    +.%X#X#X#X#X#X#X;.4.L.#X#X#X#X#X#X#X",
"#X#X#X#X#X#X#X#X#X$X+X>X%   - gXjXe   .   6 zXpXpXpXpXpXpXpXpXpXpXpXpXpXpXpXpXpXpXpXdX/.    +.%X#X#X#X#X#X#X#X#X#X#X#X#X#X#X#X#X",
"#X#X#XP.#X#X#X#X%X' $ @ S '.^.aXjXh   .   5 zXpXpXpXpXuXpXpXpXpXpXpXpXpXpXpXpXpXpXpXdX[.    +.%X#X#X#X#X#X#X#X#X#X#X#X#X#X#X#X#X",
"#X#X2.5.L.#X#X#X;X_     A.kXdXpXjXh       * xXhXsXsXfXpXpXpXpXpXpXpXpXpXpXpXpXpXpXpXdX[.    @.%X#X#X#X#X#X#X#X#X#X#X#X#X#XL.P.#X",
"#X#XOXL.#X#X#X#X;X_   . '.dXpXpXdXu.v S S R ~.!.!.!.~.pXpXpXpXpXpXpXpXpXpXpXpXpXpXuXdX[.    @.%X#X#X#X#X*X+XL.#X#X#X#X#X#X5.K.L.",
"#X#X,.[ J.L.#X#X;X_   6 cXdXaXpXpXdXjXkXlXyXL P I K Q aXpXpXpXpXpXpXpXpXpXpXuXuXuXuXdX6X    ] %X#X#X#X#XV.B.L.@X#X#X#X#X#XL.#X#X",
"#X#X3.X.2.#X#X#X;X_   - E.F./.dXpXpXpX9X~.!.U U U I ! aXpXpXpXpXpXpXuXpXpXuXuXuXuX0XqX`.    ] %X#X#X#X#XOXOXL.#X#X#X#X#X#X#X#X#X",
"#X#X@XL.L.#X#X#X;X_         h jXpXpXsX{.L I U U U I ! aXpXpXpXpXuXpXpXpXpXuXuXuXuXv.b.g..   ] @XL.#X#X#X@X@XL.#X#X#X#X#X#X#X#X#X",
"#X#X#X#X#X#X#X#X;X_   . o   h dXpXpXfX{.I U U U U I ! pXpXpXpXpXpXpXpXuXuXuXuXuXuX.Xn.(..   ' Y.8.+X=X=X=X=X=X=X=X=X#X#X#X#X#X#X",
"#X#X#X#X#X#X#X#X;X_     S.{.`.dXuXpXsX{.I U U U U U ! aXpXpXpXpXpXuXuXuXpXuXuXuXdXS O 0 K.} @X;X' # 3 , 3 3 4 4 4 , -.#X#X#X#X#X",
"#X#X#X#X#X#X#X@X=X`     (.Z.8XpXuXuXsX{.J P P I I P ! pXpXpXpXpXpXuXuXuXuXuXuXuXhXv   , ,X%X;X3XV                   } %XP.#X#X#X",
"#X#X#X#X#X#X,.,.@X@.s s h z W  X9XpXpX|.!.!.!.!.!.~.{.pXpXpXpXpXpXuXuXuXuXuXuX9XqXc   4 =X=XN j g A.r.E E E r.A     } %XU.L.#X#X",
"#X#X#X#X#X#X@X>.1.#X<X$X    w XXqXdXdXdXsXsXsXsXsXsXsXpXpXpXpXpXpXuXuXuXuXpXpX.XXXx   3 >X;X%   < cXhXdXeXeXhX/.    } $XL.L.#X#X",
"#X#X#X#X#X#X#X:.:.>.P.#X0 > k Q.E.'.W.`.aXuXuXpXpXpXpXpXpXpXpXpXuXuXuXuXuXrXrXz. Xz   1 e.$X5   5 gXpXuX0X7XeXF.    } %X#X#X#X#X",
"#X#X#X#X#X#XP.4.<.;.L.#X=X1X_         c XX.XuXpXpXpXpXpXuXpXpXpXuXuXuXfX(.t H H Y ;   3 *.:X5   5 gXpXuX0X7XqXF.    } %X#X#X#X#X",
"#X#X#X#X#X#X#X#X#X#X#X#X#X;X)   .     x XX.XiXpXpXuXpXpXpXpXpXpXuXuXuXfXf.q t t H ;   @ $X2X5   5 gX0XuX0XeXhX^.    } %X#X#X#X#X",
"#X#X#X#X#X#X#X#X#X#X#X#X#X;X)     T R f.qX.X X.X0XuXuXuXuXuXuXuXuXuXuXpX}.d.s.d.s.t.r.S s B %   5 zXuX0XdXE C x     } %X#X#X#X#X",
"#X#X#X#X#X#X#X#X#X#X#X#X#X;X)     g.Z.Z.qXm.c.x.9XuXpXpXpXpXpXpXuXuXuXuXpXdXdXhXhXhXlX/.    .   5 zXpXdXjX6         { %X#X#X#X#X",
"#X#X#X#X#X#X*X+X#X#X#X#X#X;X/     f.qXi.R y. X XuXpXuX0X0X0X0X0XuXuXuXuXuXuXuX}.`.}.9Xu.  . .   5 fXiX].[.g # > 3 9 -.#X#X#X#X#X",
"#X@XL.@X#X#X#X#X#X#X#X#X#X;X/     _.bXh   i xXuXpXuX0X7X7X.X}..XuXpXpXpXuXuXuXY F F F y   . .   : XXj.    m 4X-X=X;X#X#X#X#X#X#X",
"#X#X#XL.#X#X#X#X#X#X#X#X#X;X/     _.bXk   g jXpXpXpXpXrXrX.Xv..XpXpXpXpXpXpXrXG t F H y   . .   < m.g.    m 1X%X#X#X#XL.#X#X+X#X",
"#X#X#X#X#X#X#X#X#X#X#X#X#X;X/     /.bXk   g jXpXuXaX].+ X F.dX0XpXpXpXpXpXpXuX}.|.|.yXS.    E (.g.n.x.f.(.k # j =X@X#X#X#X#X#X#X",
"#X#X#X#X#X#X#X#X#X#X#X#X#X;X/     /.bXv   g jXpXuXdX_.    R.dXuXpXpXpXpXuXpXpXpXpXpXhXE.    Q.qXM.x.x.c.8Xe   8 ,X#X#X#X#X#X#X#X",
"#X#X#X#X#X#X#X#X#X#X#X#X#X;X/     /.bXv   g xXpXpXdX_.    R.dXpXpXpXpXpXpXpXpXpXuXuXdXa.    z T W x.x.x.XXr   p ,X#X#X#X#X#X#X#X",
"#X#X#X#X#X#X#X#X#X#X#X#X#X;Xm     /.lXx   i cXdXdXkX].    R.dXpXpXpXpXpXpXpXpXpXuXuXdXR.  .     #  Xn.m.8Xf   p ,X#X#X#X#X#X#X#X",
"#X#X#X#X#Xw.#X#X#X#X#X#X#X$XV     ^.dXT % x ]._.'._.D.6 < ^.dXpXpXpXpXpXpXpXpXuXuXuXdXE.  . = O w h.g.i.d.w   p ;XL.#X#X#X#X#X#X",
"#X#X#X#X+XB.OX#XP.#X#X#X#X;X(     f.b.M.dXF.        6 vXzXfXpXpXuXuXuXpXuXuXpXuXuXuXhX^.    u Y H H u .       p :XL.#X#X#X#X#X#X",
"#X#X#X#X@X| %.U.U.#X#X#X#X;X(     t.g.z.Z.y.  . .   8 zXpXpXpXpXpXuXuXuXuXpXuX0X9XtXpXF.    y H F F u & . .   0 T.#X#X#X#X#X#X#X",
"#X#X#X#X@X,.7.L.#X#X#X#X#X#XJ.{ =.&   T XXz.j.j.g.g.g.eXuXuXuXpXuXuXuXuXpXpXuX{.XXz   o . . X X X . $ G.p.-.{ 1.P.#X#X#X+X+X#X#X",
"#X#X#X#X#X#X#X#X#X#X#X#X#X#X#X%X#X.   c XXm.M.M.M.m.M.uXuXuXuXuXuXuXuXuXuXuXeXM.qXz                 . #X%X#X#X$X#X#X#X#X+X+X#X#X",
"#X#X#X#X#X#X#X#X#X#XOX#X#X#XL.#X$X` ( k w h z x x z c .X.X.X.X.X.X.X.X.X.X.X}.c c <   2 ` ( ( ( ( V ` @X#X#X#X#X#X#X#X#X#X#X#X#X",
"#X#X@X#X#X#X#X#X#X@X:.OX#X6.;.P.P.%X5XN             . l.l.l.l.l.b.b.b.b.b.M.z.        7 5X;X;X;X;X;X%X#X#X#X#X#X#X#X#X#X#X#X#X#X",
"#X#XL.#X#X#X#X#X#X#XN. .3.%.1.Y.#X#X;XN   o 8 6 6 5 g v.n.n.n.z.i.f.f.f.d.f.y.7 2 8 4 j =X#X#X#X#X#X#X#X#X#XL.8.L.#X#X#X#X#X#X#X",
"#X#X#X#X#X#X#X#X#X#Xe.$.6.*.8.L.#X#X;XN   1 xXdXjXjXgXdX0XuXhXr.            X =Xe.e.;X=X#X#X#X#X#X#X#X#X#XL.J.P.#X#X#X#X#X#X#X#X",
"#X#X#X#X#X#X#X#X#X#X3.o.4.4.U.#X#X#X;XV   - pXfXfXfXgXgXgXfXxXA.  . . . .   $ @X#XN.+X#X#X#X,.#X#XP.#X#X#X#X#X#X#X#X#X#X#X#X#X#X",
"#X#X#X#X#X#X#X#X#X#XP.7.6.L.#X#X#X#X#XL.K.+.- - * % % - - % # j K.G.G.K.{ -.G.#X#XC.*X;.,.@X&.#XP.L.#X#X#X#X#X#X#X#X#X#X#X#X#X#X",
"#X#X#X#X#X#X#X#X#X#X#X#X#X#X#X#X#X#X#X#X$X=.                  a 1X#X#X%XOX:.,.>.P.1.;.&.L.#X[ :.U.P.#X#X#X#X#X#X#X@X#X#X#X#X#X#X",
"#X#X#X#X#X#X#X#X#X#X#X#X#X#X#X#X#X#X#X#XL.2.l b n n n n b n n ' $X#X#X#X#X&.2.1.*...o.7.q.L.$.o.5.L.#X#X#X#X#X#X#X;.,.P.Y.#X#X#X",
"#X#XOXOX#X#X#X#X#X#X#X#X#X#X#X#X#X#X#X#X#X#X=X;X;X;X;X;X;X;X;X%X#X#X#X#X#X6.L.#X7.4.4.5.#X@X:.7.U.P.#X#X#X#X#X#X#X@X&.P.L.P.#X#X",
"#X#X1.<.#X#X#X#X#X#X#X#X#X#X#X#X#X#X#X#X#X#X#X#X#X#X#X#X#X#X#X#X#X#X#X#X#X#X#X#X#X#X#X#X#X#X#X#X#X#X#X#X#X#X#X#X#X@XO.4.U.P.#X#X",
"#X#X3.o.2.#X#X#X#X#X#X#X#X#X#X#X#X#X#X#X#X#X#X#X#X#X#X#X#X#X#X#X#X#X#X#X#X#X#X#X#X#X#X#X#X#X#X#X#X#X#X#X#X#X#X#X#X#X%.O.U.#X#X#X"
};
