/* XPM */
static char *left[] = {
/* columns rows colors chars-per-pixel */
"64 64 256 2",
"   c #060301",
".  c #080602",
"X  c #0C0A04",
"o  c #181709",
"O  c #1A110D",
"+  c #1C230D",
"@  c #1C2611",
"#  c #231E0D",
"$  c #261609",
"%  c #241F12",
"&  c #341509",
"*  c #24230F",
"=  c #2B240F",
"-  c #2D2B13",
";  c #272911",
":  c #2B3415",
">  c #2D3D19",
",  c #283818",
"<  c #35210E",
"1  c #332B12",
"2  c #392B14",
"3  c #343315",
"4  c #343D19",
"5  c #3A3316",
"6  c #3B3D19",
"7  c #393717",
"8  c #3C382E",
"9  c #2D411B",
"0  c #33421B",
"q  c #364A1D",
"w  c #3C431C",
"e  c #3A4B1E",
"r  c #3E501F",
"t  c #3B4E20",
"y  c #324320",
"u  c #3C5220",
"i  c #431A0B",
"p  c #402D13",
"a  c #433416",
"s  c #443B1A",
"d  c #4A3A17",
"f  c #4A3B19",
"g  c #443717",
"h  c #50210E",
"j  c #562C12",
"k  c #543C1A",
"l  c #6D3514",
"z  c #46431D",
"x  c #454A1E",
"c  c #4C431D",
"v  c #4E491F",
"b  c #54431D",
"n  c #57491D",
"m  c #484A25",
"M  c #445D25",
"N  c #4C5424",
"B  c #475624",
"V  c #564A21",
"C  c #5B4E21",
"Z  c #544620",
"A  c #545424",
"S  c #585926",
"D  c #466226",
"F  c #4A6327",
"G  c #4F6429",
"H  c #4C6B2A",
"J  c #546B2B",
"K  c #58662B",
"L  c #54722D",
"P  c #5A712E",
"I  c #597A2F",
"U  c #57782E",
"Y  c #5B7430",
"T  c #5B7C31",
"R  c #567932",
"E  c #684A1E",
"W  c #79491C",
"Q  c #74521F",
"!  c #684E20",
"~  c #645324",
"^  c #645A25",
"/  c #6A5322",
"(  c #6B5A26",
")  c #6C5D29",
"_  c #635B29",
"`  c #745C25",
"'  c #715E29",
"]  c #7B5C24",
"[  c #715422",
"{  c #64642A",
"}  c #6B652D",
"|  c #607A2E",
" . c #637430",
".. c #73612A",
"X. c #7C6A2D",
"o. c #77642A",
"O. c #786C34",
"+. c #7C7532",
"@. c #67614E",
"#. c #6A6658",
"$. c #5D8233",
"%. c #588538",
"&. c #628434",
"*. c #648A36",
"=. c #698E3A",
"-. c #648C39",
";. c #669037",
":. c #649238",
">. c #6B953A",
",. c #6D993B",
"<. c #689539",
"1. c #729E3D",
"2. c #6CA03E",
"3. c #74A33E",
"4. c #79A93F",
"5. c #6DAD4B",
"6. c #6EAD51",
"7. c #6FB24B",
"8. c #75A541",
"9. c #75AB42",
"0. c #78A741",
"q. c #7BAC43",
"w. c #71AE4B",
"e. c #71AE51",
"r. c #76B545",
"t. c #74B44B",
"y. c #7DB344",
"u. c #7BB64B",
"i. c #7CBC46",
"p. c #7CB94A",
"a. c #75B848",
"s. c #77B250",
"d. c #814A1C",
"f. c #875C23",
"g. c #975C24",
"h. c #846326",
"j. c #836B2C",
"k. c #8C6C2A",
"l. c #8A6629",
"z. c #88722F",
"x. c #847331",
"c. c #8C7632",
"v. c #8D7935",
"b. c #89773C",
"n. c #966A28",
"m. c #9C7A2E",
"M. c #9A732B",
"N. c #937C34",
"B. c #9A7A32",
"V. c #9B6E33",
"C. c #A76627",
"Z. c #A6782E",
"A. c #A57C31",
"S. c #B5772E",
"D. c #B77C31",
"F. c #E13533",
"G. c #CE7D3E",
"H. c #DB653C",
"J. c #E34A37",
"K. c #E45539",
"L. c #E8703F",
"P. c #E6643D",
"I. c #E77641",
"U. c #958137",
"Y. c #9D8236",
"T. c #9D853A",
"R. c #9D883A",
"E. c #AD822D",
"W. c #A08638",
"Q. c #A48B3B",
"!. c #AC8936",
"~. c #AB8D3A",
"^. c #A78234",
"/. c #AC923D",
"(. c #A6903D",
"). c #B58B35",
"_. c #B88934",
"`. c #B2953D",
"'. c #BB9439",
"]. c #968E70",
"[. c #9C926E",
"{. c #82B644",
"}. c #81B648",
"|. c #83BB46",
" X c #84BD4A",
".X c #88BF49",
"XX c #88BF46",
"oX c #83B950",
"OX c #A99246",
"+X c #B49A42",
"@X c #BA9E42",
"#X c #B79945",
"$X c #A9975C",
"%X c #BDA144",
"&X c #84C146",
"*X c #87C149",
"=X c #8BC347",
"-X c #8AC349",
";X c #CA803F",
":X c #C49339",
">X c #C59D3D",
",X c #C99638",
"<X c #D19C3A",
"1X c #D39734",
"2X c #CAA33F",
"3X c #D5A237",
"4X c #D2A43D",
"5X c #DBA73B",
"6X c #E4AC3C",
"7X c #EEB43D",
"8X c #F5B83E",
"9X c #C59740",
"0X c #C4A444",
"qX c #C7A846",
"wX c #CCAB46",
"eX c #CDAE48",
"rX c #C8A745",
"tX c #CEB048",
"yX c #D3AC44",
"uX c #D6A943",
"iX c #D5B44A",
"pX c #DBB54A",
"aX c #DCBA4B",
"sX c #D9B246",
"dX c #DFBE50",
"fX c #C0A858",
"gX c #CBB66C",
"hX c #EA8B45",
"jX c #ED9748",
"kX c #EDA04A",
"lX c #EDAB4C",
"zX c #E2AF43",
"xX c #E3B544",
"cX c #E3BD4C",
"vX c #ECBD45",
"bX c #E8B747",
"nX c #F2BA4E",
"mX c #F1B74A",
"MX c #F5BD50",
"NX c #E5C14D",
"BX c #ECC34D",
"VX c #EEC84F",
"CX c #ECC650",
"ZX c #EEC951",
"AX c #ECCB5C",
"SX c #F3C54B",
"DX c #F6CA4E",
"FX c #F9CD4E",
"GX c #F4C146",
"HX c #F4C250",
"JX c #F6CE52",
"KX c #F8CE51",
"LX c #F7D053",
"PX c #F9D153",
"IX c #E8CD71",
"UX c #C4B683",
/* pixels */
"-X*XoXu.t.u.*X-X-X-X-X-X-X-X-X-X-X-X-X-X-X-X-X-X-X-X-X-X-X-X-X-X-X-X-X-X-X-X-X*X}.y.3.3.3.3.3.3.y.{.=X=X-X-X-X-X-X-X-X-X-X-X-X-X",
"-X*XoXoXu.u.*X*X-X-X-X-X-X-X-X-X-X-X-X-X-X-X-X-X-X-X-X-X*X*X*X-X-X-X-X-X-X-X=X.X4.,.$.I I I I &.1.y.XX=X-X-X-X-X-X-X-X-X-X-X-X-X",
"-X-X XoX X X*X-X-X-X-X-X-X-X-X-X-X-X-X-X-X-X-X-X-X*X-XoX X}.}. X*X*X-X*X=X=X-X}.<.L w : : : : q I 1.XX=X-X-X-X-X-X-X-X-X-X-X-X-X",
"-X-X-X X X X*X-X-X-X-X-X-X-X-X-X-X-X-X-X-X-X-X-X-X Xy.8.>.;.,.8.y.*X*X*X-X*X}.1.L q o X X X . * F >.XX=X-X-X-X-X-X-X-X-X-X-X-X-X",
"-X-X-X-X X-X-X-X&X-X-X-X-X-X-X-X-X-X-X-X-X-X X*X-Xu.>.L u t B L 2.r.}.oX-X}.1.J 0 + X .       + M >.XX=X=X=X=X-X-X-X-X-X-X-X-X-X",
"-X-X-X-X-X-X-X-Xi.i.*X*X-X-X-X-X-X-X-X-X-X*X*X}.q.>.| N 5 1 > u <.u.}.}.y.1.&.G 4 o X . .     + M =.{.=X=X=X=X&X&X-X-X-X-X-X-X-X",
"-X-X-X-X-X-X-X*Xi.a.p.*X*X-X-X-X-X-X-X-X-X-X-Xy.*.Y { ^ C f 3 t :.p. Xq.&.Y  .} ^ s o . . .   + M ;.{.=X=X=X=X&X&X&X-X-X-X-X-X-X",
"-X-X-X-X-X-X-X Xp.a.u.p.*X-X-X-X-X-X-X-X-X-X=X9.J N ( ] f.! 3 q ;.y.q.>.J K b.N.v.) = X X X o , J ,.{.=X=X=X&Xi.i.&X*X-X-X-X-X-X",
"-X-X-X-X-X-X-X X*Xu. X X X X-X-X-X-X-X-X-X-X-X8.D m ` k.M.o.7 q ;.8.*.P K X.(.%X`.X.- X . o , D *.9. X-X-X*X*Xp.a.a.p.*X*X-X-X-X",
"-X-X-X-X-X-X-X-X*X*X XoX X*X-X-X-X-XXXXX}.{.u.-.u 6 ! l.n.` 5 9 T >.P S X.U.qXiX%Xv.1 . . + r %.1.{.*X-X-X-Xp.u.t.t. X X*X-X-X-X",
"-X-X-X-X-X-X-X-X*X-X-X-X-X-X-X-X=X=X}.0.=.*.-.L > : k ! [ n - : D J S } R.qXNXNX0Xx.1 . . , $.4.{.=X-X-X-X-X*X X Xu.*X*X-X-X-X-X",
"-X-X-X-X-X-X-X-X*X*X-X-X-X-X-X-X=X{.0.=.Y G G B : - g k k d = + > m { b.0XNXFXBX2Xj.1 X X 9 $.4.XX=X-X-X-X-X-X-X*X X*X*X-X-X-X-X",
"-X-X-X-X-X-X X*X X*X-X-X-X-X-X.X}.0.=.Y N m m z 5 5 s f f s 1 * + 6 x.%XNXDXFXBX%Xj.1 o + q %.4.XX-X-X-X-X-X-X-X-X*X*X-X-X-X-X-X",
"-X-X-X-X-X-X-X X XoX*X-X-X-X-X}.1.-.P S ( ( ( ) ' ' ' ' ..) S s * s R.iXVXLXFXaX'.X.: + 9 H 2.i..X-X-X-X-X-X-X-X-X-X=X-X-X-X-X-X",
"-X-X-X*X-X-X-X XoXoX*X-X-X*X.X0.&.J N ) W.0X0X0XqX0XqXrXwX0XOXj.b C Q.iXBXSXGX5X!.o.7 9 H :.2.a.*X-X-X-X-X-X-X-X-X-X-X-X-X-X-X-X",
"-X-X-X*X-X-X.X XoXoX*X=X=X|.3.-.Y S ) N.eXCXJXAXJXJXJXJXPXZXpX+Xc.c.'.cXBXGX5X).z.^ x D :.4.i.i.*X-X-X-X-X-X-X-X-X-X-X-X-X-X-X-X",
"-X-X-X*X-X-X-X X.X X*X&X=X4.T G S O.OXtXNXLXLXLXLXLXLXLXLXLXZXdXeXtXNXBXGX6X_.k._ S R :.5.u.}. X*X-X-X-X-X-X-X-X-X-X-X-X=X=X-X-X",
"-X-X-X-X-X-X-X-X*X&X&Xy.4.*.J S o.W.iXLXPXPXLXLXLXLXLXLXLXLXLXHXDXZXDXDXGX6X_.k.^ M %.<.r. X*XoX-X-X-X-X=X=X-X-X-X-X-X-X=X-X-X-X",
"-X-X-X-X=X*X-X*X*X&X|.3.U F { x./.eXNXPXPXPXPXLXLXLXLXLXLXLXLXLXLXLXFXDXGX6X,X!.j.^ S R 8. X-X-X-X-X-X-X=X=X=X=X-X-X-X-X-X-X-X-X",
"-X-X-X-X=X*X*X.X&X&Xr.%.r w } Q.iXAXAXAXdXdXCXLXLXLXLXLXLXLXLXLXLXLXLXDXSXvXzX>Xm...m M 8.-X-X-X-X-X-X-X=X=X=X&X=X-X-X-X-X-X-X-X",
"-X-X-X-X=X*X*Xi.i.i.w.%.> 3 O.#XIXIXIXgXOXOXaXLXLXLXLXLXLXLXLXLXLXJXKXJXDXSXSX6X!...w r ,.*X*X-X-X-X-X-X-X=X&X|.*X*X-X-X-X-X-X-X",
"-X-X-X-X-X*X|.i. Xp.w.%., 3 X.#XIXIXUX].O.+.eXZXLXLXLXLXLXLXLXJXLXLXDXKXDXDXFXNX'.c.Z u =.q.}. X-X-X-X-X-X*Xi.u.u.*X-X-X-X-X-X-X",
"-X-X-X-X-X*X*X X X}.e.%., : ..OXgXgX].#.m ) %XZXLXLXLXLXLXJXLXLXLXLXKXDXDXLXLXVXeX(.O.{ Y -.0.}..X-X-X-X-X*Xa.a.s.oX-X-X-X-X-X-X",
"-X-X-X-X-X*X X X}.u.e.R y 6 X.OXfX$X@.8 8 A %XZXLXLXLXLXLXLXLXLXLXLXLXLXLXLXPXLXcXqX(.+.S G =.q..X*X-X-X-X Xu.t.oX-X-X-X-X-X-X-X",
"-X-X-X*X-X-X-X.X}.9.;.L B S N.#X#Xb.8 O % ~ #XJXLXPXPXLXLXJXLXLXLXLXLXJXLXLXLXLXZXNXtXU.v q &.q.*X-X-X-X-X*X*X*XoX-X-X-X-X-X-X-X",
"-X*X*X*X*X-X-X.X{.>.H S } b.@XwX+Xj.- O % ~ #XHXHXJXHXLXLXLXLXLXLXLXLXLXLXLXLXLXPXLXdXQ.c > T 0..X-X-X-X-X-X-X-X-X-X-X-X*X-X-X-X",
"-X*X}.}..X*X=X|.4.$.e m v.qXNXcXqXN.c 1 f ' #XlXnXnXHXHXLXLXLXLXLXLXLXLXLXLXLXPXPXLXaXQ.c 4 I 0. X=X-X-X=X=X=X-X-X-X-X*X*X XoX X",
"-X*X}.}. X*X=X|.4.U 3 f R.aXZXCXpX`.x.' ] V.9XhXhXjXlXHXLXLXLXLXLXLXLXLXLXLXJXLXPXDXaXQ.c 4 I 4. X-X-X-X=X=X=X-X-X-X-X-X X X X X",
"-X*Xu.a.u.*X*X|.3.I 4 c U.wXNXCXCXaXeX0X9XG.H.K.J.I.hXlXHXLXLXLXLXLXLXLXLXLXDXPXKXDXpXQ.c 6 T 0. X-X-X=X=X=X=X=X-X-X-X-X*X*X-X*X",
"-X*Xu.a.u.*X*X|.4.I 0 5 ..Q.qXcXJXPXJXnXhXI.J.F.F.J.I.kXHXLXLXLXLXLXLXLXJXKXDXKXKXBXsX^.b y T 0.|.-X*X-X=X=X-X*X.X-X-X-X-X-X-X-X",
"-X*X*X*X*X*X-X X4.U : # 3 ~ R.tXCXPXHXjXI.K.F.F.F.J.I.jXHXLXLXLXLXLXLXLXKXKXLXJXSXbX4Xm.k y T 0.}. X X|.|.}.|.|.}. X-X-X-X-X-X-X",
"-X-X*X*X-X-X-X X3.U : o 1 ! Y.wXZXJXMXjXK.F.F.F.F.F.I.jXHXLXLXLXJXLXLXDXKXKXPXZXcXyX!.k.S S =.8.0.3.<.*.;.;.;.;.;.1.}. X-X-X-X-X",
"-X-X-X-X-X-X-X|.9.I , < ! B.9XcXHXKXnXhXK.F.F.F.F.J.I.kXDXLXLXJXJXLXLXJXDXKXPXCXeX~.` ^ Y =.8.8.%.H u t e e x e e H ,.{.XX=X=X-X",
"-X-X-X-X-X-X-Xi.0.&.e s ` A.>XxXKXKXMXkXI.K.K.K.J.P.hXlXBXLXLXLXJXJXLXJXPXPXPXNX0Xv.Z m *.0.8.=.P N m z x x z 3 - e *.4.XX=X-X-X",
"-X-X-X-X-X-X*Xi.q.,.R M C ` ^.uXCXKXKXnXkXhXhXhXhXjXlXnXDXLXLXLXJXJXJXLXDXKXPXvX'.j.f y *.1.T J { O.c.N.U.z.j.C 1 0 $.4.|.-X-X-X",
"-X-X-X-X-X-X*Xi.y.0.,.T S C j.~.rXpXpXcXlXmXlXnXmXnXMXJXJXLXLXJXDXLXJXDXVXBXbXuXD.] 2 q &.=.M m } N.@XwX2X2X/.j.5 > $.4.|.-X-X-X",
"-X-X-X-X=X*X Xa.r.r.r.1.| P } X.j.c.W.'.sXSXHXHXHXJXHXLXFXLXLXLXKXKXKXBXxXuX,XD.n.E < 0 %.%.y 6 ..Q.iXDXBXxX2XU.d > $.q.|.-X-X-X",
"-X-X-X-X-X*X Xi.i.i.|.y.1.*.K V Z Z ' Y.uXSXKXKXLXLXLXLXLXLXLXLXKXKXKXBXuX:XD.C.d.E 5 y %.R 4 5 ' /.NXPXFXNX4Xm.g > T q. X=X-X-X",
"-X-X-X-X-X*X*X*X*X&X&X|.|.3.G 4 1 p E Z.5XvXSXDXLXLXLXLXLXLXLXLXDXDXKXvX<X;XS.C.g.W V B U H , 3 ' /.NXLXBX5X`.o.5 > $.q.*X-X-X-X",
"-X-X-X-X-X-X-X*X*X*X-X=X=X3.F > = a ] E.<XvXvXSXDXLXLXLXLXJXJXLXJXLXKXBXuX,XD.S.Z.M.X.{ N t @ 1 ../.cXDXsX`.j.n 1 > &.q. X=X-X-X",
"-X-X-X-X-X-X-X-X-X-X-X-X-Xr.D 6 d Q E.1X3X5X7XvXSXFXLXLXDXDXDXDXJXJXJXJXCXcXsXuXuX9X~.x.z o X * ) (.aXdX`.z.v 3 ; q *.y.XX-X-X-X",
"-X-X*X-X-X-X-X-X-X-X-X-X-X9.F w n l.'.>X!.).5XvXDXDXLXZXSXSXSXDXDXJXJXJXJXJXnXpXuX,X_.l.2 X . * ( R.%X'.U.{ x q r J >.{..X*X-X-X",
"*X*X&X-X-X-X-X-X-X-X-X-X=X0.M w C h.Q.W.' j.rXVXLXDXVXBXNXvXvXGXJXJXJXJXKXHXuX:XS.C.C.W < X X = ` m.Y.c.( S | ;.<.3.y.&X-X-X-X-X",
"*X*X*X*X-X-X-X-X-X-X-X-X=X9.M w S j.T.v.V ~ %XZXPXVXtXrX2X4X7XBXJXJXJXJXKXHXuX:XS.C.g.W < O = k k.A.A.k./ S | 3.{.=X=X-X-X-X-X-X",
"-X-X*X-X-X-X-X-X-X-X-X-X=X3.D 6 C X.T.c.Z ~ @XZXPXdX/.v.c.!.pXFXJXJXJXLXLXVXcXpXuX:X_.l.2 < ! M._.1X1X).k.( S T q.-X-X-X-X-X-X-X",
"-X-X-X-X-X-X-X-X-X-X-X-X-X3.D m C O.T.c.b / %XLXPXaXU.) ) c.iXPXKXJXJXJXPXJXJXCXnXpXrXN.p 1 [ A.,X<X6X<XA.o.x M 1.-X-X-X-X-X-X-X",
"-X-X-X-X-X-X-X-X-X-X-X-X-X9.M y C x.T.v.V ~ 0XLXPXpXv.~ C x.tXPXKXJXLXJXLXLXLXLXHXcXeXN.a # d [ Z.1X6X6XE.] s t >.*X-X-X-X-X-X-X",
"-X-X-X-X-X-X=X-X-X-X-X-X=X3.M 6 C X.Q.T.~ ) OXeXiX@Xj.( ..U.iXPXPXJXLXLXJXLXPXPXPXZXpXT.s O & k f.S.1X:XM.! 3 e >..X-X-X-X-X-X-X",
"-X-X-X-X*X&X&X&X-X-X-X-X-X3.M 0 n h.).'.z.X.j.v.z.x.X.x.U.%XNXPXLXLXLXLXLXLXLXLXPXVXaXY.d $ & j d.g.C.n.E d - q <. X-X-X-X-X-X-X",
"-X-X-X&X&X&X&X|.*X-X-X-X-Xq.H w n ] !.:X!.c.o./ ^ ( x.R.%XaXVXLXLXLXJXLXJXLXFXDXDXNX2Xz.a $ & h l W W W f 3 : B ,. X-X-X-X-X-X-X",
"-X-X-X*Xi.i.p.p. X*X*X-X=X4.$.F N / k._.,X_.l.Q E o.Y.2XaXVXLXFXLXLXLXJXLXJXFXVXcX2XB.~ = O & & h j k c x r B R 8. X-X-X-X-X-X-X",
"-X-X-X-X*Xi. X}. X X*X-X=X{.3.| K S ] M._.:XM.f.f.k.).yXVXPXFXFXLXDXLXFXPXVXVX6X>Xm.! a # o & < & p z N J U $.=.y. X-X-X-X-X-X-X",
"-X-X-X-X*X&X*X*X-X-X&X&X=X-X|.8.&.K ^ ' M.A.M.V.n.Z.'.5XBXDXFXSXDXDXFXFXFXDX6X2XM./ 2 # ; : > 4 7 w G | 3.4.{.{. X-X-X-X-X-X-X-X",
"-X-X-X-X-X-X-X-X-X=X&X&X-X-X*Xi.1.*.K S ( ] h.f.h.k.).4X7XGXGXGXvXvXvXvXvX6X>XY./ a * ; q D D F D L *.3.XX=X-X*X-X-X-X-X-X=X-X-X",
"-X-X-X-X-X-X-X-X-X-X-Xi.i.u.p. X{.9.=.J 6 2 a f d n M.'.6X8X7X6X3X3X3X3X3X,Xm.( g ; : r %.8.4.4.3.3.y.XX=X=X*X X X X-X-X=X-X-X-X",
"-X-X-X-X-X-X-X-X-X-Xi.i.7.t.t. X.XXX1.J : # g Z n ( B.:X6X7X6X,XE.M.M.M.M.k.o.S r r M I q.-X-X=X=X=X=X=X=X=X*X X X.X-X-X-X-X-X-X",
"-X-X-X-X-X-X-X-X-X*Xp.7.6.6.t. X-X}.1.Y 6 s X.W.Q.`.0XiXxXpXuX^.Q c d d d c S U *.<.,.4.|.=X&X&X-X-X-X-X-X*X*X X-X-X-X-X-X-X-X-X",
"-X-X-X-X-X-X-X-X=Xi.u.7.6.6.u.}.XXXX0.*.B S j.OX~././.`.`.~.Y.x.n w w 0 0 e L ;.r.&Xi.|.&X&X&Xi.*X-X-X-X-X-X-X-X-X-X-X-X-X-X-X-X",
"-X-X-X-X-X-X-X-X-X-Xp.u.u. X X X=X-X}.0.-.P A V V V V V V C C K U $.&.&.$.:.,.4.i.&X&Xi.i.i.i.i. X X-X-X-X-X-X-X-X=X.X.X-X-X-X-X",
"-X-X-X.X-X-X-X-X-X-X*X*X X X X*X-X-X-X X0.-.N t 6 6 0 4 6 w B J ,.4.{.4.4.4.4.4.i.i.u.u.i.i.a.a.}. X-X-X-X-X-X-X=X-X.X X.X-X-X-X",
"-X-X*X X-X.X-X-X-X-X-X-X*X-X-X-X-X-X-X*X}.8.&.P R L L L P Y &.>.r.*X*X Xi.i.p.p.7.6.6.7.p.u.t.t.s.oX*X-X-X-X-X-X X X X}..X.X-X-X",
"-X-X*X X X X-X-X-X-X-X-X-X-X-X-X-X-X-X-X*X}.0.3.1.1.,.1.1.3.8.q. X-X-X*Xi.i.p.p.e.6.e.s. X Xa.s.oXoX*X-X-X-X-X-X.X Xu.u.}..X.X-X",
"-X*Xu.p. X*X*X-X-X-X-X-X-X-X-X-X-X-X-X-X-X*X X|.XX|.{.{.XX|. X X*X-X-X-X*X*X*X*X*XoXu.oX*X*X*X X X X*X-X-X-X-X*X XoXe.e.u.oX.X-X",
"-X*Xa.u. X*X-X-X-X-X-X-X-X-X-X-X-X-X-X-X-X-X=X=X=X=X=X=X=X=X=X-X-X-X-X-X-X-X-X-X-X*X*X X*X*X-X-X XoX-X-X-X-X-X*X X}.e.e.}.oX-X-X"
};
