/* XPM */
static char *right[] = {
/* columns rows colors chars-per-pixel */
"63 64 256 2",
"   c #050101",
".  c #090502",
"X  c #0C0904",
"o  c #0F0D08",
"O  c #120B06",
"+  c #110D08",
"@  c #1A0D07",
"#  c #13130A",
"$  c #1B1309",
"%  c #1B1B0D",
"&  c #1A1509",
"*  c #1B240E",
"=  c #1E2312",
"-  c #210F07",
";  c #201509",
":  c #22190C",
">  c #261208",
",  c #281F12",
"<  c #321A0B",
"1  c #2C210F",
"2  c #20250E",
"3  c #232B13",
"4  c #2D2512",
"5  c #2C2913",
"6  c #202610",
"7  c #2B3416",
"8  c #2C3619",
"9  c #2D3A1A",
"0  c #273316",
"q  c #38220F",
"w  c #322611",
"e  c #332B15",
"r  c #392E18",
"t  c #313D1D",
"y  c #3B351B",
"u  c #2F2F2B",
"i  c #3E3D38",
"p  c #2C4F1E",
"a  c #36411F",
"s  c #39441F",
"d  c #36541C",
"f  c #29452C",
"g  c #2F5235",
"h  c #3A4922",
"j  c #3E5E29",
"k  c #3B602A",
"l  c #422211",
"z  c #43351A",
"x  c #443A1D",
"c  c #4A3B1C",
"v  c #553D1C",
"b  c #612C12",
"n  c #743314",
"m  c #683416",
"M  c #57431C",
"N  c #484822",
"B  c #474438",
"V  c #415523",
"C  c #455B25",
"Z  c #485D2A",
"A  c #524723",
"S  c #5A4421",
"D  c #5C5529",
"F  c #5C5930",
"G  c #46611C",
"H  c #43632A",
"J  c #4C642C",
"K  c #4D6B2B",
"L  c #466126",
"P  c #4D6230",
"I  c #506B2D",
"U  c #53612D",
"Y  c #57762E",
"T  c #5D7C33",
"R  c #5A7733",
"E  c #497231",
"W  c #644B22",
"Q  c #6C5D2C",
"!  c #685326",
"~  c #6C5E33",
"^  c #7A5B26",
"/  c #715526",
"(  c #6D602B",
")  c #696633",
"_  c #76642C",
"`  c #746433",
"'  c #7C6A33",
"]  c #43774A",
"[  c #498030",
"{  c #5D8031",
"}  c #5EB63D",
"|  c #668D35",
" . c #668739",
".. c #6A9236",
"X. c #6B913A",
"o. c #6C9C3D",
"O. c #729B3E",
"+. c #68A53E",
"@. c #66B93D",
"#. c #6ABB3C",
"$. c #77A33F",
"%. c #71BF3D",
"&. c #559C56",
"*. c #59AA48",
"=. c #5CA452",
"-. c #5FB241",
";. c #6B9E49",
":. c #729D41",
">. c #739D49",
",. c #66AB49",
"<. c #63A556",
"1. c #6BAB53",
"2. c #66A656",
"3. c #65B542",
"4. c #69B643",
"5. c #6BB24A",
"6. c #6DB941",
"7. c #65B643",
"8. c #75A241",
"9. c #7CAA44",
"0. c #73AD53",
"q. c #7AAB57",
"w. c #72B746",
"e. c #75B64B",
"r. c #75BC44",
"t. c #76B948",
"y. c #7DB54C",
"u. c #7BBE45",
"i. c #7DBA4B",
"p. c #7FB045",
"a. c #7CB352",
"s. c #74B052",
"d. c #76A561",
"f. c #7AC13D",
"g. c #7DC043",
"h. c #873B17",
"j. c #8E421A",
"k. c #8A4218",
"l. c #92451B",
"z. c #975220",
"x. c #86652C",
"c. c #846430",
"v. c #897638",
"b. c #906C2C",
"n. c #9B732B",
"m. c #927A35",
"M. c #9D7D35",
"N. c #947A37",
"B. c #A87B34",
"V. c #B77C31",
"C. c #A36529",
"Z. c #8B7C41",
"A. c #AD7A40",
"S. c #DF3532",
"D. c #E23433",
"F. c #E57A3F",
"G. c #E3683E",
"H. c #E57A41",
"J. c #9A843D",
"K. c #9A863E",
"L. c #AB8639",
"P. c #AD923E",
"I. c #B38634",
"U. c #B68934",
"Y. c #BA8E3C",
"T. c #B98A37",
"R. c #B5933C",
"E. c #9D8840",
"W. c #988340",
"Q. c #81B346",
"!. c #84BB47",
"~. c #85BC4B",
"^. c #88BE4B",
"/. c #83B748",
"(. c #81B552",
"). c #84B850",
"_. c #A48E42",
"`. c #AC9542",
"'. c #A49249",
"]. c #B08C40",
"[. c #B49B47",
"{. c #B79D47",
"}. c #B19C51",
"|. c #BBA149",
" X c #B7A048",
".X c #BBA450",
"XX c #89CA39",
"oX c #9AD23B",
"OX c #84C146",
"+X c #86C149",
"@X c #8DC546",
"#X c #8BC34A",
"$X c #8EC84C",
"%X c #8FC847",
"&X c #92CA44",
"*X c #90C745",
"=X c #98D242",
"-X c #C38D36",
";X c #C5943B",
":X c #C99537",
">X c #D38E34",
",X c #DC9D3B",
"<X c #DAA63C",
"1X c #EEAE34",
"2X c #EDAB3D",
"3X c #E5A93A",
"4X c #EDB339",
"5X c #F1AC3C",
"6X c #F1B135",
"7X c #F2B23E",
"8X c #F2B93D",
"9X c #C99C41",
"0X c #D39F42",
"qX c #CDAD4C",
"wX c #C5A346",
"eX c #C2A954",
"rX c #CFB14E",
"tX c #CCB252",
"yX c #DEAF4B",
"uX c #DEAD47",
"iX c #DDBE4F",
"pX c #DBB548",
"aX c #D7B952",
"sX c #E98A47",
"dX c #EA9348",
"fX c #E5AA44",
"gX c #EDB441",
"hX c #E8B94A",
"jX c #E7BA52",
"kX c #F3B342",
"lX c #F2BC43",
"zX c #F1BE48",
"xX c #DFC155",
"cX c #EBC24D",
"vX c #E7C24C",
"bX c #E3C252",
"nX c #EDCA54",
"mX c #E6C556",
"MX c #F4C346",
"NX c #F3C54A",
"BX c #F5CB4D",
"VX c #F9CD4D",
"CX c #F6CE52",
"ZX c #F8CF53",
"AX c #F1CD59",
"SX c #F6D04F",
"DX c #F6D053",
"FX c #F9D254",
"GX c #F8D459",
"HX c #F4D363",
"JX c #F6D870",
"KX c #F1DA84",
"LX c #DCDEDB",
"PX c #FCF4CD",
"IX c #E8E3CB",
"UX c #F1F0EA",
/* pixels */
"#X#X^.).4.OX#X#X#X#X#X#X#X#X#X@X$X$X+X$X$X#X$X+X#X#X#X#X#X#X#X#X#X#X#X#X#X#X#X#X#X#X#X#X#X#X#X#X#X#X#X#X#X#X#X#X@X#X#X#X#X#X#X",
"#X#X).d.2.t.#X#X#X#X#X#X#X#X#Xo.............9.#X#X#X#X#X#X#X#X#X#X#X#X#X#X^.#X#X#X#X#X#X#X#X#X#X#X#X#X#X#X#X#X#X#X#X#X#X#X#X#X",
"#X#X#X).a.u.#X#X#X#X#X#X#X#XQ.6 X X X X X . Y $X#X#X#X#X#X#X#X#X+X#X#X@X#X#X#X#X#X#X#X#X#X#X#X#X#X#X#X#X#X#X#X#X#X#X#X#X#X#X#X",
"#X#X#X#X#X#X#X#X#X#X#X#X#X@XQ.* . . . .   X Y ^.^.#X#X#X#X#X#X~.w.!.^.^.^.#X#X@X#X#X#X#X#X^.#X#X#X#X#X&X*X#X#X#X#X#X#X#X#X#X#X",
"#X#X#X#X#X#X#X#X#X#X#X#X#X#XQ.2 . . . . . X * 7 I #X#X#X#X#X$Xo.9 9 9 8  .#X#X#X#X+X#X^.^.+X+X#X#X#X#X#X#X#X#X#X#X#X#X#X#X#X#X",
"#X#X#X#X#X#X#X#X+Xu.#X#X#X#XQ.6   . . . . .     h $X#X#X#X#X#X| .       J $X#X^.+X+X#X#X#X~.+X#X#X#X#X#X#X#X#X#X#X#X#X#X#X#X#X",
"#X#X#X#X#X#X#X#XOX#.#X~.#X#XQ.6   X . . . X A ! ) { { 9.#X#X$X| . + S W F h I /.+X^.#X@X#X^.#X#X#X#X#X#X#X#Xr.OX^.#X@X#X#X#X#X",
"#X#X#X#X#X#X#X#Xy.<.w.t.#X#XQ.2   . . . . # |.GX|.O . | $X#X@X| . : 9XkXc.  0 /.#X#X#X#X#X#X#X#X#X#X#X#X#X#X%.t.u.#X#X#X#X#X+X",
"#X#X+X#X#X#X#X#X~.1.0.y.^.#X/.h 7 % . X . O  XFXtXy 5 R 8.p.#X| . ; ;XkXc.  7 ~.#X#X#X#X#X#X#X#X#X#X#X#X#X#Xt.5.u.i.#X#X#X#X#X",
"#X#X#X#X#X#X#X#X#X#X#X#X#X#X#X~.^.J . . . O  XFXAXmXeX5 # P ^.| . % ;XkXc.  7 /.#X#X#X#X#X#X#X#X#X#X#X#X#X$Xy.<.,.y.^.#X#X#X#X",
"#X#X#X#X#X#X#X#X#X#X#X#X#X#X#X#X$XJ . . X O  XFXCXZXjXe X H ~.{ . @ ].kXc.  3 y.).^.!.%.#X#X#X#X#X#X#X#X#X#X~.y.).~.^.#X#X#X#X",
"#X+X#X#X#X#X#X#X~.#X#X#X#X#X#X#X$XJ   . X O  XFXCXCXAX}.'.N * * X O r v 4 . # 8 8 9 5 C ^.#X#X#X#X*X#X#X#X#X#X#X#X#X#X#X#X#X#X",
"#X#X#X#X~.#X#X^./.#X#X#X#X#X#X#X#XJ   . X O {.VXCXCXCXDXAXA   . .           .         t ~.^.@X#X#X@X#X#X#X#X#X#X#X#X#X#X#X#X#X",
"#X#X#X#X#X#X#X~.i.#X#X#X#X#X#X#X$XX.Z h X O R.MXMXBXBXBXNXA   % ~ ` ` ` ` ` ` ` ` ` ` F H H +.+X#X#X#X#X#X#X#X#X#X#X#X#X#X#X#X",
"#X^.~.#X#X#X#Xi.0.^.#X#X#X#X#X#X#X#X$X| X O U.6X8XBXBXMXlXM   r mXDXGXGXDXDXDXAXZXZXGXv.  X [ +X#X#X#X#X#X#X#X#X#X#X#X#X#X#X#X",
"#X#X^.^.#X#X#Xi.q.^.@X#X#X#X#X+X$X^.~...* = M.:X<XMXBXBXcXv.A ` nXZXCXCXDXDXDXCXCXCXFXJ.w 5 E 8.9.#X#X#X#X#X#X#X#X#X#X#X#X#X#X",
"#X#X#X#X#X#X#X+X(.#X#X$X^.#X#X#X#X+X)./.,.;.y $ / gXzXCXCXAXAXAXDXDXDXDXCXDXCXDXCXDXCXnXxXrX5 # L #X#X#X#X#X#X#X#X#X#X*X@X#X#X",
"#X#X#X#X#X#X#X#X#X#Xg.g.#X#X#X#X#X^.#X#X+X^.t X S 4XlXCXDXCXFXCXDXCXDXCXDXDXDXDXDXDXDXFXFXxXw . V #X#X#X#X#X#X#X#X#X@X*X@X#X#X",
"#X#X#X#X#X#X#X#X#X#XOXXX%X#X#X#X+X#X#Xy.h h c.I.:X1X4XSXCXZXFXZXDXDXDXDXCXDXDXDXDXDXDXDXCXnX[._.) 9 h Q.@X#X#X#X#X#X#X#X#X#X#X",
"#X#X#X#X#X#XOX+X#X#X#Xg.g.g.+X+X6.#X#X9.#   n.8X4X1X4XBXCXZXCXZXDXDXDXDXDXCXDXCXDXDXGXFXSXCXFXFX'   & 9.=XoX#Xg.#X#X#X#X#X#X#X",
"#X#X#X#X+X#Xu.r.g.g.^.,.3.@.u.+X@.g.@X9.% . N.NXMXMXNXSXDXCXCXFXDXDXDXDXDXCXDXDXDXaXK. XKXJXFXGX'   % 9.$XoXr.w.^.^.#X#X#X#X#X",
"#X#X#X#X@X#X#X4.u.r.,.&.*.u.@X+X@.3.$X9.# . K.FXCXCXDXDXCXDXDXDXCXDXDXDXCXFXDXDXGXK.. g UXPXHXDX_   # 9.#X~.1.).(.~.#X#X#X#X#X",
"#X#X#X#X#X#X#X5.i.#X1.&.<.+X^.+Xf.} 8.X.y e `.FXCXDXDXDXDXCXDXDXCXDXDXDXCXDXFXFXGXZ.. i LXIXHXFX(   % 9.#X7.=.).).^.#X#X#X#X#X",
"#X#X#X#X#X#X#X^.#X#X^.^.~.#X#X#X^.J # y tXbXnXFXCXDXDXCXFXDXDXDXDXDXDXDXZXFXCXFXFXZ.. @ u B xXGXQ   % 9.$X6.1.).#X#X#X#X#X#X#X",
"#X#X#X#X#X#X#X#X#X#X#X#X#X#X#X#X#XJ   r mXFXDXDXDXDXDXDXDXDXDXDXDXDXDXDXDXDXDXDXGXv.  .   4 aXGX~ . = 8./.+X#X#X#X#X#X#X#X#X#X",
"#X#X#X^.#X#X#X#X#X#X#X#X#X#X#X#X#XJ   y mXDXDXDXDXDXDXDXDXDXDXDXDXDXDXDXDXDXGXDXHXv.. X . 5 xXDXqX[.Z.5 3 { #X#X#X#X#X#X#X#X#X",
"#X+Xy.q.^.#X#X#X#X#X#X#X#X#X#X#X$XP   y nXCXCXCXDXDXDXDXDXDXDXDXDXDXDXDXDXDXDXFXGX'   .   e bXFXGXGX.X+   I #X#X#X#X#X#X~.~.^.",
"#X#X!.~.#X#X#X#X#X#X#X^.#X#Xu.#X$XK   c nXCXCXCXDXDXDXDXDXDXDXDXDXDXDXDXhXsXdXdXsXA.' c.' m.nXDXDXFXtXe . K #X#X#X#X#X#Xa.(.~.",
"#X#Xu.@.u.^.#X#X#X@X#X#X#X*Xu.f.!.j   c mXDXCXCXCXDXDXDXDXDXDXCXDXDXDXGXdXS.S.S.D.H.ZXFXDXGXCXZXDXFXGX!   K +X#X#X#X#X#X~.#X#X",
"#X#Xt.&.y.#X#X#X#X#X#X#X#X*X#XXXg.H   x cXNXBXCXCXDXDXDXDXCXDXDXDXFXDXDXsXS.D.D.D.H.dXhXDXFXZXGXiXP.`.y   K #X^.#X#X#X#X#X#X#X",
"#X#X#Xi.^.#X#X#X#X#X#X#X#X#X#Xf.5.H   z 3X1XzXCXCXDXDXDXDXDXDXDXDXDXFXDXsXD.D.D.D.D.S.H.DXDXZXFXW.X X .   K #X#X#X#X#X#X#X#X#X",
"#X#X#X#X#X^.~.!./.!.!././././.#X+XI o c wX3XMXCXCXCXDXCXDXSXCXDXDXCXCXFXsXD.D.D.D.D.D.H.GXDXZXFXE.$ $ X . I #X#X#X#X#X#X#X#X#X",
"#X#X#X#X@XO.t 8 8 8 7 0 0 5 t 9.#XQ.8. .r z wXDXCXCXCXZXCXCXDXDXDXDXDXDXdXS.D.D.D.D.D.H.GXZXCXDXhX;XL.: . I %X+X#X#X#X#X#X#X#X",
"#X#X#X#X$X| .               + :.$X$X$X:.O O {.ZXVXCXCXCXDXDXDXDXDXDXDXDXsXS.D.D.D.D.D.H.DXZXCXCXMX5X0X,   I @X$X#X#X#X^.^.#X#X",
"#X#X#X#X@X..X O ` N.m.m.m.N.' V Z  .@X:.O O P.zXNXZXCXCXDXCXDXDXDXDXDXDXjXdXdXdXsXsXsXfXDXDXCXzXY./ W V G ..+X#X#X#X#Xy.).#X#X",
"#X#X#X#X#X| X $ wXBXBXVXFXGXaX$   L #XO.# O V.5XMXDXDXCXCXCXCXZXCXDXCXDXGXZXZXGXDXDXCXFXGXFXNXkXc.  . X.=Xf.t.^.#X#X#X^.^.#X#X",
"#X#X#X#X$X| . & wXNXBXNXCXZXrX:   L $XO.+ O B.,XfXhXjXCXCXCXZXZXDXDXCXCXZXCXZXZXCXCXBXjX.X[.[.P.` 8 h >.(.3.w.5.+X#X#X#X+X#X#X",
"#X#X#X#X$X| . & wXMXBXVXCXZXrX:   L $XO.+ O m l.j.j.C.nXCXCXCXCXCXCXCXCXZXCXCXZXFXzXkXT.$ X O o J ^.^.^.(.2.1.5.~.#X#X#X#X#X#X",
"#X#X#X#X@X... & wXVXBXBXCXDXrX%   L $X:.+ . b h.h.h.z.cXCXCXCXCXDXDXCXDXDXDXFXCXCXzX7XU.O . X   C #X#X#X^.^.^.#X^.$X#X#X#X#X#X",
"#X#X#X#X@X| X o ! _ P.CXCXVXrX:   0 K F v.N.Y.>X-X;X9XnXFXCXCXCXDXDXCXFXZXCXCXzXlXlX8X<Xn.x.:   C #X#X#X^.#X#X#X#X#X#X#X#X#X#X",
"#X#X#X#X$X...       Q FXDXDXrX;   . . w bXFXFXDXFXZXFXCXCXCXCXCXDXDXDXDXDXCXCX4X2X4XzX8X4X<Xw   C #X#X#X#X#X#X#X#X#X#X#X#X#X#X",
"#X#X#X#X#X8.h 8 3 5 ( eXrXNXqX:   .   4 9XfXuXyXjXCXCXZXZXCXZXZXBXBXCXBXSXCXCXMXzX:Xn.L.4XuXw   V #X#X#X#X@X@X#X#X#X#X#X#X#X#X",
"#X+X~.^.#X#X~.!./.^.C O z fX;X;   . . @ h.j.j.j.T.CXCXCXFXDXFXNXgX4XMXMXBXDXCXCXFXE.. e mXxXw   d %X#X#X#X*X*X#X#X#X^.#X#X@X#X",
"#X+X^.+X#X#X#X#X/.^.C O z 3X:X< & + . > k.j.j.k.V.ZXZXZXZXCXFXNXgX4XpXpXvXDXDXDXFXE.. e mXjXe   V #X#X#X#X#X#X#X#X#X~.#X#X#X#X",
"#X#X#X#X#X#X#X!.V 7 Q Y.-X2X3X;XY.S   1 wXuXuXuXhXFXFXZXDXDXCXCXCXnXD : v.CXCXDXFXE.. 8 mXjXe   V @X$X#X#X#X#X#X+X^.+X#X#X#X#X",
"#X#X@X#X#X#X#X!.8   ^ 7XkXkX5XkXlX/   5 bXCXDXDXZXCXCXZXCXCXCXCXCXnXc   Q DXDXDXFXE.. e xXxXe   V @X#X#X#X#X#X#X#X#X#X^.^.#X#X",
"#X#X#X#X#X#X#X!.8   ^ 2X2X2X,Xb.x.z   w iXFXFXDXZXDXDXCXDXDXCXDXFXnXc   Q AXDXDXGXP.. e mXxXe   d +X#X#X#X#X#X#X#X#X#X#X#X#X#X",
"#X#X#X#X#X#X#X^.7   ^ kX5X5X;X$   X   w iXDXDXFXDXDXDXDXDXDXDXDXDXnXc   Q DXDXDXFXK.  e mXxX5   d g.#X#X#Xg.OX#X#X#X#X#X#X#X#X",
"#X#X#X#X@X!.+X!.8   M I.T.>XV.l > @ . w iXZXCXCXZXCXCXDXDXDXDXDXDXCX_ y `  X X X|.m.y ! vXfXw   p r.#.r.#X%.g.#X).^.#X#X#X#X#X",
"#X#X#X#XXXXX+X!.8   X O < h.h.h.h.l . w jXFXCXCXCXCXCXCXDXCXCXCXDXDXAXAXK.O O O o Q vX4X1X<X1   f *.7.~./.%.3.i.).#X#X#X#X#X#X",
"#X^.#X#XOX#.2.(.a # # & q n n n n l   4 |.pXvXCXCXCXZXCXDXCXDXDXDXDXCXFXP.& $ - $ ^ lX3XU.I.e X f =.0.~.+X#.3.a.#X#X#X#X#X#X#X",
"#X#X#X#X+Xt.y.~.9.$.O.$. .@ @ O O O . O : 4 U.4XzXZXZXZXDXDXDXCXDXDXCXCXgXT.-X-X:X<X1XT.: & R O.,.s.).^.^.u.t.^.#X#X#X@X@X#X#X",
"#X#X#X#X#X#X#X#X#X$X$X$X:.+ . . . . . .   O B.kXzXCXCXCXCXDXSXDXDXCXCXBXzX2X2X1X2X2X3XB.O + X.$X^.#X#X#X#X#X#X#X#X#X#X@X@X#X#X",
"#X#X#X#X#X#X@X+X#X+X!.#X9.T R T T R R I # . c / M.lXlXlXlXlXlXlXzXlXlXlXI.! ! / ! W v A R { Q.#X#X#X#X#X#X#X#X#X#X#X#X#X@X#X#X",
"#X#X~.#X#X#X#X#X#X!.g.OX+X5.t.#X$X$X%X9.#       v 4X1X6X6X6X6X1X1X1X1X6X^             t #X$X#X#X#X#X#X#X#X#X#X#X#X#X#X#X^.#X#X",
"#X^.~.#X#X#X#X#X+X$XXXr.e.*.y.).#X#X#XQ.h t t t ! I.I.U.U.U.U.:X4X4X4X8XB.x x x c ,   t ~.#X#X#X#X#X#X#X#X^.a.~.#X#X#X#X#X#X#X",
"#X^.#X#X#X#X#X#X#X#Xr.*.1.2.).^.#X#X#X^.!.+X+X#XT + O O O + O z vXCXSXSXDXnXnXnXnX`   9 ^.#X#X#X#X#X#X#X^./.^.^.#X#X#X#X#X#X#X",
"#X#X#X#X#X#X#X#X#X#Xe.&.<.2.).^.#X#X#X#X#X*X@X#X .& # # # # # x aXbXbXbXxXbXxXhXjX( # h ^.g.^.$X#X#X+X#X#X#X+X#X#X#X#X#X#X#X#X",
"#X#X#X#X#X#X#X#X#X#X).s.s.~.#X#X#X#X#X#X#X#X#X#XQ.8.:.:.:.:.9. .y e e e e 5 e e e U o.,.#X7.g.^.).^.#X#X#X#X#X#X#X#X#X#X#X#X#X",
"#X#X#X#X#X#X#X#X#X#X#X#X$X#X#X#X#X#X#X#X~.~.#X#X#X#X#X$X$X%X&X:.o                 j 3.t.#X6.7.(.~.#X#X#X#X#X#X#X^.#X#X^.#X#X#X",
"#X#X#X#X#X#X#X#X#X#X#X#X#X#X#X#X#X#X#X#X~.a.(.#X#X#X#X#X#X#X#XQ.Y K I K H k I k g ] 0.d.~.3.&.q.).#X#X#X#X#X#X#Xr.u.^.).#X#X#X",
"#X#X+Xu.#X#X#X#X#X#X#X#X#X#X#X#X#X#X#X#X#X#X#X#X#X#X#X#X#X#X#X#X$X$X$X$Xi.a.$X+X1.1.q.).^.t.5.(.^.^.#X#X#X#X+X#X+X1.^.).~.#X#X",
"#X#Xt.e.#X#X#X#X#X#X#X#X#X#X#X#X#X#X#X#X#X#X#X#X#X#X#X#X#X#X#X#X^.#X#X#X#X#X+X^.#X#X#X#X#X#X#X#X#X#X#X#X#X#X#X#X#X<.2.(.^.#X#X",
"#X#Xt.=.y.#X#X#X#X#X#X#X#X#X#X#X#X#X#X#X#X#X#X#X#X#X#X#X#X#X#X#X#X#X#X#X#X#X#X#X#X#X#X#X#X#X#X#X#X#X#X#X#X#X#X#X#X*.&.(.^.#X#X"
};
