/* XPM */
static char *_4a39cc417c7454fec21f705a2ba654b6gCn0OSYjHvDZitQ[] = {
/* columns rows colors chars-per-pixel */
"64 64 226 2 ",
"   c #050201",
".  c #090502",
"X  c #0D0A04",
"o  c #100703",
"O  c #120C05",
"+  c #130E09",
"@  c #151007",
"#  c #15140A",
"$  c #1B140A",
"%  c #18160A",
"&  c #1B1C0D",
"*  c #27160A",
"=  c #231B0E",
"-  c #3C1A0C",
";  c #231E15",
":  c #1E220E",
">  c #1E2111",
",  c #30220F",
"<  c #2C2312",
"1  c #262A13",
"2  c #242B14",
"3  c #322614",
"4  c #342B14",
"5  c #3A2B15",
"6  c #2A3316",
"7  c #283517",
"8  c #2D3A16",
"9  c #2C3419",
"0  c #3B3518",
"q  c #323D1C",
"w  c #2F302D",
"e  c #4F2A14",
"r  c #413619",
"t  c #443B1B",
"y  c #4C391C",
"u  c #543A1A",
"i  c #693317",
"p  c #783416",
"a  c #35431D",
"s  c #3A461D",
"d  c #394A1E",
"f  c #3C4921",
"g  c #37562F",
"h  c #3B6433",
"j  c #4D411D",
"k  c #57431E",
"l  c #4C4322",
"z  c #564823",
"x  c #5A4C26",
"c  c #465527",
"v  c #57562A",
"b  c #654B22",
"n  c #644B23",
"m  c #6C5325",
"M  c #65592A",
"N  c #6B5D2E",
"B  c #745926",
"V  c #6A5C31",
"C  c #4C642B",
"Z  c #4C682B",
"A  c #50672C",
"S  c #516C2C",
"D  c #447729",
"F  c #53722D",
"G  c #577C2D",
"H  c #556E32",
"J  c #5A7733",
"K  c #5B7B32",
"L  c #73632E",
"P  c #7E642B",
"I  c #746533",
"U  c #7A6A33",
"Y  c #747239",
"T  c #767572",
"R  c #893A16",
"E  c #DF3D33",
"W  c #E33534",
"Q  c #E23A34",
"!  c #91441B",
"~  c #904819",
"^  c #9E5A21",
"/  c #86662B",
"(  c #917232",
")  c #927A35",
"_  c #977836",
"`  c #A37D37",
"'  c #DE5B38",
"]  c #E2583A",
"[  c #807E79",
"{  c #5D8234",
"}  c #5A8B39",
"|  c #5B983B",
" . c #618434",
".. c #668A3A",
"X. c #6B913B",
"o. c #6B983D",
"O. c #719C3B",
"+. c #5EB03C",
"@. c #74A23D",
"#. c #62B53D",
"$. c #6CBC3D",
"%. c #78C339",
"&. c #589A57",
"*. c #608540",
"=. c #739C41",
"-. c #5AAB49",
";. c #5AB342",
":. c #5CA355",
">. c #69A94A",
",. c #75A241",
"<. c #79A542",
"1. c #7CAB44",
"2. c #7AA64A",
"3. c #64B443",
"4. c #69B644",
"5. c #6CBA42",
"6. c #6CB349",
"7. c #74BC44",
"8. c #7CBE45",
"9. c #73B54C",
"0. c #79B64A",
"q. c #7BBA4A",
"w. c #65A557",
"e. c #6CAB54",
"r. c #75AC55",
"t. c #7CAD55",
"y. c #6EB251",
"u. c #76B252",
"i. c #7DB353",
"p. c #7FB058",
"a. c #78A762",
"s. c #74C040",
"d. c #7BC143",
"f. c #9A833C",
"g. c #AA8838",
"h. c #B68934",
"j. c #B98B36",
"k. c #AE923F",
"l. c #B6963C",
"z. c #C58C35",
"x. c #C79336",
"c. c #C4903B",
"v. c #CB973D",
"b. c #CC9B3B",
"n. c #D7933A",
"m. c #DCA33A",
"M. c #EFAE33",
"N. c #E6A73C",
"B. c #EEAC3D",
"V. c #F0AF34",
"C. c #F1AD3C",
"Z. c #E3B03F",
"A. c #EDB23C",
"S. c #F1B235",
"D. c #F1B53B",
"F. c #F0BA3F",
"G. c #8ECA3D",
"H. c #91CF38",
"J. c #9BD13D",
"K. c #998742",
"L. c #A48C42",
"P. c #AA9444",
"I. c #B39A42",
"U. c #B49B46",
"Y. c #80AF48",
"T. c #82B346",
"R. c #85BB47",
"E. c #81B548",
"W. c #85BC4B",
"Q. c #88BE4B",
"!. c #83B552",
"~. c #84B951",
"^. c #BCA147",
"/. c #B7A149",
"(. c #BCA249",
"). c #BFA652",
"_. c #D19D40",
"`. c #EA8A48",
"'. c #ED9A49",
"]. c #C6A94B",
"[. c #DBA847",
"{. c #D9B54A",
"}. c #CDAF52",
"|. c #DBBA52",
" X c #E1AB46",
".X c #EDAE40",
"XX c #EDA24B",
"oX c #EEB342",
"OX c #EBBA46",
"+X c #E4B54C",
"@X c #F1B341",
"#X c #F2BC43",
"$X c #F7BA47",
"%X c #EEB952",
"&X c #C9B263",
"*X c #82C146",
"=X c #8DC647",
"-X c #86C149",
";X c #8BC34A",
":X c #8DC54A",
">X c #8FC84D",
",X c #92C945",
"<X c #90C94C",
"1X c #99D340",
"2X c #EFC74D",
"3X c #F4C346",
"4X c #F6C64A",
"5X c #F5CB4D",
"6X c #F9CB4D",
"7X c #E3C353",
"8X c #EBC655",
"9X c #ECCA56",
"0X c #E5C659",
"qX c #ECCB59",
"wX c #F6C654",
"eX c #F6CE53",
"rX c #F8CE52",
"tX c #F2CE58",
"yX c #F7D154",
"uX c #F9D254",
"iX c #F5D158",
"pX c #FAD55A",
"aX c #F7D565",
"sX c #F6DF86",
"dX c #F1E5AF",
"fX c #F4F5F2",
/* pixels */
";X;X;X~.4.*X;X;X;X;X;X;X;X;X;X:X:X:X:X:X:X:X:X;X;X;X;X;X;X;X;X;X;X;X;X;X;X;X;X;X;X;X;X;X;X;X;X;X;X;X;X;X;X;X;X;X;X;X;X;X;X;X;X;X",
";X;XW.a.w.7.;X;X;X;X;X;X;X;X;X@.X.X.X.X.X.X.@.;X;X;X;X;X;X;X;X;X;X;X;X;X;X;X;X;X;X;X;X;X;X;X;X;X;X;X;X;X;X;X;X;X;X;X;X;X;X;X;X;X",
";X;X;X~.i.q.;X;X;X;X;X;X;X;X;Xd X X X X X X q Q.;X;X;X;X;X;X;X;X;X;X;X;X;X;X;X;X;X;X;X;X;X;X;X;X;X;X;X;X:X;X;X;X;X;X;X;X;X;X;X;X",
";X;X;X;X:X;X;X;X;X;X;X;X;X;X;Xs   . . . .   8 R.Q.;X;X;X;X;X;X;X7.q.Q.Q.Q.;X;X;X;X;X;X;X;X;X;X;X;X;X;X=X,X=X;X;X;X;X;X;X;X;X;X;X",
";X;X;X;X;X;X;X;X;X;X;X;X;X;X;Xs . . . . . . # 9 f Y.:X;X;X;X;X;XC 9 9 8 f T.:X;X;X;XW.;X;X;X;X-X;X;X;X:X:X:X;X;X;X;X;X;X;X;X;X;X",
";X;X;X;X;X;X;X;X;X*X;X;X;X;X;Xd . . . . . . .   # 1.>X:X;X;X;XQ.8       # <.>X;X;XW.-X;X=X;XW.;X;X;X;X;X;X;X;X;X;X;X;X;X;X;X;X;X",
";X;X;X;X;X;X;X;X-X$.-XW.Q.;X;Xd . . . . . . 4 M N K G X.;X;X;XQ.8   4 b b c f ..;X-X;X;X:X-X;X;X;X;X;X;X;X;X-X8.;X;X;X;X;X;X;X;X",
";X;X;X;X;X;X;X;XW.w.9.9.;X;X;Xs   . . . . . I pX9Xt   q ;X:X:XQ.8   m oX X5   S :X;X;X;X;X;X;X;X;X;X;X;X;X;X-X7.7.*X;X;X;X;X;X;X",
";X;X;X;X;X;X;X;XW.e.u.u.Q.;X;XC 6 2 X . X . I pXtXN 3 f ,.<.W.W.8   b @X X5   F :X;X;X;X;X;X;X;X;X;X;X;X;X;X;X0.6.8.W.;X;X;X;X;X",
";X;X;X;X;X;X;X;X;X;X;X;X;X;X;XQ.Q...X . X . L iXyX0X0XN # 1 2.Q.8   b @X[.5   S :X;X;X;X;X;X;X;X;X;X;X;X;X;X:Xu.w.>.0.;X;X;X;X;X",
";X;X;X;X;X;X;X;X;X;X;X;X;X;X;X;X:XX.X . X . L iXrXyXpXU . > <.T.6   z  X[.5   Z W.R.Q.8.8.;X;X;X;X;X:X;X;X;X;XW.W.W.W.;X;X;X;X;X",
";X;X;X;X;X;X;X;XW.;X;X;X;X;X;X;X:XX.X . X . L yXrXyXyX}.P.Y 1 2 + . = y y $ . > q 9 9 1  .:X;X;X;X:X,X:X;X;X;X;X:X:X;X;X;X;X;X;X",
";X;X;X;X;X;X;X;XW.;X;X;X;X;X;X;X:XX.X . X . L rX5XyXrXuXpXU.X . . .         .           H -X;X:X;X;X:X;X;X;X;X;X;X;X;X;X;X;X;X;X",
";X;X;X;X;X;X;XW.q.;X;X;X;X;X;X;X:X1.C c #   B 3X3X5XrX5X5XP.O . l I I I I I I I I I I I v h F 0.;X;X;X;X;X;X;X;X;X;X;X;X;X;X;X;X",
";X;XW.;X;X;X;XW.r.W.;X;X;X;X;X;X;X:X>XT.:   B S.S.3X5X5X3Xk.o . f.pXiXpXuXuXiXiXiXiXuXtXk   # +.:X:X;X;X;X;X;X;X;X;X;X;X;X;X;X;X",
";X;X;X;X;X;X;XW.r.W.;X;X;X;X;X;X;X;XQ.E.8 # N b.b.#X4X5X4X].x z U.uXiXiXiXyXyXrXrXrXuXtXm < 9 } <.T.;X;X;X;X;X;X;X;X;X;X;X;X;X;X",
";X;X;X;X;X;X;X;X~.Q.;X;X;X;X;X;X;X;X~.W.4.>.H $ 4 _.@X5XiXiXtXtXeXyXyXyXyXyXyXyXyXyXyXiX0X0XP.& # { :X;X;X;X;X;X;X;X;X:X,X:X;X;X",
";X;X;X;X;X;X;X;X;X;X*Xd.:X;X;X;X;X;X;X;X;X>XJ o = v.D.4XuXuXuXuXyXyXyXyXiXiXyXyXyXuXyXyXyXuXU.@ X J ;XQ.;X;X;X;X;X;X;X:X,X:X;X;X",
";X;X;X;X;X;X;X;X;X;X-XH.,X;X;X;X;X;X;X;XS a v g.h.N.M.4XyXrXuXuXyXyXiXiXiXiXiXyXyXiXyXiXiXuX|.L.L.v q c Q.:X;X;X;X;X;X;X;X;X;X;X",
";X;X;X;X;X;X-X-X;X;X;Xd.d.8.*X;X5.*X;X;Xq   u A.S.S.M.3XyXrXrXuXyXyXyXiXiXyXyXyXyXyXuXpXiXeXyXuXtXl   1 R.J.J.*X*X;X;X;X;X;X;X;X",
";X;X;X;X;X;X*X7.*X8.;X6.3.#.7.;X$.7.;X;Xa   k #X3X3X3X5XyXrXrXuXuXiXyXiXyXyXiXiXiXiX(.K.&XsXaXyXqXl   6 R.:XJ.7.0.Q.;X;X;X;X;X;X",
";X;X;X;X;X;X;X5.7.8.6.&.-.7.;X;X$.#.-X;Xa   l tXyXyXyXyXyXiXiXiXyXyXiXiXyXiXiXiXyXiXx   [ fXdXiX9Xt   6 R.:XW.e.~.!.Q.;X;X;X;X;X",
";X;X;X;X;X;X;X9.0.;X9.&.:.W.-X;Xs.#.,.=.c 3 N tXrXrXyXyXyXyXyXiXyXyXyXyXyXyXiXiXyXtXj   T fXdXiX9Xr   6 R.;X3.w.~.W.;X;X;X;X;X;X",
";X;X;X;X;X;X;X;X;X;X;XW.-X;X;X;X;XX.& & P.7X8XiXiXyXyXyXyXiXiXiXyXyXyXyXyXyXiXiXyXqXj . ; w I iX9Xr   6 R.;X4.e.W.;X;X;X;X;X;X;X",
";X;X;X;X;X;X;X;X;X;X;X;X;X;X;X;X:XX.X + (.pXyXiXiXiXuXyXyXiXiXuXyXyXyXiXyXyXyXiXyXqXt . .   z eXqXt X 7 1.E.Q.;X;X;X;X;X;X;X;X;X",
";X;X;X;X;X;X;X;X;X;X;X;X;X;X;X;X:XX.X $ ].uXyXyXiXiXyXuXyXyXiXiXyXyXiXiXyXiXuXiXuXqXr . X . x iXtX].U.Y 2 2 X.:X;X;X;X;X;X;X;X;X",
";X;Xi.t.W.;X;X;X;X;X;X;X;X;X;X;X:XX.X $ ].uXiXiXyXyXyXyXyXiXyXiXyXyXuXyXuXuXuXuXuXqX0   .   M iXyXuXpXK.. .  .:X;X;X;X;X;XW.W.;X",
";X;X-XW.;X;X;X;X;X;X;X;X;X;X-X*X:XX.X $ ].uXyXyXyXyXyXyXyXiXiXiXyXyXyXyXeX'.`.`.`.`.( U U I P.iXuXyXuX/.= . { ;X;X;X;X;X;Xt.!.W.",
";X;X8.3.W.-X;X;X;X;X;X;X:X,X*X7.*X} X $ ].yXyXrXrXyXyXyXyXyXyXyXiXiXiXyXwX' W W W E %XpXiXpXuXyXiXyXuXqXr . { ;X;X;X;X;X;X-X;X;X",
";X;Xq.&.0.;X;X;X;X;X;X;X;X:X;XG.%.} X $ ].4X5XrXrXyXyXiXyXyXyXyXiXiXyXyXwX] W W W Q `.'.wXiXuXuXuX].P.L.< . { >X;X;X;X;X;X;X;X;X",
";X;X;XW.Q.;X;X;X;X;X;X;X:X;X;X*X5.*.X $ x.M.F.5XyXyXyXiXiXyXyXyXiXiXiXiXwX] W W W W Q E XXuXiXyXpXN . X . X { >X;X;X;X;X;X;X;X;X",
";X;X;X:X;X;XW.R.R.R.R.R.E.R.E.Q.;XX.$ = j.m.OX5XrXrXiXiXyXyXyXyXiXyXyXyXwX] W W W W W Q XXuXuXuXiXN @ $ X X  .:X;X;X;X;X;X;X;X;X",
";X;X;X;X:X<.q 9 9 9 9 7 6 6 7 X.:XR.,.=.l 3 ( yXrXrXrXuXrXyXiXyXyXiXiXiXwX] W W W W W Q XXuXyXyXyX[.v._ + X  .:X;X;X;X;X;X;X;X;X",
";X;X;X;X:XO.X .     . . . . . J >X:X:XW.7   L rXrXrXrXrXiXiXyXyXiXiXyXyXwX] W W W W W E XXiXyXyXrX#X@Xj.O .  .:X;X;X;X;X;X;X;X;X",
";X;X;X;X:XO.X X M ) ) ) ) ) ) c c J ;XR.9   B $X3XrXrXrXuXyXyXiXyXyXyXyXrXXX'.`.`.`.`.`.%XiXyX4XOX` m x c Z @.-X;X;X;X;X!.~.;X;X",
";X;X;X;X:XO.O O I.6X4X5XrXuXqXr   6 W.R.7   m .XoXrXyXyXyXyXrXiXyXyXyXyXiXiXyXiXiXiXiXiXyXpXpX4X.Xu   # 1.1Xd.7.Q.;X;X;X-X-X;X;X",
";X;X;X;X:XO.O O k.4X4X5XrXuX8X0   6 W.R.7   b m.m.+X+XeXyXrXrXiXyXyXyXyXyXyXyXyXyXyXeXeX{.U.U.I.L.v 9 f t.~.3.7.9.Q.;X;X;X;X;X;X",
";X;X;X;X:XO.O X k.4X4X5XrXrX8X0   6 W.R.7   e ! ! ~ ~ [.uXrXrXrXyXyXyXyXyXyXiXyXyXrXoX@X/ X X + #  .Q.Q.Q.i.w.e.6.Q.;X;X;X;X;X;X",
";X;X;X;X:XO.O O k.6X5XrXrXrX8Xr   7 W.R.7 . - R R R R v.uXrXrXrXyXiXiXiXyXyXyXyXyXrX#X@XB . . . X  .:X;X;X;X;X;X;X;X;X;X;X;X;X;X",
";X;X;X;X:XO.O X x P f.eXrXrX8Xr   & C C U ) g.c.x.c.c.+XuXrXrXyXiXiXiXiXuXyXyX5X#X#X#X#Xx.( B o . { :X;X;X;X;X;X;X;X;X;X;X;X;X;X",
";X;X;X;X:XO.X .     j eXyXyX8Xr   . . o I.uXyXyXuXuXuXyXyXrXrXrXyXyXyXiXiXyXiX4XB.B.D.#XD.S.j.+ . { :X;X;X;X;X;X;X;X;X;X;X;X;X;X",
";X;X;X;X:X1.f 9 2 2 v ).].2X%Xr   . . X `  X X[.+XrXyXyXeXyXyXrXeX5X5X5X5XyXyX5X#X#Xh.( l.#Xl.@ . K :X;X;X;X:X:X;X;X;X;X;X;X;X;X",
";X;XW.;X;X;X;XW.R.W.F + < b. Xr   . . o i ! ! ! ^ 8XyXyXyXiXyXyXOX@X#X4X4X5XyXyXrXtXx   N pX^.@ . K :X;X;X:X,X,X;X;X;X;X;X;X:X;X",
";X;X;X-X;X;X;X;XQ.Q.F + = v.N.y + + . X i ! ~ ! ^ %XuXuXuXiXyXyX#X@XoX{.{.5XyXiXyXtXx   N pX].@ . K :X;X;X;X;X;X;X;X;XW.;X;X:X;X",
";X;X;X;X;X;X;X;XC 6 x j.c.N.B.v.c./ X X f.+X X X+XeXuXuXyXyXyXrXrXrXU.4 5 ].yXrXyXiXx   V pX^.@ . K :X;X;X;X;X;X;X;X;X;X;X;X;X;X",
";X;X;X;X;X;X;X;Xd   k A.C.C.M.D.$X` X X l.pXiXyXyXiXrXrXyXiXrXrXyXuXI.X @ (.yXiXyXiXx   V pX^.@ . K :X;X;X;X;X;X;X;X;X;X;X;X;X;X",
";X;X;X;X;X;X;X;Xd   k B.C.B.N._ / b X X I.uXeXuXyXyXyXyXyXiXyXyXiXuXI.O # (.uXiXyXiXx   V pX(.@ . G ;X;X;X;X;X;X;X;X;X;X;X;X;X;X",
";X;X;X;X;X;X;X;Xd   k .XC.C.m.5   . . O I.uXrXuXrXyXiXiXiXiXiXiXiXpXl.X O (.uXpXuXiXx   N pX^.@ . D ;X;X;X;Xd.;X;X;X;X;X;X;X;X;X",
";X;X;X;X;Xd.;X;Xd   r g.h.n.z.u * * . o I.uXrXrXrXyXyXiXiXyXyXyXyXpX].y l K.^./.^.(.N 0 ) 4Xl.+ . D d.5.q.-X$.*X;XW.;X;X;X;X;X;X",
";X;X;X;X=XH.*X;Xd   X O * p R R R i o O I.uXyXrXrXrXyXyXiXrXrXyXiXyXtX9X0Xj X + O # g.2XA.V.h.+ . h ;.4.~.W.$.5.~.W.;X;X;X;X;X;X",
";X;X;X;X-X$.>.!.c # # # = i p p p e X O f.{.+X4XeXyXuXrXrXrXuXuXuXiXiXuXqXk @ $ * * h.#Xm.j.( & X h :.i.Q.-X#.3.!.;X;X;X;X;X;X;X",
";X;X;X;X;X8.u.W.Y.,.@.,.=.< O O O O . . $ = B oX@XrXuXuXuXuXuXuXuXuXrXrXeXb.z.z.x.b.N.C./ + 2 X.o.>.u.W.;X;X8.q.Q.;X;X;X:X:X;X;X",
";X;X;X;X;X;X:X;X:X:X:X:XE.> . . . . . . .   b oXoXrXrXrXiXiXuXrXrXrXrXrX5XA.B.C.B..XB.N.B   : T.:X:X:X;X;X;X;X;X;X;X;X;X=X=X;X;X",
";X;X;X;X;X;X;X;X;X;X*X;XQ. .J K K K K K 2   < m P [.#X#X#X3X#X#X#X#X#X#XoX/ m m m m b u v K ..Q.;X;X;X;X;X;X;X;X;X;X;X;X;X;X;X;X",
";X;X;X;X;X;X;X;X;X-X7.*X;Xy.5.;X;X>X>X;Xq       $ x.S.S.S.S.S.S.V.M.M.V.m.,         . . H <X:X;X;X;X;X;X;X;X;X;X;X;X;X;X;X;X;X;X",
";X;XW.;X;X;X;X;X;X;XG.%.q.-.0.~.;X;X;X;XA q a q s _ h.h.h.h.h.h.m.A.A.D.Z.m t t t t # . H >X;X;X;X;X;X;X;X;XW.i.W.;X;X;X;X;X;X;X",
";X;X;X;X;X;X;X;X;X;Xd.-.e.w.i.~.;X;X;X;X;XQ.;X;X1.1 o o o o o O f.uXrXrXrXtX9X9XeX|.4   H >X;X;X;X;X;X;X;XW.W.W.;X;X;X;X;X;X;X;X",
";X;X;X;X;X;X;X;X;X;Xq.&.w.w.~.;X;X;X;X;X;X:X,X:XT.6 # # # # # $ f.0X7X7X7X7X7X7X7X}.0 # J ;X8.;X;XQ.;X;X;X;X;X;X;X;X;X;X;X;X;X;X",
";X;X;X;X;X;X;X;X;X;XW.r.y.~.;X;X;X;X;X;X;X;X;X;X;X<.=.=.,.,.,.<.v 4 4 4 4 4 4 4 4 4  .| 0.-X4.-XQ.~.;X;X;X;X;X;X;X;X;X;X;X;X;X;X",
";X;X;X;X;X;X;X;X;X;X;X:X:X;X;X;X;X;X;X;XW.W.Q.;X;X:X:X:X:X:X,X<Xc                 X } 4.W.-X#.6.~.Q.;X;X;X;X;X;X;X-X;X;X;X;X;X;X",
";X;X;X;X;X;X;X;X;X;X;X;X;X;X;X;X;X;X;X;XW.W.t.;X;X;X;X;X;X;X:X;X..S S S S h C C g g &.p.p.W.;.&.t.W.;X;X;X;X;X;X;X7.8.Q.~.;X;X;X",
";X;X*X*X;X;X;X;X;X;X;X;X;X;X;X;X;X;X;X;X;X;X;X;X;X;X;X;X;X;X;X;X:X>X:X:X>Xu.~.:Xu.w.e.p.;X;X5.y.~.Q.;X;X;X;X;X;X;X-X6.-XW.W.;X;X",
";X:Xq.9.;X;X;X;X;X;X;X;X;X;X;X;X;X;X;X;X;X;X;X;X;X;X;X;X;X;X;X;X;X;X;X;X;X;X;X;X;X:X:X;X;X;X;X;X;X;X;X;X;X;X;X;X;X;X:.e.!.W.;X;X",
";X;Xq.:.q.:X;X;X;X;X;X;X;X;X;X;X;X;X;X;X;X;X;X;X;X;X;X;X;X;X;X;X;X;X;X;X;X;X;X;X;X;X;X;X;X;X;X;X;X;X;X;X;X;X;X;X;X;X-.&.!.;X;X;X"
};
