/* XPM */
static char *up[] = {
/* columns rows colors chars-per-pixel */
"63 64 256 2",
"   c #050100",
".  c #090502",
"X  c #0D0A04",
"o  c #0F1207",
"O  c #120C06",
"+  c #180F07",
"@  c #160E0A",
"#  c #161007",
"$  c #14140B",
"%  c #16180B",
"&  c #181007",
"*  c #19150A",
"=  c #1B1C0D",
"-  c #181A07",
";  c #1E240D",
":  c #1E2211",
">  c #1F2D15",
",  c #231307",
"<  c #231B0D",
"1  c #251B0E",
"2  c #251D10",
"3  c #212612",
"4  c #232A12",
"5  c #2D2913",
"6  c #2B2311",
"7  c #2A3515",
"8  c #2C3419",
"9  c #2F391B",
"0  c #293615",
"q  c #3C2D14",
"w  c #342813",
"e  c #333C1B",
"r  c #3E3117",
"t  c #3E351A",
"y  c #333819",
"u  c #36441F",
"i  c #394C1E",
"p  c #3F431D",
"a  c #394622",
"s  c #3A4922",
"d  c #3E5221",
"f  c #41361B",
"g  c #47391A",
"h  c #463819",
"j  c #523F1D",
"k  c #473C21",
"l  c #59441C",
"z  c #4D4E28",
"x  c #415523",
"c  c #4A582B",
"v  c #564A25",
"b  c #5B4B22",
"n  c #564925",
"m  c #5A542A",
"M  c #4E652D",
"N  c #4E692B",
"B  c #496326",
"V  c #4F6336",
"C  c #4E793F",
"Z  c #54642C",
"A  c #516B2C",
"S  c #53712D",
"D  c #57792E",
"F  c #5E7D34",
"G  c #58773B",
"H  c #694C1D",
"J  c #70511E",
"K  c #634C24",
"L  c #6C5C2D",
"P  c #655328",
"I  c #755A25",
"U  c #6F6231",
"Y  c #607F37",
"T  c #617332",
"R  c #7E6026",
"E  c #77652E",
"W  c #7C6B32",
"Q  c #736632",
"!  c #7F7036",
"~  c #568632",
"^  c #63863A",
"/  c #658C35",
"(  c #658B39",
")  c #6A8E3A",
"_  c #648236",
"`  c #6C933C",
"'  c #679B3C",
"]  c #719B3E",
"[  c #6AA43C",
"{  c #6BBD3D",
"}  c #67B83D",
"|  c #76A23F",
" . c #78A83F",
".. c #4E8855",
"X. c #5E9A44",
"o. c #599B56",
"O. c #5BA94B",
"+. c #5DA354",
"@. c #5FB241",
"#. c #659449",
"$. c #749E41",
"%. c #618848",
"&. c #65AC4C",
"*. c #6AAF4E",
"=. c #62A342",
"-. c #64A556",
";. c #6AAB52",
":. c #6BA359",
">. c #65B641",
",. c #6AB643",
"<. c #6DB546",
"1. c #75A241",
"2. c #79A642",
"3. c #7BAB43",
"4. c #75A44D",
"5. c #74AE53",
"6. c #7AAC57",
"7. c #72B747",
"8. c #75B44C",
"9. c #74BB43",
"0. c #76B949",
"q. c #7CB44C",
"w. c #7CBE45",
"e. c #7EBA4B",
"r. c #7FB243",
"t. c #7DB352",
"y. c #76A561",
"u. c #78C13D",
"i. c #7DC144",
"p. c #853C18",
"a. c #893716",
"s. c #8B3B16",
"d. c #8B3D19",
"f. c #873C16",
"g. c #8D4017",
"h. c #8D4119",
"j. c #944C1E",
"k. c #904319",
"l. c #96511E",
"z. c #805F24",
"x. c #964E20",
"c. c #985321",
"v. c #9C5B23",
"b. c #816126",
"n. c #84652A",
"m. c #816D31",
"M. c #8A6C33",
"N. c #867232",
"B. c #84753B",
"V. c #8A7739",
"C. c #9E782D",
"Z. c #9A7E38",
"A. c #A57F33",
"S. c #B37830",
"D. c #9A873E",
"F. c #85B836",
"G. c #A7863A",
"H. c #B68C35",
"J. c #BE8E33",
"K. c #B88837",
"L. c #BE933A",
"P. c #8D8040",
"I. c #9A8844",
"U. c #82B546",
"Y. c #82B54B",
"T. c #85BB46",
"R. c #85BD4B",
"E. c #88BF4B",
"W. c #82B452",
"Q. c #85B951",
"!. c #A68F43",
"~. c #A59249",
"^. c #AE9645",
"/. c #AA9548",
"(. c #AF9845",
"). c #AF9C4C",
"_. c #B39745",
"`. c #B29A45",
"'. c #B49E4B",
"]. c #B99F47",
"[. c #BB9B47",
"{. c #BAA147",
"}. c #BAA24C",
"|. c #BAA652",
" X c #86CA38",
".X c #9BD23C",
"XX c #83C145",
"oX c #86C149",
"OX c #8DC546",
"+X c #8BC34A",
"@X c #8EC84C",
"#X c #8CC252",
"$X c #92CA43",
"%X c #90C949",
"&X c #C18A3A",
"*X c #C08E32",
"=X c #C89538",
"-X c #D19C39",
";X c #DAA137",
":X c #DCA93C",
">X c #D5A33D",
",X c #EFAF3C",
"<X c #EEAD34",
"1X c #EEB036",
"2X c #EEB13D",
"3X c #EFBB3E",
"4X c #F0AE34",
"5X c #F2B236",
"6X c #F2B33A",
"7X c #F1BA3E",
"8X c #CB9B42",
"9X c #CA9943",
"0X c #C5A94E",
"qX c #CBAC4C",
"wX c #C2AA50",
"eX c #CFB34E",
"rX c #D5A545",
"tX c #D7A946",
"yX c #D9A746",
"uX c #DAAB46",
"iX c #DBAD4A",
"pX c #D6A749",
"aX c #DEB149",
"sX c #DBBB4F",
"dX c #D0B34F",
"fX c #D4B751",
"gX c #DBBD53",
"hX c #D6BA51",
"jX c #E2AA42",
"kX c #ECAE41",
"lX c #E1A741",
"zX c #E5BB4D",
"xX c #EEB342",
"cX c #E7B444",
"vX c #F1B441",
"bX c #F1BB44",
"nX c #F0BF4A",
"mX c #E2B753",
"MX c #DDC051",
"NX c #EBC14F",
"BX c #E6C554",
"VX c #EAC552",
"CX c #EAC759",
"ZX c #ECCA54",
"AX c #E6C856",
"SX c #F4C44B",
"DX c #F5CA4E",
"FX c #F5C548",
"GX c #F6CE52",
"HX c #F1CF58",
"JX c #F8CF52",
"KX c #F6D154",
"LX c #F4D159",
"PX c #F9D354",
"IX c #FBD559",
"UX c #FEDA58",
/* pixels */
"+X+XE.Q.>.oX+X+X+X+X+X+X+X+X+X+X+X+X+X+X+X+X+X+X+X+X+X+X+X+X+X+X+X+X+X+X+X+X+X+X+X+X+X+X+X+X+X+X+X+X+X+X+X+X+X+X+X+X+X+XXX+X+X",
"+X+XQ.y.;.0.+X+X+X+X+X+X+X+X+X+X+X+X+X+X+X+X+X+X+X+X+X+X+X+X+X+X+X+X+X+X+X+X+X+X+X+X+X+X+X+X+X+X+X+X+X+X+X+X+X+X+X+X+X+X+X+X+X",
"+X+X+XQ.t.w.+X+X+X+X+X+X+X+X+X+X+X+X+X+X+X+X+X+X+X+X+X+X+X+X+X+X+X+X+X+X+X+X+X+X+X+X+X+X+X+X+X+X+X+X+X+X+X+X+X+X+X+X+X+X+X+X+X",
"+X+X+X+X+X+X+X+X+XE.+X+X+X+X+X+X+X+X+X+X+X+X+X+XOX+XoX+X+X+X+Xi.9.E.+X+X+X+X+X+X+X+X+X+X+X+X+X+X+X+XOX$X$X+X+X+X+X+X+X+X+X+X+X",
"+X+X+X+X+X+X+X+X@X+X@X@X@X@X+X+X+X+X+X+X+X+XoXoX+X+X+X+X+X+X+XoX9.e.R.+X+X+X+X+X+XoXoX+XE.oXoX+X+X@X+X%X+X@XOX+X+X+X+X+X+X+X+X",
"+X+X+X+X+X+X+X` S S S S S S r.+X+X+X+X+X+XoXQ.R.R.+X+X+X+X+X+Xi.,.*.8.+X+X+X+XE.R.oXE.+X+XoXoX2.) ) ) ) ) ) ` U.+X+X+X+X+X+X+X",
"+X+X+X+X+X+X+Xx     .     X ` @X+X+X+X+X+XE.oXoX+X+X+X+X+X+X+XoXe.q.Y.+X+X+XE.R.+X+X+X+X+X+X@XB . X X X X X X / +X+X+X+X+X+X+X",
"+X+X+X+X+X+X+Xx   .   . . X _ U.Y.+X+X+X+X+X+X+X+X+X+X+X+X+X+X+X+X+X+X+X+X+X+X+X+X+X+X+XoX3.3.d   .   . . . X ~ i.+X+XOX+XoX+X",
"+X+X+X+X+X+X+Xx   .   . . . = ; c oX+X+X+X+X+X+Xw.+X+XoXXXR.E.+X+X+X+X+X+X+X+X+X+X+X+X+Xr.4 $ o   . X   . . X ~ w.R.E.+X+X+X+X",
"+X+X+X+X+X+X+Xx   . . .   . X X a oXE.E.+X+X+XoX9.w.oX9.>.Q.R.+X+X+X+X+X+X+X+X+X+X+X+XR.2.: X X X X     .   . C &.t.+X+X+X+X+X",
"+X+X+X+X+X+X+Xx   . . .   O V.}.! 9 s r.+X+X+X+X$Xu.9.>.q.Q.+X+X+X+X+X+X+X+XR.+XE.+X] 9 y I.].m       X . . X ~ Q.R.oX+X+X+X+X",
"+X+X+X+X+X+X#Xd     . .   X |.UXI.  o 2.@X+X+X+X.Xu.;.o.t.+X+X+X+X+X+X+X+XXX+X+X+X@X( . @ 0XIXm.    X X     . / @X+X+X+X+X+X+X",
"+X+X+X+XoXE.+XF i 0   * m L dXIX].P v A F 3.+X+XXX+.:.:.E.+X+X+X+X+X+X+X+XXXu.OX` D M m U hXPX^.P k .   = d x  .+X+X+X+X+X+X+X",
"+X+X+XE.oX+X+XoXoXA   5 gXPXGXGXPXPXwX* . Y +X+X+Xq.t.+X+X+X+X@X+X+X+X+X+X+X XXXi   f CXHXGXJXLXIX~.X   u +X+X+X+X+X+X+X+X+X+X",
"+XE.R.E.+X+X+Xe.5.N   5 gXJXGXPXGXPX0X* . F @XT.2.2.2.2.2.2.2.2.2.2.2.2.2.2. Xu.i   t ZXJXGXGXKXPX/.X   u +X+X+X+X+X+X+X+X+X+X",
"+X+XoX+X+X+X+Xe.6.N   5 zXPXPXPXGXIX0X* . G +X#.= % % % % % * $ % % % = % ; #.:.i   t ZXPXGXPXJXPX(.X   u +X+X+X+X+X+X+X+X+X+X",
"+X+X+X+X+X+X+X+XQ.S . 5 MXHXLXKXKXPXdX6 X G +X^ X X X . X . X X X . X X . $ %.5.x . g CXKXKXJXDXKX'.# . s +X+X+X+X+X+X$X+X+X+X",
"+X+X+X+X+X+X+X+X+X3.~ ~ m z 0XPXKXPXZXH.G.m u m /.(.(.(.`.(.(.(.^.(.^.'.(.I.p 9 E G.[.DXKXDXJX^.z z _ / ] +X+X+X+X+X+X$XOX+X+X",
"+X+X+X+X+X+X+X+X+X+X+XF.%   ^.PXKXKXKXbXxXl   k LXPXPXPXPXPXIXPXIXPXPXPXIXhX=   z.vXbXJXDXKXPXV.  ; r.@X%XOX+X+X+X+X+X+X+X+X+X",
"+X+X+X+X+X+XXXoX+X+X+X[ $ X G.DXDXFXFXNXNXG.Q I.LXKXPXKXPXPXLXJXPXJXKXKXJXBXV.Q [.nXbXFXFXNXFXM.  ; r.+X$X.X+Xw.+X+X+X+X+X+X+X",
"+X+X+X+X+X+Xw.9.w.w.+XX.* . C.6X,X2XvXGXJXPXLXPXKXKXKXKXKXKXKXKXLXLXJXKXKXPXLXIXPXJXSXxX,X,XvXn.  ; r.+X+X.Xw.7.R.R.+X+X+X+X+X",
"+X+X+X+X+X+X+X>.w.9.&...> ; N.8X>X2XbXGXKXJXLXPXLXPXJXKXPXKXKXPXKXJXKXKXKXDXKXJXJXGXSXvXvX8X9XE ; i T.+X+XoX&.Q.W.T.+X+X+X+X+X",
"+X+X+X+X+X+X+X;.e.+X;.o.o.3.y # K ,XvXJXKXKXKXLXJXPXKXKXPXKXKXJXKXKXKXKXKXKXJXKXKXGXDXxXjXj * Z U.T.+X+X+X,.+.Q.Q.E.+X+X+X+X+X",
"+X+X+X+X+X+X+X+X+X+XE.oX+XoX0   j kX3XKXKXKXKXJXKXKXKXLXKXKXLXKXKXKXKXKXKXKXLXKXGXGXDXvXlXf   M +X+X+X+X+X<.;.R.+X+X+X+X+X+X+X",
"+X+X+X+X+X+X+X+X+X+X+X+X+XoX0   n zXSXKXKXKXKXKXKXKXKXKXKXKXKXKXKXPXKXKXKXKXKXKXKXKXDXFXzXf   M +X+X+X+X+X+X+X+X+X+X+X+X+X+X+X",
"+X+XoX+XE.+X+X+X+X+X+X+X+XT.7   n HXJXLXKXPXKXKXKXKXKXKXKXKXKXKXKXKXKXKXLXJXKXKXKXKXKXDXNXt   M +X+X+X+X+X+X+X+X+X+X+X+X+X+X+X",
"+X+Xq.6.R.+X+X+X+X+X+X+X+XT.0   n HXKXKXLXJXKXKXKXKXKXKXKXKXKXKXKXKXKXKXKXKXKXKXKXKXKXKXBXt   N @X+X+X+X+X+X+X+X+X+X+X+XR.E.E.",
"+XE.XXR.+X+X+X+X+X+X+X+X+XoXu   z KXJXKXKXKXKXKXKXKXKXPXKXKXKXKXKXKXKXKXKXKXKXKXKXKXKXKXBXt   N @X+X+XOX$XR.oX+X+X+X+X+X6.W.R.",
"+X+X9.} i.R.+X+X+X+X+XT._ F c j m.HXKXKXKXKXKXKXKXLXKXKXKXKXKXKXKXKXKXKXKXKXKXKXKXKXPXKXZXE g T ] 1.oX.X.XR.R.+X+X+X+XE.+X+X+X",
"+X+X0.o.q.+X+X+X+X+X+X3.= X !.KXHXGXKXKXGXKXKXKXKXKXKXKXKXKXKXKXKXKXKXKXKXKXKXKXKXPXKXKXKXZXLX! X 9 T.XXu.R.+X+X+X+X+X+X+X+X+X",
"+X+X+XY.oX+X+X+X+X+X+X3.% . _.PXJXKXKXKXKXKXKXKXKXKXKXKXKXKXKXKXKXKXKXKXKXKXPXLXKXKXKXKXKXKXPXm.  8 T.oXR.R.+X+X+X+X+X+X+X+X+X",
"+X+X+X+XE.+X+X+X+X+X+X3.% O _.PXGXGXKXKXGXKXKXKXKXKXKXDXKXKXKXKXKXKXKXKXKXKXKXKXKXKXKXKXKXKXPXW   8 T.+X+X+X+X+X+X+X+X+X+X+X+X",
"+X+X+X+X+X+X+X+X+X+X+X3.- X L.PXGXGXGXGXKXGXKXKXKXKXKXKXKXDXKXKXKXKXKXKXDXKXKXKXKXKXKXKXKXKXPXW   9 R.+X+X+X+X+X+X+X+X+X+X+X+X",
"+X+X+X+X+X+XoXXX+X#X+X3.- X ).PXGXGXGXGXDXGXGXKXGXKXKXKXKXKXKXDXKXKXKXKXKXKXKXKXKXKXKXKXKXKXPXW   7 T.+XoXXX+X+X+X+X+XE.+X+X+X",
"+X+X+X+X+X+Xi.i.R.Y.+X3.- X `.PXGXGXKXGXGXGXKXKXGXKXKXDXKXKXKXKXDXKXKXKXKXKXKXKXKXKXKXKXKXKXKXW   7 R.+Xi.XXXXE.+X+X+XQ.W.+X+X",
"+X+X+X+X+X+XXXi.<.oX+X3.% X ].DXDXKXGXGXGXGXKXKXGXGXKXGXKXKXKXKXKXKXKXKXKXKXKXKXKXKXGXKXKXGXDXW   9 T.+X.Xi.0.R.+X+X+XoXR.oX+X",
"+X+X+X+X+X+X+X,.7.<.E.3.% X H.5X3XKXKXKXGXGXGXKXKXKXKXKXKXKXKXKXKXGXDXKXKXKXKXKXKXKXKXKXGX3X6XI   8 R.R.W.>.0.7.R.+X+XoX+X+X+X",
"+X+X+X+X+X+XQ.-.8.,.#X3.4 = G.;X:XPXGXGXGXKXKXKXGXKXKXGXKXKXKXKXDXKXKXKXKXKXKXKXKXKXGXKXDX:X;XI $ a E.E.W.-.-.<.R.OX+X+X+X+X+X",
"+X+X+X+X+X+XE.oXoX+X+XoX .| p < L KXGXKXGXGXKXKXKXKXKXKXKXDXKXDXKXKXKXKXKXKXKXKXKXKXKXKXAXl < Z  .3.+X+X+XE.E.+X+X+X+X+X+X+X+X",
"+X+X+X+X+X+XE.+X+X+X+X+X+XR.7   z KXKXKXKXGXGXKXKXKXKXKXPXPXPXPXKXKXKXKXKXKXKXKXKXKXKXKXAXt   A +X+X+X+X+X+X+X+X+X+X+X+X+X+X+X",
"+X+X+X+X+X+X+X+X+X+X+X+X+XE.0   m KXKXKXKXKXKXNXjXiXuXuXuXuXuXuXuXtXuXuXuXaXHXKXPXKXKXDXBXf   N +X+X+X+X+X+X+X+X+X+X+X+X+X+X+X",
"+X+X+X+X+XOX$XOX+X+X+X+XOXE.0   v ZXKXKXKXKXPXrXh.k.g.g.h.h.s.g.g.g.g.g.g.c.VXJXKXLXKXPXBXt   N +X+X+X+X+XOXOX+X+X+X+X+X+X+X+X",
"+XR.R.oX+X+X+X+X+X+X+XR.$.$.z r W LXLXKXPXHXZXrXs.s.s.s.s.s.a.s.s.a.f.f.a.x.mXZXGXKXKXPXZXL r Z ] 1.E.+X+X$X$XoX+X+X+X+X+XOX+X",
"+X+X+XoX+X+X+X+X+X+X+X3.3 * '.AXZXPXKXKXPXK.v.c.s.s.d.d.s.s.s.s.a.a.f.f.a.d.c.c.rXKXKXKXLXBXAXU X 4 T.+X+X+X+X+X+X+XR.+X+X+X+X",
"+X+X+X+X+X+X+X+X+XY.U.$.5 6 {.PXDXKXJXLXHXS.a.a.s.h.h.s.h.s.d.d.d.d.d.d.d.f.p.p.=XLXLXDXDXJXJXm.= y 2.3.U.+X+X+XR.+XE.+X+X+X+X",
"+X+X+X+X+X+X+X+X+XF : y |.sXZXJXFX2XxXDXPXmXyXrXtXtXyXyXyXuXyXyXyXuXyXyXpXyXiXiXBXPXDXxXxXDXKXgXfX~.5 = B @X+X+X+X+X+XE.+X+X+X",
"+XoX+X+X+X+X+X+X+XA   < hXPXJXJXFX,X2XDXJXKXPXPXIXPXPXPXPXIXPXIXPXIXPXIXIXPXPXPXKXLXDXvXvXDXPXIXPX{.@   d OX+X+X+X+X+X+X+X+X+X",
"+X+X+X+X+X+X+X+X@XA   2 fXGX_.N.Z.jX2XGXKXLXKXVX&X&X&X&X&X&X&X&X&X&X&X&XL.9XDXGXKXKXDX2XcXZ.W {.PX{.O   d i.oX+X+X+X+X+X+X+X+X",
"+X+X+X+XT.XXoX+X@XA . < fXHXn   q lXxXDXLXJXPXiXh.a.f.a.s.a.d.s.s.s.s.a.f.l.BXKXPXGXGX2XlXq   W UX{.O   x u.i.oXR.E.+X+X+X+X+X",
"+X+X+X+X$X XXXE.E.Y 4 e ~.'.f   r lX2XJXJXVXSX8Xh.d.d.a.d.a.d.s.s.s.d.s.f.j.iXNXHXJXDXxXlXq   v }.P.0 4 S { } Y.Q.+X+X+X+X+X+X",
"oXE.+X+X X,.&.W.Y.E.T.$.: @ . . q jX2XDXPXK.j.j.s.s.d.a.f.s.s.s.s.s.d.a.f.s.j.l.rXJXDX2XlXq   X X 8 #.Y.R.} @.W.E.+X+X+X+X+X+X",
"+X+X+X+XoXw.6.R.+X+X+XU.: X .   r jXvXGXLXS.d.k.k.k.k.k.g.f.f.h.d.k.d.k.h.h.g.g.8XPXDX2XlXq . X X 8 Y.@X+Xw.0.R.+X+X+X+XOX+X+X",
"+X+X+X+X+X+X+X+X+XOX+XT.] ) 0   f 2X2XDXJXzXaXaXcXuXuXjXM., w &XlXtXtXuXuXiXiXiXVXJXDX2X,Xw   s #.$.E.+X+XOX+X+X+X+X+X$X%X+X+X",
"+X+X+X+X+X+X+X+X+XoXoX+X+X+Xs . h jXcXDXKXKXJXJXLXPXJXPXV.  < qXJXJXJXJXJXPXPXPXKXKXDXxXyXf . A @X@X+X+X+X+X+X+X+X+X+XOX+X+X+X",
"+XoX+X+X+X+X+X+X+XoXw.XXR.&.' #.F b J :X7X7X7X7X7X7X3X7X&Xb.n.P K L.7X7X7X7X7X7X7X7XrXK K ^ ( 3.+X+X+X+X+X+X+X+X+X+XoX+X+X+X+X",
"+XE.R.+X+X+X+X+X+X+X Xu.0.O.e.#X_   , -X<X4X,X1X5X4X4X6X6X6X:X2 . C.6X5X5X,X5X6X4X4XK.. o 2.@X@X+X+X+X+X+XE.W.T.E.+X+X+X+X+X+X",
"+X+X+X+X+X+X+X+X+X+Xi.O.;.-.^ M m l J ;X1X=Xb.b.b.I b.I I z.I * . l b.R b.R R R *X5X-XH H Z M ` +X+X+X+XoXT.R.oX+X+X+X+X+X+X+X",
"+X+XoX+X+X+X+X+X+X+X8.o.-.-.a   n kX1X1X5XG.X   . . .   .     .             X   n.6X4X5X<Xq   M E.oX+X+X+XoX+X+X+X+X+X+X+X+X+X",
"+X+X+X+X+X+X+X+X+X+XY.5.5.Q.s   g J.J.J.*Xn.O # 3 3 6 4 4 4 3 4 > 4 4 4 ; > X   P =X*X*XG.w   M Q.E.+X+X+X+X+X+X+X+X+X+X+X+X+X",
"+X+X+X+X+X+X+X+X+X+X+X+X+XE.s   X + + * + O   i Y.U.U.U.U.T.T.T.T.U.U.r.,.' ;   X * # # O . . c #X+X+X+X+X+X+X+XR.oX+X+X+X+X+X",
"+X+X+X+X+X+X+X+X+X+X+X+X+X+Xd X X X X X X X X c +X+X+X+X+X+X@X+X+X+X+X+X9.=.8 * $ $ $ % % % # V Q.+X+X+X+X+X+X+X9.i.R.Q.+X+X+X",
"+X+Xi.T.+X+X+X+X+X+X+X+X+XE.2.#.` ` ` ` ` ` ) $.+X+X+X+X+X+X+X+X+X+X+X+Xe.5.2.1.#.#.#.4. .[ #.6.R.+X+X+X+X+X+X+XoX*.R.Q.Y.+X+X",
"+X+X0.q.+X+X+X+X+X+X+X+X+X+X@X+X+X@X+X@X+X+X@X+X+X+X+X+X+X+X+X+X+X+X+X+X+X+X+X@X+X+X@X+X+X+X+X+X+X+X+X+X+X+X+X+X+X+.:.W.R.+X+X",
"+X+X0.+.Y.+X+X+X+X+X+X+X+X+X+X+X+X+X+X+X+X+X+X+X+X+X+X+X+X+X+X+X+X+X+X+X+X+X+X+X+X+X+X+X+X+X+X+X+X+X+X+X+X+X+X+XoX&.o.W.+X+X+X"
};
